<svg width="34" height="34" viewBox="0 0 34 34" fill="none" xmlns="http://www.w3.org/2000/svg">
<g id="Frame" clip-path="url(#clip0_3016_14938)">
<path id="Vector" d="M7.08333 9.91602H8.5C9.25145 9.91602 9.97212 9.6175 10.5035 9.08615C11.0348 8.5548 11.3333 7.83413 11.3333 7.08268C11.3333 6.70696 11.4826 6.34662 11.7483 6.08095C12.0139 5.81527 12.3743 5.66602 12.75 5.66602H21.25C21.6257 5.66602 21.9861 5.81527 22.2517 6.08095C22.5174 6.34662 22.6667 6.70696 22.6667 7.08268C22.6667 7.83413 22.9652 8.5548 23.4965 9.08615C24.0279 9.6175 24.7486 9.91602 25.5 9.91602H26.9167C27.6681 9.91602 28.3888 10.2145 28.9201 10.7459C29.4515 11.2772 29.75 11.9979 29.75 12.7493V25.4993C29.75 26.2508 29.4515 26.9715 28.9201 27.5028C28.3888 28.0342 27.6681 28.3327 26.9167 28.3327H7.08333C6.33189 28.3327 5.61122 28.0342 5.07986 27.5028C4.54851 26.9715 4.25 26.2508 4.25 25.4993V12.7493C4.25 11.9979 4.54851 11.2772 5.07986 10.7459C5.61122 10.2145 6.33189 9.91602 7.08333 9.91602Z" stroke="white" stroke-width="2" stroke-linecap="round" stroke-linejoin="round"/>
<path id="Vector_2" d="M12.75 18.416C12.75 19.5432 13.1978 20.6242 13.9948 21.4212C14.7918 22.2182 15.8728 22.666 17 22.666C18.1272 22.666 19.2082 22.2182 20.0052 21.4212C20.8022 20.6242 21.25 19.5432 21.25 18.416C21.25 17.2888 20.8022 16.2078 20.0052 15.4108C19.2082 14.6138 18.1272 14.166 17 14.166C15.8728 14.166 14.7918 14.6138 13.9948 15.4108C13.1978 16.2078 12.75 17.2888 12.75 18.416Z" stroke="white" stroke-width="2" stroke-linecap="round" stroke-linejoin="round"/>
</g>
<defs>
<clipPath id="clip0_3016_14938">
<rect width="34" height="34" fill="white"/>
</clipPath>
</defs>
</svg>
