<svg width="34" height="34" viewBox="0 0 34 34" fill="none" xmlns="http://www.w3.org/2000/svg">
<g id="Frame" clip-path="url(#clip0_2999_6917)">
<path id="Vector" d="M17 2.83337L17.459 2.83479L17.9095 2.84046L18.7822 2.86454L19.2058 2.88296L20.026 2.93112L20.8095 2.99629C27.5882 3.65362 30.3465 6.41187 31.0038 13.1906L31.069 13.974L31.1171 14.7943C31.1242 14.9331 31.1313 15.0748 31.1355 15.2179L31.1596 16.0905L31.1667 17L31.1596 17.9095L31.1355 18.7822L31.1171 19.2058L31.069 20.026L31.0038 20.8095C30.3465 27.5882 27.5882 30.3465 20.8095 31.0038L20.026 31.069L19.2058 31.1171C19.067 31.1242 18.9253 31.1313 18.7822 31.1355L17.9095 31.1596L17 31.1667L16.0905 31.1596L15.2179 31.1355L14.7943 31.1171L13.974 31.069L13.1906 31.0038C6.41187 30.3465 3.65362 27.5882 2.99629 20.8095L2.93112 20.026L2.88296 19.2058C2.87607 19.0646 2.86993 18.9234 2.86454 18.7822L2.84046 17.9095C2.83621 17.612 2.83337 17.3089 2.83337 17L2.83479 16.541L2.84046 16.0905L2.86454 15.2179L2.88296 14.7943L2.93112 13.974L2.99629 13.1906C3.65362 6.41187 6.41187 3.65362 13.1906 2.99629L13.974 2.93112L14.7943 2.88296C14.9331 2.87587 15.0748 2.86879 15.2179 2.86454L16.0905 2.84046C16.388 2.83621 16.6912 2.83337 17 2.83337ZM14.8906 12.9484C14.5938 12.7717 14.2427 12.7095 13.9032 12.7736C13.5638 12.8377 13.2595 13.0236 13.0475 13.2963C12.8355 13.569 12.7304 13.9098 12.7521 14.2545C12.7738 14.5993 12.9207 14.9242 13.1651 15.1683L14.9955 17L13.1651 18.8318L13.0475 18.965C12.8274 19.2497 12.7238 19.6076 12.758 19.9659C12.7921 20.3242 12.9613 20.6561 13.2313 20.8941C13.5013 21.1322 13.8517 21.2585 14.2115 21.2475C14.5713 21.2365 14.9134 21.089 15.1683 20.835L17 19.0046L18.8318 20.835L18.965 20.9525C19.2497 21.1727 19.6076 21.2762 19.9659 21.2421C20.3242 21.208 20.6561 21.0387 20.8941 20.7688C21.1322 20.4988 21.2585 20.1483 21.2475 19.7886C21.2365 19.4288 21.089 19.0867 20.835 18.8318L19.0046 17L20.835 15.1683L20.9525 15.0351C21.1727 14.7504 21.2762 14.3925 21.2421 14.0342C21.208 13.6759 21.0387 13.344 20.7688 13.106C20.4988 12.8679 20.1483 12.7416 19.7886 12.7526C19.4288 12.7635 19.0867 12.911 18.8318 13.1651L17 14.9955L15.1683 13.1651L15.0351 13.0475L14.8906 12.9484Z" fill="black"/>
</g>
<defs>
<clipPath id="clip0_2999_6917">
<rect width="34" height="34" fill="white"/>
</clipPath>
</defs>
</svg>
