<svg width="16" height="16" viewBox="0 0 16 16" fill="none" xmlns="http://www.w3.org/2000/svg">
<g id="Frame" clip-path="url(#clip0_4010_3627)">
<path id="Vector" d="M5.99992 3.33331H4.66659C4.31296 3.33331 3.97382 3.47379 3.72378 3.72384C3.47373 3.97389 3.33325 4.31302 3.33325 4.66665V12.6666C3.33325 13.0203 3.47373 13.3594 3.72378 13.6095C3.97382 13.8595 4.31296 14 4.66659 14H11.3333C11.6869 14 12.026 13.8595 12.2761 13.6095C12.5261 13.3594 12.6666 13.0203 12.6666 12.6666V4.66665C12.6666 4.31302 12.5261 3.97389 12.2761 3.72384C12.026 3.47379 11.6869 3.33331 11.3333 3.33331H9.99992" stroke="#947AFD" stroke-width="1.5" stroke-linecap="round" stroke-linejoin="round"/>
<path id="Vector_2" d="M6 3.33333C6 2.97971 6.14048 2.64057 6.39052 2.39052C6.64057 2.14048 6.97971 2 7.33333 2H8.66667C9.02029 2 9.35943 2.14048 9.60948 2.39052C9.85952 2.64057 10 2.97971 10 3.33333C10 3.68696 9.85952 4.02609 9.60948 4.27614C9.35943 4.52619 9.02029 4.66667 8.66667 4.66667H7.33333C6.97971 4.66667 6.64057 4.52619 6.39052 4.27614C6.14048 4.02609 6 3.68696 6 3.33333Z" stroke="#947AFD" stroke-width="1.5" stroke-linecap="round" stroke-linejoin="round"/>
<path id="Vector_3" d="M7.99545 11.1667L9.82678 9.28999C10.0533 9.05409 10.1798 8.73971 10.1798 8.41266C10.1798 8.08561 10.0533 7.77123 9.82678 7.53533C9.71636 7.42039 9.58385 7.32894 9.43722 7.26648C9.29058 7.20401 9.13284 7.17181 8.97345 7.17181C8.81406 7.17181 8.65632 7.20401 8.50968 7.26648C8.36305 7.32894 8.23054 7.42039 8.12012 7.53533L7.99812 7.66066L7.87612 7.53466C7.76569 7.41972 7.63319 7.32827 7.48655 7.26581C7.33992 7.20334 7.18217 7.17114 7.02278 7.17114C6.8634 7.17114 6.70565 7.20334 6.55902 7.26581C6.41238 7.32827 6.27987 7.41972 6.16945 7.53466C5.94277 7.77048 5.81616 8.08489 5.81616 8.41199C5.81616 8.7391 5.94277 9.0535 6.16945 9.28933L7.99478 11.1727L7.99545 11.1667Z" stroke="#947AFD" stroke-width="1.5" stroke-linecap="round" stroke-linejoin="round"/>
</g>
<defs>
<clipPath id="clip0_4010_3627">
<rect width="16" height="16" fill="white"/>
</clipPath>
</defs>
</svg>
