<?xml version="1.0" encoding="UTF-8"?>
<svg id="Layer_1" xmlns="http://www.w3.org/2000/svg" version="1.1" viewBox="0 0 309.4 72">
  <!-- Generator: Adobe Illustrator 29.4.0, SVG Export Plug-In . SVG Version: 2.1.0 Build 152)  -->
  <defs>
    <style>
      .st0, .st1 {
        fill: #fff;
      }

      .st1 {
        fill-rule: evenodd;
      }
    </style>
  </defs>
  <g>
    <path class="st0" d="M66.2,56.1v-10.2c0,0,0-.1.1-.1h6.1c1.5,0,2.7,1.2,2.7,2.7,0,1.1-.7,2.1-1.7,2.5,1,.4,1.7,1.4,1.7,2.5s-1.2,2.7-2.7,2.7h-6.1c0,0-.1,0-.1-.1ZM72.4,50.8c1.3,0,2.3-1,2.3-2.3s-1-2.3-2.3-2.3h-5.8v4.6h5.8ZM74.7,53.5c0-1.3-1-2.3-2.3-2.3h-5.8v4.6h5.8c1.3,0,2.3-1,2.3-2.3Z"/>
    <path class="st0" d="M77.1,46.3v4.6h5.4c0,0,.1,0,.1.1v.2c0,0,0,.1-.1.1h-5.4v4.6h8.4c0,0,.1,0,.1.1v.2c0,0,0,.1-.1.1h-8.7c0,0-.1,0-.1-.1v-10.2c0,0,0-.1.1-.1h8.7c0,0,.1,0,.1.1v.2c0,0,0,.1-.1.1h-8.4Z"/>
    <path class="st0" d="M87.1,46s0,0,0-.1c0,0,0,0,0,0h.2s0,0,0,0l4,6.5,4-6.5s0,0,0,0h.2s0,0,0,0c0,0,0,0,0,.1l-4.2,6.8v3.3c0,0,0,.1-.1.1h-.2c0,0-.1,0-.1-.1v-3.3l-4.2-6.8Z"/>
    <path class="st0" d="M95.4,51c0-2.9,2.3-5.2,5.2-5.2s5.2,2.3,5.2,5.2-2.3,5.2-5.2,5.2-5.2-2.3-5.2-5.2ZM95.8,51c0,2.6,2.1,4.8,4.8,4.8s4.8-2.1,4.8-4.8-2.1-4.8-4.8-4.8-4.8,2.1-4.8,4.8Z"/>
    <path class="st0" d="M107.2,56.1v-10.2s0,0,0,0c0,0,0,0,0,0,0,0,0,0,0,0,0,0,0,0,0,0h0s0,0,0,0c0,0,0,0,0,0,0,0,0,0,0,0,0,0,0,0,0,0,0,0,0,0,0,0,0,0,0,0,0,0,0,0,0,0,0,0h.2s0,0,0,0l4.2,5.1,3.8,4.6v-9.6c0,0,0-.1.1-.1h.2c0,0,.1,0,.1.1v10.2s0,0,0,0c0,0,0,0,0,0,0,0,0,0,0,0t0,0s0,0,0,0c0,0,0,0,0,0,0,0,0,0,0,0,0,0,0,0,0,0,0,0,0,0,0,0,0,0,0,0,0,0h0s0,0,0,0h-.2s0,0,0,0l-4.1-4.9v-.2c-.1,0-3.9-4.6-3.9-4.6v9.6c0,0,0,.1-.1.1h-.2c0,0-.1,0-.1-.1Z"/>
    <path class="st0" d="M126.5,51c0,2.9-2.3,5.2-5.2,5.2h-3.6c0,0-.1,0-.1-.1v-10.2c0,0,0-.1.1-.1h3.6c2.9,0,5.2,2.3,5.2,5.2ZM118,55.8h3.3c2.6,0,4.8-2.1,4.8-4.8s-2.1-4.8-4.8-4.8h-3.3v9.6Z"/>
    <path class="st0" d="M133.2,46.2v-.2c0,0,0-.1.1-.1h8.7c0,0,.1,0,.1.1v.2c0,0,0,.1-.1.1h-4.1v9.9c0,0,0,.1-.1.1h-.2c0,0-.1,0-.1-.1v-9.9h-4.1c0,0-.1,0-.1-.1Z"/>
    <path class="st0" d="M144,46.3v4.6h5.4c0,0,.1,0,.1.1v.2c0,0,0,.1-.1.1h-5.4v4.6h8.4c0,0,.1,0,.1.1v.2c0,0,0,.1-.1.1h-8.7c0,0-.1,0-.1-.1v-10.2c0,0,0-.1.1-.1h8.7c0,0,.1,0,.1.1v.2c0,0,0,.1-.1.1h-8.4Z"/>
    <path class="st0" d="M153.6,47.7c-1.9,1.9-1.9,4.9,0,6.8.9.9,2,1.4,3.3,1.4,1.2,0,2.4-.4,3.3-1.3,0,0,0,0,.1-.1,0,0,.1,0,.2,0h.1c0,.2,0,.2,0,.2,0,0,0,0,0,0,0,0,0,0-.1.1-1,.9-2.2,1.4-3.5,1.4s0,0,0,0c-1.4,0-2.6-.6-3.6-1.5-2-2-2-5.3,0-7.3,1-1,2.2-1.5,3.6-1.5,1.3,0,2.6.5,3.6,1.4,0,0,0,0,.1.1,0,0,0,0,0,0,0,0,0,0,0,0h-.1c0,.2-.1.2-.2.1s0,0-.1-.1c-.9-.8-2.1-1.3-3.3-1.3-1.2,0-2.4.5-3.3,1.4Z"/>
    <path class="st0" d="M162.1,56.1v-10.2c0,0,0-.1.1-.1h.2c0,0,.1,0,.1.1v4.9h8.1v-4.9c0,0,0-.1.1-.1h.2c0,0,.1,0,.1.1v10.2c0,0,0,.1-.1.1h-.2c0,0-.1,0-.1-.1v-4.9h-8.1v4.9c0,0,0,.1-.1.1h-.2c0,0-.1,0-.1-.1Z"/>
    <path class="st0" d="M172.5,56.1v-10.2s0,0,0,0c0,0,0,0,0,0,0,0,0,0,0,0,0,0,0,0,0,0h0s0,0,0,0c0,0,0,0,0,0,0,0,0,0,0,0,0,0,0,0,0,0,0,0,0,0,0,0,0,0,0,0,0,0,0,0,0,0,0,0h.2s0,0,0,0l4.2,5.1,3.8,4.6v-9.6c0,0,0-.1.1-.1h.2c0,0,.1,0,.1.1v10.2s0,0,0,0c0,0,0,0,0,0,0,0,0,0,0,0t0,0s0,0,0,0c0,0,0,0,0,0,0,0,0,0,0,0,0,0,0,0,0,0,0,0,0,0,0,0,0,0,0,0,0,0h0s0,0,0,0h-.2s0,0,0,0l-4.1-4.9v-.2c-.1,0-3.9-4.6-3.9-4.6v9.6c0,0,0,.1-.1.1h-.2c0,0-.1,0-.1-.1Z"/>
    <path class="st0" d="M182.9,51c0-2.9,2.3-5.2,5.2-5.2s5.2,2.3,5.2,5.2-2.3,5.2-5.2,5.2-5.2-2.3-5.2-5.2ZM183.3,51c0,2.6,2.1,4.8,4.8,4.8s4.8-2.1,4.8-4.8-2.1-4.8-4.8-4.8-4.8,2.1-4.8,4.8Z"/>
    <path class="st0" d="M194.8,56.1v-10.2c0,0,0-.1.1-.1h.2c0,0,.1,0,.1.1v9.9h8.4c0,0,.1,0,.1.1v.2c0,0,0,.1-.1.1h-8.7c0,0-.1,0-.1-.1Z"/>
    <path class="st0" d="M203,51c0-2.9,2.3-5.2,5.2-5.2s5.2,2.3,5.2,5.2-2.3,5.2-5.2,5.2-5.2-2.3-5.2-5.2ZM203.4,51c0,2.6,2.1,4.8,4.8,4.8s4.8-2.1,4.8-4.8-2.1-4.8-4.8-4.8-4.8,2.1-4.8,4.8Z"/>
    <path class="st0" d="M216.4,54.7c-2-2-2-5.3,0-7.3,1-1,2.2-1.5,3.6-1.5,1.4,0,2.6.5,3.6,1.4,0,0,0,0,.1.1,0,0,0,0,0,0,0,0,0,0,0,0h-.1c0,.2-.1.2-.2.1s0,0-.1-.1c-.9-.8-2.1-1.3-3.3-1.3-1.2,0-2.4.5-3.3,1.4-1.9,1.9-1.9,4.9,0,6.8.9.9,2,1.4,3.3,1.4,1.2,0,2.4-.4,3.3-1.3,0,0,0,0,0,0v-3.6c0,0,0-.1.1-.1h.2c0,0,.1,0,.1.1v3.7s0,0,0,0,0,0,0,0c0,0,0,0,0,0,0,0,0,0,0,0,0,0,0,0,0,0,0,0,0,0,0,0,0,0,0,0,0,0,0,0,0,0-.1.1,0,0,0,0,0,0-1,.9-2.2,1.3-3.5,1.3s-2.7-.5-3.7-1.5Z"/>
    <path class="st0" d="M224.5,46s0,0,0-.1c0,0,0,0,0,0h.2s0,0,0,0l4,6.5,4-6.5s0,0,0,0h.2s0,0,0,0c0,0,0,0,0,.1l-4.2,6.8v3.3c0,0,0,.1-.1.1h-.2c0,0-.1,0-.1-.1v-3.3l-4.2-6.8Z"/>
  </g>
  <g>
    <path class="st0" d="M66.8,20.3c.2,0,.5,0,.7.2l18.8,12.5v-11.5c0-.7.6-1.3,1.3-1.3s1.3.6,1.3,1.3v13.9c0,.7-.6,1.3-1.3,1.3s-.5,0-.7-.2l-18.8-12.5v11.5c0,.7-.6,1.3-1.3,1.3s-1.3-.6-1.3-1.3v-13.9c0-.7.6-1.3,1.3-1.3h0Z"/>
    <path class="st0" d="M115.2,20.3h0c.7,0,1.3.6,1.3,1.3h0c0,.7-.6,1.3-1.3,1.3h-18.2v11.3h18.2c.7,0,1.3.6,1.3,1.3h0c0,.7-.6,1.3-1.3,1.3h-19.5c-.7,0-1.3-.6-1.3-1.3h0v-13.9c0-.7.6-1.3,1.3-1.3h19.5ZM113.8,27.2c.7,0,1.3.6,1.3,1.3h0c0,.7-.6,1.3-1.3,1.3h-12.6c-.7,0-1.3-.6-1.3-1.3h0c0-.7.6-1.3,1.3-1.3h12.6Z"/>
    <path class="st0" d="M124.5,21.6v7c0,3.1,2.5,5.6,5.6,5.6h7c3.1,0,5.6-2.5,5.6-5.6v-7c0-.7.6-1.3,1.3-1.3s1.3.6,1.3,1.3v7c0,4.6-3.7,8.3-8.3,8.3h-7c-4.6,0-8.3-3.7-8.3-8.3v-7c0-.7.6-1.3,1.3-1.3s1.3.6,1.3,1.3Z"/>
    <path class="st0" d="M169.5,20.3c2.6,0,4.8,2.2,4.8,4.8s-2.2,4.8-4.8,4.8h-2.6l6.8,4.5c.3.2.6.7.6,1.1s0,.5-.2.7c-.2.3-.7.6-1.1.6s-.5,0-.7-.2l-10.1-6.7h-8.7v5.6h0c0,.7-.6,1.3-1.3,1.3h0c-.7,0-1.3-.6-1.3-1.3h0v-7h0c0-.7.6-1.3,1.3-1.3h17.4c1.2,0,2.2-1,2.2-2.2s-1-2.2-2.2-2.2h-17.4c-.7,0-1.3-.6-1.3-1.3h0c0-.7.6-1.3,1.3-1.3h17.4Z"/>
    <path class="st0" d="M196.2,20.3c4.6,0,8.3,3.7,8.3,8.3s-3.7,8.3-8.3,8.3h-8.9c-4.6,0-8.3-3.7-8.3-8.3s3.7-8.3,8.3-8.3h8.9ZM181.7,28.5c0,3.1,2.5,5.6,5.6,5.6h8.9c3.1,0,5.6-2.5,5.6-5.6s-2.5-5.6-5.6-5.6h-8.9c-3.1,0-5.6,2.5-5.6,5.6Z"/>
    <path class="st0" d="M211.2,20.3c.2,0,.5,0,.7.2l18.8,12.5v-11.5c0-.7.6-1.3,1.3-1.3s1.3.6,1.3,1.3v13.9c0,.7-.6,1.3-1.3,1.3s-.5,0-.7-.2l-18.8-12.5v11.5c0,.7-.6,1.3-1.3,1.3s-1.3-.6-1.3-1.3v-13.9c0-.7.6-1.3,1.3-1.3h0Z"/>
    <path class="st0" d="M259.6,20.3c.7,0,1.3.6,1.3,1.3s-.6,1.3-1.3,1.3h-16c-1.2,0-2.2,1-2.2,2.2s1,2.2,2.2,2.2h13.9c2.6,0,4.8,2.2,4.8,4.8s-2.2,4.8-4.8,4.8h-17.4c-.7,0-1.3-.6-1.3-1.3s.6-1.3,1.3-1.3h17.4c1.2,0,2.2-1,2.2-2.2s-1-2.2-2.2-2.2h-13.9c-2.6,0-4.8-2.2-4.8-4.8s2.2-4.8,4.8-4.8h16Z"/>
    <path class="st0" d="M284.3,20.3c4.6,0,8.3,3.7,8.3,8.3s-3.7,8.3-8.3,8.3h-8.9c-4.6,0-8.3-3.7-8.3-8.3s3.7-8.3,8.3-8.3h8.9ZM269.8,28.5c0,3.1,2.5,5.6,5.6,5.6h8.9c3.1,0,5.6-2.5,5.6-5.6s-2.5-5.6-5.6-5.6h-8.9c-3.1,0-5.6,2.5-5.6,5.6Z"/>
  </g>
  <g>
    <rect class="st0" x="55.9" y="17.5" width="1.1" height="38.8"/>
    <path class="st1" d="M47.1,37c0-1.7-1.3-3-3-3s-3,1.3-3,3,1.3,3,3,3,3-1.3,3-3h0ZM30.3,34c-2.4,0-4.4-2-4.4-4.4s-1.4-3-3-3-3,1.3-3,3,1.4,3,3,3c2.5,0,4.4,2,4.4,4.4,0,2.6-1.9,3.9-4.3,3.9-1.5.2-2.6,1.4-2.6,2.9s1.3,3,3,3,3-1.3,3-3c0-2.4,1.5-3.9,3.9-3.9s3-1.3,3-2.9-1.3-3-3-3h0ZM34.2,43.8c0,2.4-1.5,3.9-3.9,3.9s-3,1.3-3,3,1.3,3,3,3,3-1.3,3-3c0-2.4,1.5-3.9,3.9-3.9s3-1.3,3-3-1.3-2.9-3-2.9-3,1.3-3,2.9h0ZM30.3,26.2c2.4,0,3.9,1.5,3.9,3.9s1.4,3,3,3,3-1.3,3-3-1.4-3-3-3c-2.4,0-3.9-1.5-3.9-3.9s-1.3-3-3-3-3,1.3-3,3,1.4,3,3,3h0ZM19.5,36.9c0-1.6-1.3-2.9-3-2.9s-3,1.3-3,2.9,1.4,3,3,3,3-1.3,3-3h0Z"/>
  </g>
</svg>