<svg width="179" height="102" viewBox="0 0 179 102" fill="none" xmlns="http://www.w3.org/2000/svg">
<g id="Group 1000004597">
<g id="Group 170">
<g id="Group 168">
<g id="Group 167">
<path id="Path 924" fill-rule="evenodd" clip-rule="evenodd" d="M124.034 35.4034C124.041 34.5948 123.888 33.793 123.584 33.0443C123.281 32.2956 122.833 31.6149 122.267 31.0415C121.701 30.4681 121.028 30.0132 120.286 29.7034C119.544 29.3936 118.749 29.235 117.946 29.2365C117.137 29.2274 116.335 29.3804 115.586 29.6866C114.837 29.9928 114.156 30.4461 113.582 31.0201C113.009 31.594 112.554 32.2771 112.246 33.0297C111.937 33.7822 111.78 34.5892 111.784 35.4034C111.786 36.2152 111.947 37.0187 112.258 37.7677C112.569 38.5167 113.024 39.1966 113.596 39.7682C114.169 40.3398 114.848 40.792 115.594 41.0987C116.34 41.4055 117.14 41.5609 117.946 41.5559C119.561 41.5465 121.108 40.8946 122.248 39.7422C123.389 38.5897 124.031 37.0303 124.034 35.4034ZM89.434 29.2365C88.2391 29.2378 87.0557 29.0017 85.9516 28.5418C84.8474 28.0819 83.8439 27.4073 82.999 26.5565C82.1541 25.7057 81.4842 24.6954 81.0275 23.5835C80.5708 22.4716 80.3365 21.2798 80.3377 20.0765C80.3185 18.4424 79.6618 16.8814 78.5094 15.7307C77.3569 14.58 75.8014 13.932 74.1784 13.9265C72.5553 13.9314 70.9992 14.5791 69.8466 15.73C68.6941 16.8808 68.0374 18.4422 68.0189 20.0765C68.0343 21.7134 68.6896 23.2784 69.8423 24.4325C70.9951 25.5867 72.5529 26.2372 74.1784 26.2434C76.5835 26.248 78.8908 27.2022 80.6048 28.9011C82.3189 30.6001 83.3029 32.9083 83.3455 35.3299C83.4185 40.6262 79.3413 43.3442 74.4634 43.4865C72.984 43.664 71.6203 44.3814 70.6307 45.5029C69.6411 46.6245 69.0941 48.0724 69.0931 49.5727C69.0949 50.3843 69.2558 51.1876 69.5666 51.9364C69.8774 52.6853 70.3319 53.3651 70.9041 53.9367C71.4764 54.5083 72.1551 54.9604 72.9013 55.2673C73.6474 55.5743 74.4463 55.7299 75.2523 55.7252C76.8761 55.7204 78.4326 55.0722 79.5856 53.9209C80.7385 52.7696 81.3953 51.2077 81.4139 49.5727C81.3305 48.4901 81.4808 47.4021 81.8544 46.3835C82.228 45.3649 82.8162 44.4398 83.5784 43.6717C84.3405 42.9035 85.2586 42.3106 86.2698 41.9335C87.281 41.5564 88.3612 41.4042 89.4363 41.4872C90.2385 41.4988 91.035 41.3502 91.7799 41.0503C92.5248 40.7503 93.2034 40.3048 93.7764 39.7394C94.3495 39.174 94.8058 38.5001 95.1189 37.7563C95.4319 37.0125 95.5956 36.2136 95.6005 35.4057C95.6046 34.5913 95.4475 33.7843 95.1387 33.0316C94.8299 32.2789 94.3755 31.5956 93.8017 31.0216C93.228 30.4477 92.5466 29.9944 91.7971 29.6884C91.0477 29.3823 90.245 29.2296 89.4363 29.239L89.434 29.2365ZM97.5294 49.5608C97.6182 50.6446 97.4716 51.7347 97.0999 52.7557C96.7282 53.7766 96.1401 54.7038 95.3768 55.4729C94.6134 56.242 93.6932 56.8346 92.6795 57.2095C91.6659 57.5844 90.5833 57.7326 89.507 57.644C88.6984 57.6345 87.8961 57.7874 87.1468 58.0934C86.3974 58.3995 85.716 58.8527 85.1425 59.4267C84.5689 60.0008 84.1146 60.6841 83.8061 61.4368C83.4975 62.1895 83.341 62.9965 83.3455 63.8108C83.3476 64.6224 83.5088 65.4256 83.8199 66.1744C84.131 66.9231 84.5858 67.6026 85.1583 68.174C85.7307 68.7454 86.4094 69.1973 87.1557 69.504C87.902 69.8106 88.701 69.966 89.507 69.961C91.1226 69.9522 92.6695 69.3009 93.8104 68.149C94.9512 66.997 95.5938 65.4377 95.5982 63.8108C95.5106 62.721 95.6603 61.625 96.0369 60.5995C96.4136 59.574 97.008 58.6437 97.7787 57.8735C98.5494 57.1034 99.4778 56.5119 100.499 56.1404C101.52 55.7689 102.61 55.6263 103.691 55.7228C104.498 55.7319 105.299 55.5793 106.047 55.274C106.796 54.9687 107.476 54.5167 108.049 53.9442C108.622 53.3717 109.077 52.6902 109.386 51.9393C109.695 51.1885 109.853 50.3831 109.85 49.5703C109.846 48.7625 109.683 47.9638 109.37 47.2198C109.057 46.4759 108.602 45.8016 108.029 45.2358C107.457 44.6701 106.779 44.2242 106.034 43.9235C105.29 43.6229 104.493 43.4735 103.691 43.4842C102.075 43.4747 100.52 44.1092 99.3661 45.2493C98.2123 46.3894 97.5529 47.9426 97.5317 49.5703L97.5294 49.5608ZM89.434 13.0679C90.5153 12.9712 91.6046 13.1132 92.6258 13.4842C93.6469 13.8553 94.5751 14.4463 95.346 15.2161C96.1169 15.9858 96.7119 16.9156 97.089 17.9407C97.4661 18.9658 97.6163 20.0613 97.5294 21.151C97.5443 22.788 98.1992 24.3533 99.352 25.5075C100.505 26.6618 102.063 27.3123 103.689 27.3178C105.314 27.3123 106.873 26.6618 108.026 25.5075C109.178 24.3533 109.833 22.788 109.848 21.151C109.829 19.5168 109.172 17.9559 108.02 16.8051C106.867 15.6544 105.312 15.0064 103.689 15.0009C102.607 15.0974 101.518 14.9548 100.497 14.5833C99.4755 14.2118 98.5471 13.6203 97.7764 12.8502C97.0057 12.08 96.4113 11.1497 96.0346 10.1242C95.658 9.09873 95.508 8.00272 95.5956 6.9129C95.5937 6.10087 95.4328 5.2972 95.1217 4.54802C94.8107 3.79884 94.3555 3.11888 93.7828 2.54722C93.21 1.97556 92.5309 1.52347 91.7842 1.21683C91.0375 0.91019 90.2381 0.755074 89.4317 0.760386C87.8084 0.765886 86.2524 1.41424 85.0999 2.56546C83.9474 3.71669 83.291 5.27833 83.2724 6.9129C83.274 7.72529 83.4346 8.52943 83.7451 9.27923C84.0556 10.029 84.51 10.7098 85.0821 11.2826C85.6542 11.8554 86.3328 12.309 87.0792 12.6174C87.8256 12.9257 88.625 13.0829 89.4317 13.0798L89.434 13.0679ZM67.1569 35.3203C67.152 34.5127 66.9885 33.714 66.6756 32.9703C66.3627 32.2267 65.9065 31.5528 65.3337 30.9875C64.7609 30.4221 64.0827 29.9766 63.338 29.6765C62.5934 29.3764 61.7973 29.2277 60.9953 29.239C59.3792 29.2288 57.8246 29.8624 56.6704 31.0015C55.5162 32.1407 54.8561 33.693 54.8337 35.3203C54.8356 36.1328 54.9965 36.937 55.3073 37.6868C55.6181 38.4366 56.0725 39.1174 56.6448 39.6902C57.2171 40.2629 57.8957 40.7164 58.6422 41.0248C59.3887 41.3331 60.1885 41.4903 60.9953 41.4872C61.8039 41.4966 62.6062 41.3437 63.3556 41.0377C64.1049 40.7316 64.7863 40.2784 65.3599 39.7044C65.9334 39.1303 66.3877 38.447 66.6963 37.6943C67.0048 36.9416 67.1613 36.1346 67.1569 35.3203Z" fill="#008DD1"/>
</g>
</g>
</g>
<g id="Group 169">
<g id="Group 164">
<g id="Group 163">
<path id="Path 916" d="M1.03683 89.1064C1.23973 89.1155 1.43713 89.1745 1.61105 89.2783L16.4383 99.0602V90.1306C16.4386 89.8591 16.5477 89.5987 16.7418 89.4067C16.9359 89.2146 17.199 89.1067 17.4734 89.1064C17.7478 89.1067 18.011 89.2146 18.205 89.4067C18.3991 89.5987 18.5082 89.8591 18.5085 90.1306V100.973C18.5082 101.245 18.3989 101.506 18.2047 101.698C18.0104 101.89 17.7471 101.998 17.4725 101.998C17.2696 101.988 17.0723 101.929 16.8983 101.826L2.07102 92.0437V100.973C2.07078 101.245 1.96148 101.506 1.76723 101.698C1.57298 101.89 1.30966 101.998 1.03507 101.998C0.760631 101.997 0.497459 101.889 0.303401 101.697C0.109344 101.505 0.000238332 101.245 0 100.973V90.1306C0.000461467 89.8605 0.10856 89.6015 0.30082 89.4098C0.493079 89.218 0.753981 89.109 1.02694 89.1064H1.03683Z" fill="#313133"/>
<path id="Path 917" d="M39.131 89.1062C39.4056 89.1062 39.669 89.2141 39.8633 89.4062C40.0575 89.5982 40.1668 89.8587 40.167 90.1305C40.1668 90.4022 40.0575 90.6627 39.8633 90.8548C39.669 91.0468 39.4056 91.1547 39.131 91.1547H24.8249V99.947H39.131C39.4056 99.947 39.669 100.055 39.8633 100.247C40.0575 100.439 40.1668 100.7 40.167 100.971C40.1668 101.243 40.0575 101.504 39.8633 101.696C39.669 101.888 39.4056 101.995 39.131 101.995H23.7889C23.5143 101.995 23.2511 101.887 23.057 101.695C22.8629 101.503 22.7539 101.242 22.7539 100.97V90.1305C22.7541 89.8589 22.8633 89.5985 23.0573 89.4064C23.2514 89.2144 23.5145 89.1064 23.7889 89.1062H39.131ZM38.0357 94.5248C38.3103 94.5251 38.5736 94.6332 38.7677 94.8254C38.9617 95.0177 39.0707 95.2782 39.0707 95.55C39.0705 95.8215 38.9614 96.0819 38.7673 96.274C38.5733 96.466 38.3102 96.574 38.0357 96.5742H28.1191C27.8446 96.574 27.5815 96.466 27.3874 96.274C27.1934 96.0819 27.0842 95.8215 27.084 95.55C27.084 95.2782 27.193 95.0177 27.3871 94.8254C27.5812 94.6332 27.8445 94.5251 28.1191 94.5248H38.0357Z" fill="#313133"/>
<path id="Path 918" d="M46.4917 90.1304V95.5463C46.4897 96.1246 46.6033 96.6975 46.8259 97.2321C47.0486 97.7667 47.376 98.2524 47.7892 98.6613C48.2023 99.0702 48.6932 99.3941 49.2334 99.6144C49.7737 99.8348 50.3527 99.9472 50.937 99.9452H56.4128C56.9972 99.9472 57.5761 99.8348 58.1163 99.6144C58.6566 99.3941 59.1474 99.0702 59.5606 98.6613C59.9738 98.2524 60.3012 97.7667 60.5239 97.2321C60.7466 96.6975 60.8601 96.1246 60.8581 95.5463V90.1277C60.8583 89.8561 60.9675 89.5958 61.1616 89.4037C61.3556 89.2117 61.6187 89.1038 61.8932 89.1035C62.1678 89.1035 62.4311 89.2114 62.6254 89.4034C62.8196 89.5955 62.9289 89.856 62.9291 90.1277V95.5463C62.9248 97.2552 62.2369 98.8929 61.0158 100.101C59.7947 101.31 58.1398 101.99 56.4128 101.995H50.937C49.2101 101.99 47.5551 101.31 46.334 100.101C45.1129 98.8929 44.4249 97.2552 44.4207 95.5463V90.1277C44.4209 89.856 44.5302 89.5955 44.7244 89.4034C44.9187 89.2114 45.182 89.1035 45.4566 89.1035C45.5927 89.1036 45.7275 89.1303 45.8532 89.182C45.9789 89.2336 46.0931 89.3093 46.1892 89.4047C46.2853 89.5 46.3615 89.6132 46.4134 89.7377C46.4653 89.8623 46.4919 89.9957 46.4917 90.1304Z" fill="#313133"/>
<path id="Path 919" d="M81.9039 89.1063C82.9043 89.1091 83.8631 89.5031 84.5712 90.2025C85.2793 90.9019 85.6793 91.8498 85.6841 92.8398C85.6793 93.8299 85.2793 94.778 84.5713 95.4775C83.8632 96.177 82.9044 96.5712 81.9039 96.5743H79.8455L85.2205 100.121C85.3555 100.221 85.4667 100.349 85.5464 100.496C85.626 100.644 85.6721 100.806 85.6814 100.973C85.6724 101.174 85.6127 101.369 85.5077 101.541C85.4064 101.675 85.2768 101.785 85.128 101.864C84.9792 101.943 84.8148 101.988 84.6463 101.997C84.4437 101.988 84.2466 101.929 84.073 101.825L76.1139 96.5707H69.2448V100.97C69.2446 101.241 69.1353 101.502 68.9411 101.694C68.7468 101.886 68.4834 101.994 68.2088 101.994C67.9344 101.994 67.6713 101.886 67.4772 101.694C67.2832 101.502 67.1741 101.241 67.1738 100.97V95.5456C67.1738 95.2738 67.2828 95.0133 67.4769 94.821C67.671 94.6288 67.9342 94.5207 68.2088 94.5204H81.9039C82.1286 94.5232 82.3517 94.4815 82.5599 94.3979C82.7682 94.3143 82.9575 94.1903 83.1167 94.0334C83.276 93.8765 83.402 93.6897 83.4874 93.484C83.5728 93.2783 83.6158 93.0578 83.614 92.8354C83.6158 92.613 83.5728 92.3925 83.4874 92.1867C83.402 91.981 83.276 91.7942 83.1167 91.6373C82.9575 91.4803 82.7682 91.3565 82.5599 91.2728C82.3517 91.1892 82.1286 91.1475 81.9039 91.1503H68.2088C67.9344 91.15 67.6713 91.0421 67.4772 90.85C67.2832 90.658 67.1741 90.3976 67.1738 90.1261C67.1743 89.8546 67.2835 89.5943 67.4775 89.4023C67.6715 89.2103 67.9345 89.1023 68.2088 89.1018L81.9039 89.1063Z" fill="#313133"/>
<path id="Path 920" d="M103.006 89.1062C104.732 89.1097 106.387 89.7896 107.608 90.9972C108.829 92.2047 109.517 93.8417 109.521 95.55C109.517 97.2587 108.829 98.8962 107.608 100.105C106.388 101.313 104.733 101.994 103.006 101.998H96.0154C94.2887 101.994 92.634 101.313 91.413 100.105C90.1921 98.8962 89.5043 97.2587 89.5 95.55C89.5045 93.8417 90.1925 92.2047 91.4135 90.9972C92.6345 89.7896 94.2891 89.1097 96.0154 89.1062H103.006ZM91.571 95.55C91.569 96.1281 91.6826 96.701 91.9052 97.2355C92.1278 97.77 92.4551 98.2557 92.8682 98.6646C93.2813 99.0734 93.772 99.3974 94.3122 99.6178C94.8523 99.8382 95.4312 99.9507 96.0154 99.9488H103.006C103.59 99.9507 104.169 99.8382 104.709 99.6178C105.249 99.3974 105.74 99.0734 106.153 98.6646C106.566 98.2557 106.894 97.77 107.116 97.2355C107.339 96.701 107.452 96.1281 107.45 95.55C107.452 94.972 107.339 94.3995 107.116 93.8652C106.893 93.331 106.566 92.8457 106.153 92.4372C105.74 92.0287 105.249 91.7051 104.709 91.4852C104.169 91.2652 103.59 91.1532 103.006 91.1555H96.0154C95.4317 91.1532 94.8533 91.2651 94.3135 91.4848C93.7737 91.7046 93.2831 92.0278 92.87 92.4359C92.4569 92.844 92.1295 93.3289 91.9066 93.8628C91.6836 94.3966 91.5696 94.9688 91.571 95.5464V95.55Z" fill="#313133"/>
<path id="Path 921" d="M114.802 89.1062C115.005 89.1152 115.202 89.1743 115.376 89.2781L130.204 99.0599V90.1304C130.204 89.8588 130.313 89.5985 130.507 89.4064C130.701 89.2144 130.964 89.1064 131.239 89.1062C131.513 89.1062 131.777 89.2141 131.971 89.4061C132.165 89.5982 132.274 89.8587 132.275 90.1304V100.973C132.274 101.245 132.165 101.505 131.971 101.697C131.777 101.889 131.513 101.997 131.239 101.997C131.036 101.988 130.838 101.929 130.664 101.825L115.84 92.0435V100.973C115.84 101.245 115.73 101.505 115.536 101.697C115.342 101.889 115.079 101.997 114.805 101.997C114.53 101.997 114.267 101.889 114.073 101.697C113.878 101.505 113.769 101.245 113.769 100.973V90.1304C113.769 89.8604 113.878 89.6015 114.07 89.4097C114.262 89.218 114.523 89.109 114.796 89.1062H114.802Z" fill="#313133"/>
<path id="Path 922" d="M152.896 89.1065C153.171 89.1068 153.434 89.2147 153.628 89.4068C153.822 89.5988 153.931 89.8592 153.931 90.1307C153.931 90.4024 153.822 90.6629 153.628 90.855C153.434 91.0471 153.171 91.155 152.896 91.155H140.296C140.071 91.1528 139.849 91.1949 139.641 91.2789C139.434 91.3628 139.245 91.4868 139.087 91.6437C138.928 91.8006 138.803 91.9873 138.718 92.1927C138.633 92.3981 138.591 92.6182 138.593 92.84C138.59 93.062 138.633 93.2821 138.718 93.4876C138.802 93.693 138.928 93.8797 139.086 94.0366C139.245 94.1935 139.434 94.3176 139.641 94.4015C139.849 94.4854 140.071 94.5274 140.296 94.5252H151.256C152.257 94.5298 153.215 94.9257 153.922 95.6263C154.629 96.327 155.027 97.2758 155.03 98.2658C155.026 99.2551 154.628 100.203 153.921 100.902C153.214 101.602 152.256 101.997 151.256 102H137.558C137.283 102 137.02 101.892 136.825 101.7C136.631 101.508 136.522 101.248 136.522 100.976C136.522 100.704 136.631 100.443 136.825 100.251C137.019 100.059 137.283 99.9509 137.558 99.9509H151.256C151.481 99.953 151.703 99.9109 151.911 99.827C152.118 99.7431 152.307 99.6191 152.465 99.4621C152.624 99.3052 152.749 99.1186 152.834 98.9132C152.919 98.7078 152.961 98.4877 152.959 98.2658C152.962 98.0435 152.92 97.8229 152.835 97.6168C152.751 97.4108 152.625 97.2235 152.467 97.0659C152.308 96.9084 152.119 96.7837 151.912 96.6992C151.704 96.6146 151.481 96.5719 151.256 96.5736H140.296C139.296 96.5699 138.338 96.1752 137.631 95.4757C136.924 94.7762 136.526 93.8285 136.522 92.8392C136.526 91.8499 136.924 90.9022 137.631 90.2026C138.338 89.5031 139.296 89.1085 140.296 89.1047L152.896 89.1065Z" fill="#313133"/>
<path id="Path 923" d="M172.353 89.1062C174.079 89.1095 175.734 89.7893 176.955 90.9969C178.176 92.2045 178.864 93.8416 178.869 95.55C178.865 97.2588 178.177 98.8965 176.956 100.105C175.734 101.313 174.08 101.994 172.353 101.998H165.362C163.635 101.994 161.98 101.313 160.759 100.105C159.538 98.8965 158.85 97.2588 158.846 95.55C158.85 93.8416 159.538 92.2045 160.76 90.9969C161.981 89.7893 163.636 89.1095 165.362 89.1062H172.353ZM160.918 95.55C160.916 96.1282 161.029 96.7011 161.252 97.2357C161.475 97.7703 161.802 98.256 162.215 98.6648C162.628 99.0737 163.119 99.3977 163.659 99.6181C164.2 99.8384 164.779 99.9508 165.363 99.9488H172.354C172.938 99.9507 173.517 99.8382 174.057 99.6178C174.597 99.3974 175.088 99.0735 175.501 98.6646C175.914 98.2558 176.242 97.7701 176.464 97.2356C176.687 96.701 176.801 96.1281 176.799 95.55C176.801 94.972 176.687 94.3994 176.464 93.8652C176.241 93.3309 175.914 92.8456 175.501 92.4371C175.087 92.0287 174.597 91.7051 174.056 91.4852C173.516 91.2652 172.938 91.1532 172.354 91.1555H165.363C164.779 91.1532 164.201 91.2651 163.661 91.4848C163.121 91.7046 162.63 92.0278 162.217 92.4359C161.804 92.844 161.476 93.3289 161.253 93.8627C161.03 94.3965 160.916 94.9687 160.918 95.5464V95.55Z" fill="#313133"/>
</g>
</g>
</g>
</g>
</svg>
