<svg width="183" height="47" viewBox="0 0 183 47" fill="none" xmlns="http://www.w3.org/2000/svg">
<path fill-rule="evenodd" clip-rule="evenodd" d="M46.9999 23.529C47.0041 22.9798 46.9002 22.4353 46.6942 21.9268C46.4881 21.4183 46.1841 20.9559 45.7996 20.5665C45.4151 20.177 44.9577 19.8681 44.4539 19.6577C43.9502 19.4473 43.41 19.3395 42.8646 19.3406C42.3155 19.3344 41.7706 19.4383 41.2618 19.6463C40.753 19.8542 40.2903 20.1621 39.9008 20.5519C39.5113 20.9417 39.2028 21.4057 38.9931 21.9168C38.7835 22.4279 38.6769 22.976 38.6797 23.529C38.681 24.0804 38.7903 24.6261 39.0015 25.1348C39.2127 25.6435 39.5216 26.1053 39.9104 26.4935C40.2992 26.8818 40.7603 27.1888 41.2673 27.3972C41.7742 27.6055 42.3171 27.7111 42.8646 27.7077C43.9619 27.7013 45.0122 27.2585 45.7868 26.4758C46.5614 25.6931 46.9974 24.634 46.9999 23.529ZM23.4999 19.3406C22.6883 19.3414 21.8846 19.1811 21.1347 18.8687C20.3847 18.5564 19.7032 18.0982 19.1293 17.5204C18.5555 16.9425 18.1005 16.2563 17.7903 15.5011C17.4801 14.7459 17.321 13.9365 17.3218 13.1193C17.3088 12.0094 16.8628 10.9492 16.0801 10.1677C15.2974 9.38611 14.2408 8.946 13.1386 8.94227C12.0362 8.94558 10.9793 9.38553 10.1965 10.1672C9.4137 10.9488 8.96771 12.0093 8.95511 13.1193C8.96562 14.231 9.41064 15.2939 10.1936 16.0778C10.9765 16.8617 12.0345 17.3035 13.1386 17.3077C14.7721 17.3108 16.3391 17.9589 17.5033 19.1128C18.6674 20.2667 19.3358 21.8344 19.3647 23.4791C19.4143 27.0762 16.6451 28.9223 13.3321 29.0189C12.3273 29.1395 11.4011 29.6267 10.729 30.3884C10.0569 31.1502 9.68539 32.1336 9.68467 33.1526C9.68593 33.7038 9.79521 34.2493 10.0063 34.758C10.2174 35.2666 10.5261 35.7283 10.9147 36.1165C11.3034 36.5047 11.7644 36.8118 12.2711 37.0202C12.7779 37.2287 13.3205 37.3344 13.8679 37.3312C14.9708 37.3279 16.0279 36.8877 16.811 36.1058C17.5941 35.3238 18.0402 34.263 18.0528 33.1526C17.9962 32.4173 18.0982 31.6783 18.3519 30.9865C18.6057 30.2947 19.0052 29.6664 19.5228 29.1447C20.0405 28.623 20.6641 28.2202 21.3508 27.9641C22.0376 27.708 22.7712 27.6046 23.5015 27.661C24.0463 27.6689 24.5872 27.568 25.0932 27.3643C25.5991 27.1605 26.06 26.8579 26.4492 26.4739C26.8384 26.09 27.1483 25.6322 27.3609 25.127C27.5736 24.6219 27.6847 24.0793 27.688 23.5306C27.6908 22.9775 27.5842 22.4293 27.3744 21.9181C27.1647 21.4069 26.856 20.9428 26.4664 20.553C26.0767 20.1632 25.6139 19.8553 25.1049 19.6475C24.5959 19.4396 24.0507 19.3358 23.5015 19.3423L23.4999 19.3406ZM28.9982 33.1445C29.0584 33.8805 28.9589 34.621 28.7064 35.3144C28.454 36.0078 28.0546 36.6375 27.5361 37.1599C27.0177 37.6822 26.3926 38.0847 25.7042 38.3393C25.0158 38.594 24.2805 38.6946 23.5495 38.6344C23.0003 38.628 22.4554 38.7318 21.9464 38.9397C21.4375 39.1476 20.9747 39.4554 20.5852 39.8452C20.1956 40.2351 19.8871 40.6992 19.6775 41.2104C19.4679 41.7216 19.3616 42.2698 19.3647 42.8228C19.3661 43.3741 19.4756 43.9196 19.6869 44.4281C19.8982 44.9367 20.2071 45.3982 20.5959 45.7862C20.9847 46.1743 21.4456 46.4813 21.9525 46.6895C22.4594 46.8978 23.0021 47.0033 23.5495 46.9999C24.6468 46.994 25.6974 46.5516 26.4722 45.7692C27.2471 44.9868 27.6835 43.9278 27.6865 42.8228C27.627 42.0826 27.7287 41.3382 27.9845 40.6417C28.2403 39.9452 28.644 39.3134 29.1675 38.7903C29.6909 38.2672 30.3214 37.8655 31.015 37.6132C31.7086 37.3609 32.4485 37.2641 33.1831 37.3296C33.7313 37.3358 34.2753 37.2322 34.7834 37.0248C35.2915 36.8174 35.7536 36.5104 36.1428 36.1216C36.5321 35.7328 36.8408 35.2699 37.0508 34.7599C37.2608 34.2499 37.3681 33.703 37.3664 33.1509C37.3632 32.6023 37.2524 32.0598 37.0401 31.5545C36.8278 31.0493 36.5182 30.5913 36.1294 30.207C35.7405 29.8228 35.28 29.5199 34.7743 29.3157C34.2687 29.1116 33.7279 29.0101 33.1831 29.0173C32.0852 29.0109 31.0293 29.4418 30.2456 30.2162C29.462 30.9905 29.0141 32.0454 28.9997 33.1509L28.9982 33.1445ZM23.4999 8.35912C24.2343 8.29344 24.9741 8.3899 25.6677 8.6419C26.3612 8.8939 26.9917 9.29535 27.5152 9.81812C28.0388 10.3409 28.4429 10.9724 28.699 11.6686C28.9551 12.3649 29.0572 13.1089 28.9982 13.849C29.0083 14.9609 29.453 16.024 30.236 16.8079C31.0191 17.5919 32.0773 18.0337 33.1814 18.0374C34.2856 18.0337 35.3439 17.5919 36.1269 16.8079C36.9099 16.024 37.3546 14.9609 37.3647 13.849C37.3517 12.7391 36.9057 11.6789 36.123 10.8974C35.3403 10.1159 34.2837 9.67574 33.1814 9.67201C32.4469 9.73751 31.707 9.64065 31.0134 9.38836C30.3199 9.13606 29.6893 8.73435 29.1659 8.21125C28.6425 7.68814 28.2387 7.05634 27.9829 6.35984C27.7271 5.66335 27.6253 4.91896 27.6847 4.17877C27.6835 3.62725 27.5742 3.08141 27.3629 2.57258C27.1516 2.06375 26.8425 1.60194 26.4535 1.21368C26.0645 0.825417 25.6032 0.518363 25.0961 0.310099C24.589 0.101834 24.046 -0.00351794 23.4983 8.96092e-05C22.3958 0.00382512 21.339 0.444175 20.5563 1.22607C19.7735 2.00796 19.3277 3.0686 19.3151 4.17877C19.3161 4.73053 19.4252 5.27669 19.6361 5.78594C19.847 6.29519 20.1556 6.75759 20.5441 7.14662C20.9327 7.53565 21.3936 7.84371 21.9006 8.05314C22.4075 8.26258 22.9504 8.3693 23.4983 8.36718L23.4999 8.35912ZM8.36966 23.4726C8.36634 22.924 8.25528 22.3816 8.04277 21.8765C7.83025 21.3714 7.52043 20.9138 7.1314 20.5298C6.74236 20.1458 6.2817 19.8432 5.77597 19.6394C5.27023 19.4356 4.72952 19.3346 4.18483 19.3423C3.0872 19.3354 2.03135 19.7656 1.24744 20.5393C0.463534 21.313 0.0151768 22.3674 0 23.4726C0.00125768 24.0244 0.110554 24.5706 0.321625 25.0798C0.532695 25.5891 0.841376 26.0515 1.23006 26.4405C1.61875 26.8295 2.07965 27.1375 2.58667 27.3469C3.09368 27.5564 3.63683 27.6631 4.18483 27.661C4.73401 27.6674 5.27894 27.5636 5.78788 27.3557C6.29682 27.1478 6.75962 26.84 7.14917 26.4502C7.53871 26.0603 7.84726 25.5962 8.05683 25.085C8.26639 24.5737 8.37267 24.0256 8.36966 23.4726Z" fill="#008DD1"/>
<path d="M61.7042 19.0032C61.842 19.0093 61.9761 19.0494 62.0942 19.1199L72.1646 25.7636V19.6988C72.1648 19.5143 72.2389 19.3375 72.3707 19.2071C72.5025 19.0767 72.6812 19.0033 72.8676 19.0032C73.054 19.0033 73.2327 19.0767 73.3645 19.2071C73.4963 19.3375 73.5705 19.5143 73.5706 19.6988V27.0629C73.5705 27.2475 73.4962 27.4244 73.3643 27.5548C73.2324 27.6853 73.0535 27.7586 72.867 27.7586C72.7292 27.7524 72.5952 27.7123 72.477 27.6418L62.4066 20.9981V27.0629C62.4064 27.2475 62.3322 27.4244 62.2003 27.5548C62.0683 27.6853 61.8895 27.7586 61.703 27.7586C61.5166 27.7584 61.3379 27.685 61.2061 27.5546C61.0743 27.4242 61.0002 27.2474 61 27.0629V19.6988C61.0003 19.5153 61.0737 19.3394 61.2043 19.2092C61.3349 19.079 61.5121 19.0049 61.6975 19.0032H61.7042Z" fill="#313133"/>
<path d="M87.5772 19.003C87.7637 19.003 87.9425 19.0763 88.0745 19.2067C88.2064 19.3371 88.2806 19.5141 88.2808 19.6986C88.2806 19.8832 88.2064 20.0601 88.0745 20.1906C87.9425 20.321 87.7637 20.3943 87.5772 20.3943H77.8607V26.3659H87.5772C87.7637 26.3659 87.9425 26.4392 88.0745 26.5696C88.2064 26.7 88.2806 26.877 88.2808 27.0615C88.2806 27.2461 88.2064 27.423 88.0745 27.5535C87.9425 27.6839 87.7637 27.7572 87.5772 27.7572H77.1571C76.9706 27.757 76.7918 27.6836 76.6599 27.553C76.5281 27.4225 76.4541 27.2455 76.4541 27.0609V19.6986C76.4543 19.5142 76.5284 19.3373 76.6602 19.2069C76.792 19.0765 76.9707 19.0031 77.1571 19.003H87.5772ZM86.8332 22.6832C87.0197 22.6834 87.1985 22.7568 87.3304 22.8874C87.4622 23.0179 87.5362 23.1949 87.5362 23.3795C87.536 23.5639 87.4619 23.7408 87.3301 23.8712C87.1983 24.0016 87.0196 24.075 86.8332 24.0751H80.098C79.9116 24.075 79.7329 24.0016 79.6011 23.8712C79.4693 23.7408 79.3952 23.5639 79.395 23.3795C79.395 23.1949 79.4691 23.0179 79.6009 22.8874C79.7327 22.7568 79.9115 22.6834 80.098 22.6832H86.8332Z" fill="#313133"/>
<path d="M92.5763 19.6987V23.3771C92.5749 23.7699 92.6521 24.159 92.8033 24.5221C92.9546 24.8852 93.1769 25.2151 93.4575 25.4928C93.7382 25.7705 94.0715 25.9905 94.4385 26.1401C94.8054 26.2898 95.1986 26.3662 95.5955 26.3648H99.3146C99.7115 26.3662 100.105 26.2898 100.472 26.1401C100.839 25.9905 101.172 25.7705 101.453 25.4928C101.733 25.2151 101.955 24.8852 102.107 24.5221C102.258 24.159 102.335 23.7699 102.334 23.3771V19.6969C102.334 19.5125 102.408 19.3356 102.54 19.2052C102.672 19.0748 102.85 19.0015 103.037 19.0013C103.223 19.0013 103.402 19.0745 103.534 19.205C103.666 19.3354 103.74 19.5124 103.74 19.6969V23.3771C103.737 24.5378 103.27 25.6501 102.441 26.4708C101.611 27.2915 100.487 27.7538 99.3146 27.7567H95.5955C94.4226 27.7538 93.2986 27.2915 92.4692 26.4708C91.6399 25.6501 91.1726 24.5378 91.1697 23.3771V19.6969C91.1699 19.5124 91.2441 19.3354 91.376 19.205C91.508 19.0745 91.6868 19.0013 91.8733 19.0013C91.9658 19.0014 92.0573 19.0195 92.1427 19.0546C92.2281 19.0897 92.3056 19.1411 92.3709 19.2058C92.4362 19.2706 92.4879 19.3475 92.5232 19.432C92.5584 19.5166 92.5765 19.6072 92.5763 19.6987Z" fill="#313133"/>
<path d="M116.628 19.003C117.307 19.0049 117.958 19.2726 118.439 19.7476C118.92 20.2226 119.192 20.8664 119.195 21.5388C119.192 22.2112 118.92 22.8552 118.439 23.3303C117.958 23.8053 117.307 24.0731 116.628 24.0752H115.23L118.88 26.4839C118.972 26.5519 119.047 26.639 119.101 26.739C119.156 26.8391 119.187 26.9495 119.193 27.0628C119.187 27.1991 119.147 27.3318 119.075 27.4487C119.006 27.5394 118.918 27.6142 118.817 27.6677C118.716 27.7212 118.605 27.7522 118.49 27.7584C118.353 27.7523 118.219 27.7122 118.101 27.6417L112.695 24.0727H108.03V27.0604C108.03 27.2449 107.955 27.4219 107.823 27.5523C107.692 27.6827 107.513 27.756 107.326 27.756C107.14 27.7559 106.961 27.6825 106.829 27.5521C106.697 27.4217 106.623 27.2448 106.623 27.0604V23.3765C106.623 23.1919 106.697 23.015 106.829 22.8844C106.961 22.7538 107.14 22.6804 107.326 22.6802H116.628C116.78 22.6821 116.932 22.6538 117.073 22.597C117.215 22.5402 117.343 22.456 117.451 22.3495C117.559 22.2429 117.645 22.116 117.703 21.9763C117.761 21.8366 117.79 21.6868 117.789 21.5358C117.79 21.3847 117.761 21.235 117.703 21.0952C117.645 20.9555 117.559 20.8286 117.451 20.722C117.343 20.6155 117.215 20.5313 117.073 20.4745C116.932 20.4177 116.78 20.3894 116.628 20.3913H107.326C107.14 20.3911 106.961 20.3178 106.829 20.1874C106.697 20.0569 106.623 19.8801 106.623 19.6957C106.624 19.5113 106.698 19.3345 106.829 19.2041C106.961 19.0737 107.14 19.0003 107.326 19L116.628 19.003Z" fill="#313133"/>
<path d="M130.96 19.003C132.132 19.0054 133.256 19.4671 134.085 20.2873C134.915 21.1075 135.382 22.2193 135.385 23.3795C135.382 24.54 134.915 25.6522 134.086 26.4728C133.257 27.2935 132.133 27.7559 130.96 27.759H126.212C125.039 27.7559 123.915 27.2935 123.086 26.4728C122.257 25.6522 121.79 24.54 121.787 23.3795C121.79 22.2193 122.257 21.1075 123.087 20.2873C123.916 19.4671 125.04 19.0054 126.212 19.003H130.96ZM123.193 23.3795C123.192 23.7721 123.269 24.1612 123.42 24.5242C123.572 24.8873 123.794 25.2172 124.075 25.4949C124.355 25.7725 124.688 25.9926 125.055 26.1423C125.422 26.2919 125.815 26.3684 126.212 26.3671H130.96C131.357 26.3684 131.75 26.2919 132.117 26.1423C132.484 25.9926 132.817 25.7725 133.098 25.4949C133.378 25.2172 133.6 24.8873 133.752 24.5242C133.903 24.1612 133.98 23.7721 133.979 23.3795C133.98 22.9869 133.903 22.5981 133.751 22.2352C133.6 21.8724 133.378 21.5427 133.097 21.2653C132.817 20.9879 132.483 20.7681 132.116 20.6187C131.75 20.4693 131.357 20.3932 130.96 20.3948H126.212C125.816 20.3932 125.423 20.4693 125.056 20.6185C124.69 20.7677 124.356 20.9873 124.076 21.2645C123.795 21.5416 123.573 21.871 123.421 22.2336C123.27 22.5961 123.193 22.9847 123.193 23.377V23.3795Z" fill="#313133"/>
<path d="M138.972 19.003C139.109 19.0091 139.243 19.0492 139.362 19.1197L149.432 25.7634V19.6986C149.432 19.5141 149.506 19.3373 149.638 19.2069C149.77 19.0765 149.949 19.0031 150.135 19.003C150.321 19.003 150.5 19.0762 150.632 19.2067C150.764 19.3371 150.838 19.514 150.839 19.6986V27.0627C150.838 27.2473 150.764 27.4242 150.632 27.5546C150.5 27.6851 150.321 27.7584 150.135 27.7584C149.997 27.7523 149.863 27.7121 149.745 27.6416L139.676 20.9979V27.0627C139.676 27.2472 139.602 27.424 139.47 27.5544C139.339 27.6848 139.16 27.7582 138.973 27.7584C138.787 27.7584 138.608 27.6851 138.476 27.5546C138.344 27.4242 138.27 27.2473 138.27 27.0627V19.6986C138.27 19.5152 138.344 19.3393 138.474 19.2091C138.605 19.0789 138.782 19.0049 138.967 19.003H138.972Z" fill="#313133"/>
<path d="M164.845 19.0031C165.031 19.0032 165.21 19.0766 165.341 19.207C165.473 19.3374 165.547 19.5143 165.547 19.6987C165.547 19.8832 165.473 20.0601 165.342 20.1906C165.21 20.321 165.031 20.3944 164.845 20.3944H156.286C156.134 20.3929 155.983 20.4215 155.842 20.4785C155.701 20.5355 155.573 20.6197 155.465 20.7263C155.358 20.8329 155.272 20.9596 155.215 21.0991C155.157 21.2386 155.128 21.3881 155.13 21.5388C155.128 21.6895 155.157 21.8391 155.215 21.9786C155.272 22.1182 155.357 22.2449 155.465 22.3515C155.573 22.4581 155.701 22.5423 155.842 22.5993C155.983 22.6563 156.134 22.6849 156.286 22.6833H163.731C164.41 22.6865 165.061 22.9553 165.541 23.4312C166.021 23.9071 166.292 24.5515 166.294 25.2239C166.291 25.8958 166.02 26.5395 165.54 27.0146C165.06 27.4897 164.41 27.7577 163.731 27.7603H154.427C154.24 27.7603 154.061 27.687 153.93 27.5566C153.798 27.4261 153.723 27.2492 153.723 27.0646C153.723 26.88 153.797 26.7029 153.929 26.5723C154.061 26.4418 154.24 26.3684 154.427 26.3684H163.731C163.883 26.3698 164.034 26.3412 164.175 26.2842C164.316 26.2272 164.444 26.143 164.552 26.0364C164.66 25.9299 164.745 25.8031 164.802 25.6636C164.86 25.5241 164.889 25.3746 164.887 25.2239C164.889 25.0729 164.86 24.9231 164.803 24.7831C164.746 24.6432 164.661 24.516 164.553 24.409C164.445 24.302 164.317 24.2173 164.176 24.1599C164.035 24.1025 163.883 24.0735 163.731 24.0746H156.286C155.607 24.072 154.957 23.804 154.477 23.3289C153.997 22.8538 153.726 22.2101 153.723 21.5382C153.726 20.8663 153.997 20.2227 154.477 19.7475C154.957 19.2724 155.607 19.0044 156.286 19.0019L164.845 19.0031Z" fill="#313133"/>
<path d="M178.059 19.003C179.231 19.0052 180.355 19.4669 181.185 20.2871C182.014 21.1073 182.481 22.2191 182.485 23.3795C182.482 24.5401 182.014 25.6524 181.185 26.4731C180.356 27.2938 179.232 27.7561 178.059 27.759H173.311C172.138 27.7561 171.014 27.2938 170.185 26.4731C169.355 25.6524 168.888 24.5401 168.885 23.3795C168.888 22.2191 169.356 21.1073 170.185 20.2871C171.014 19.4669 172.138 19.0052 173.311 19.003H178.059ZM170.292 23.3795C170.291 23.7722 170.368 24.1613 170.519 24.5244C170.671 24.8874 170.893 25.2173 171.174 25.495C171.454 25.7727 171.788 25.9928 172.155 26.1424C172.521 26.2921 172.915 26.3685 173.312 26.3671H178.059C178.456 26.3684 178.849 26.2919 179.216 26.1423C179.583 25.9926 179.917 25.7726 180.197 25.4949C180.478 25.2172 180.7 24.8873 180.851 24.5243C181.003 24.1612 181.08 23.7722 181.079 23.3795C181.08 22.9869 181.003 22.598 180.851 22.2352C180.7 21.8723 180.477 21.5427 180.197 21.2653C179.916 20.9879 179.583 20.7681 179.216 20.6187C178.849 20.4693 178.456 20.3932 178.059 20.3948H173.312C172.915 20.3932 172.522 20.4693 172.155 20.6185C171.789 20.7677 171.456 20.9873 171.175 21.2644C170.894 21.5416 170.672 21.8709 170.52 22.2335C170.369 22.5961 170.291 22.9847 170.292 23.377V23.3795Z" fill="#313133"/>
</svg>
