<svg xmlns="http://www.w3.org/2000/svg" enable-background="new 0 0 24 24" viewBox="0 0 24 24" id="NFC">
  <!-- Main Icon with Animations -->
  <g id="Layer_2" fill="#000" class="color000000 svgShape">
    <!-- Phone outline with pulse animation -->
    <path d="M7,14c0-1.103,0.897-2,2-2h6c1.103,0,2,0.897,2,2v8h2v-8c0-2.2056-1.7944-4-4-4H9c-2.2056,0-4,1.7944-4,4v8h2V14z" fill="#000" class="color000000 svgShape">
      <animate attributeName="fill" values="#000;#333;#000" dur="3s" repeatCount="indefinite" />
    </path>
    
    <!-- Card icon with pulse animation -->
    <path d="M11 13c-.5522 0-1 .4478-1 1s.4478 1 1 1h2c.5522 0 1-.4478 1-1s-.4478-1-1-1H11z" fill="#000" class="color000000 svgShape">
      <animate attributeName="fill" values="#000;#444;#000" dur="2s" repeatCount="indefinite" />
      <animateTransform attributeName="transform" type="translate" values="0,0;0,-0.5;0,0" dur="1.5s" repeatCount="indefinite" />
    </path>
    
    <!-- First wave with wave animation -->
    <path d="M7.7554 6.7705C7.3691 7.1655 7.376 7.7983 7.7705 8.1851c.1948.1904.4473.2852.6997.2852.2593 0 .5186-.1006.7148-.3003.7817-.7993 1.8779-1.2222 3.02-1.1616.9971.0547 1.9253.4683 2.6133 1.1646.3887.3936 1.0215.3965 1.4141.0088.3931-.3882.397-1.0215.0088-1.4141-1.0376-1.0508-2.4321-1.6743-3.9277-1.7563C10.5933 4.9175 8.9404 5.561 7.7554 6.7705z" fill="#000" class="color000000 svgShape">
      <animate attributeName="opacity" values="0.3;1;0.3" dur="2s" repeatCount="indefinite" />
    </path>
    
    <!-- Second wave with wave animation -->
    <path d="M6.3501,6.3501c0.2583,0,0.5161-0.0991,0.7119-0.2979c1.3813-1.3994,3.3179-2.1436,5.2944-2.0439 c1.7383,0.0933,3.3662,0.8198,4.584,2.0464c0.3887,0.3916,1.0225,0.3945,1.4141,0.0049c0.3921-0.3892,0.394-1.022,0.0049-1.4141 c-1.5674-1.5791-3.6616-2.5146-5.8984-2.6343c-2.5527-0.1289-5.041,0.8315-6.8228,2.6367C5.2505,5.041,5.2544,5.6738,5.6479,6.062 C5.8428,6.2544,6.0962,6.3501,6.3501,6.3501z" fill="#000" class="color000000 svgShape">
      <animate attributeName="opacity" values="0.2;0.8;0.2" dur="3s" repeatCount="indefinite" />
    </path>
  </g>
</svg>