<svg xmlns="http://www.w3.org/2000/svg" xmlns:xlink="http://www.w3.org/1999/xlink" viewBox="70 50 200 240" preserveAspectRatio="xMidYMid meet">
  <defs>
    <clipPath id="__lottie_element_2">
      <rect width="350" height="350" x="0" y="0"></rect>
    </clipPath>
    
    <style>
      /* Base styles */
      .draw-path {
        stroke: #000;
        stroke-width: 4.669;
        fill: transparent;
        stroke-linecap: round;
        stroke-linejoin: round;
      }
      
      /* Animation for drawing effect */
      .path-draw {
        stroke-dasharray: 500;
        stroke-dashoffset: 500;
        animation: draw 2s forwards;
      }
      
      /* Sound waves with continuous animation */
      .sound-wave {
        stroke-dasharray: 100;
        stroke-dashoffset: 100;
        animation: drawWave 2s ease-in-out infinite;
      }
      
      /* Different delays for each wave */
      .wave-delay-1 { animation-delay: 0s; }
      .wave-delay-2 { animation-delay: 0.3s; }
      .wave-delay-3 { animation-delay: 0.6s; }
      
      /* Different delays for each element */
      .draw-delay-0 { animation-delay: 0s; }
      .draw-delay-1 { animation-delay: 0.2s; }
      .draw-delay-2 { animation-delay: 0.4s; }
      .draw-delay-3 { animation-delay: 0.6s; }
      .draw-delay-4 { animation-delay: 0.8s; }
      .draw-delay-5 { animation-delay: 1s; }
      .draw-delay-6 { animation-delay: 1.2s; }
      .draw-delay-7 { animation-delay: 1.4s; }
      .draw-delay-8 { animation-delay: 1.6s; }
      .draw-delay-9 { animation-delay: 1.8s; }
      .draw-delay-10 { animation-delay: 2s; }
      .draw-delay-11 { animation-delay: 2.2s; }
      
      /* The drawing animation */
      @keyframes draw {
        to {
          stroke-dashoffset: 0;
        }
      }
      
      /* The continuous wave animation */
      @keyframes drawWave {
        0% { stroke-dashoffset: 100; }
        50% { stroke-dashoffset: 0; }
        100% { stroke-dashoffset: 100; }
      }
    </style>
  </defs>
  
  <g clip-path="url(#__lottie_element_2)">
    <!-- Sound waves with continuous animation -->
    <g>
      <g transform="matrix(1,0,0,1,227.86199951171875,132.9040069580078)">
        <path class="draw-path sound-wave wave-delay-1" d="M-3.111999988555908,-5.188000202178955 C-0.7429999709129333,-4.841000080108643 1.406000018119812,-3.3329999446868896 2.4649999141693115,-0.9890000224113464 C3.3910000324249268,1.059999942779541 3.2880001068115234,3.312999963760376 2.375,5.188000202178955"></path>
      </g>
      <g transform="matrix(1,0,0,1,237.7259979248047,128.70599365234375)">
        <path class="draw-path sound-wave wave-delay-2" d="M-5.445000171661377,-11.074999809265137 C-1.5199999809265137,-9.168999671936035 1.7860000133514404,-5.931000232696533 3.7230000495910645,-1.6440000534057617 C5.599999904632568,2.509000062942505 5.888999938964844,6.97599983215332 4.8480000495910645,11.074999809265137"></path>
      </g>
      <g transform="matrix(1,0,0,1,245.78199768066406,125.30799865722656)">
        <path class="draw-path sound-wave wave-delay-3" d="M-10.814000129699707,-20.30900001525879 C-2.6710000038146973,-18.08300018310547 4.454999923706055,-12.378000259399414 8.20300006866455,-4.084000110626221 C11.85200023651123,3.990999937057495 11.543999671936035,12.848999977111816 8.100000381469727,20.30900001525879"></path>
      </g>
    </g>
    
    <!-- Main headphones structure -->
    <g transform="matrix(0.9648500680923462,0,0,0.9648500680923462,6.8028411865234375,6.1690521240234375)">
      <g transform="matrix(1,0,0,1,201.39199829101562,175.5070037841797)">
        <path class="draw-path path-draw draw-delay-4" d="M-10.399999618530273,43.03799819946289 C-10.399999618530273,43.03799819946289 -5.309000015258789,43.03799819946289 -5.309000015258789,43.03799819946289 C3.367000102996826,43.03799819946289 10.399999618530273,23.768999099731445 10.399999618530273,0 C10.399999618530273,-23.768999099731445 3.367000102996826,-43.03799819946289 -5.309000015258789,-43.03799819946289 C-5.309000015258789,-43.03799819946289 -10.399999618530273,-43.03799819946289 -10.399999618530273,-43.03799819946289"></path>
      </g>
      <g transform="matrix(1,0,0,1,183.13699340820312,175.5070037841797)">
        <path class="draw-path path-draw draw-delay-5" d="M7.855000019073486,43.03799819946289 C-0.8209999799728394,43.03799819946289 -7.855000019073486,23.768999099731445 -7.855000019073486,0 C-7.855000019073486,-23.768999099731445 -0.8209999799728394,-43.03799819946289 7.855000019073486,-43.03799819946289"></path>
      </g>
    </g>
    
    <!-- Dots/circles on headphones -->
    <g transform="matrix(1,0,0,1,193.42999267578125,155.45599365234375)">
      <path class="draw-path path-draw draw-delay-6" d="M6.326000213623047,0 C6.326000213623047,3.49399995803833 3.49399995803833,6.326000213623047 0,6.326000213623047 C-3.49399995803833,6.326000213623047 -6.326000213623047,3.49399995803833 -6.326000213623047,0 C-6.326000213623047,-3.49399995803833 -3.49399995803833,-6.326000213623047 0,-6.326000213623047 C3.49399995803833,-6.326000213623047 6.326000213623047,-3.49399995803833 6.326000213623047,0z"></path>
    </g>
    
    <!-- Headband -->
    <g transform="matrix(0.9749689102172852,0,0,1,193.42999267578125,194.54299926757812)">
      <path class="draw-path path-draw draw-delay-3" d="M-7.9629998207092285,0 C-7.9629998207092285,0 7.9629998207092285,0 7.9629998207092285,0"></path>
    </g>
    
    <!-- Other headphone parts -->
    <g transform="matrix(1,0,0,1,182.94400024414062,175.5070037841797)">
      <path class="draw-path path-draw draw-delay-2" d="M-33.04399871826172,100 C-33.04399871826172,100 -7.6620001792907715,100 -7.6620001792907715,100 C16.81599998474121,100 36.659000396728516,55.22800064086914 36.659000396728516,0 C36.659000396728516,-55.22800064086914 16.81599998474121,-100 -7.6620001792907715,-100 C-7.6620001792907715,-100 -36.659000396728516,-100 -36.659000396728516,-100"></path>
    </g>
    
    <!-- Left ear cup -->
    <g transform="matrix(1,0,0,1,123.72799682617188,175.5070037841797)">
      <path class="draw-path path-draw draw-delay-0" d="M44.32099914550781,0 C44.32099914550781,55.22800064086914 24.47800064086914,100 0,100 C-24.47800064086914,100 -44.32099914550781,55.22800064086914 -44.32099914550781,0 C-44.32099914550781,-55.22800064086914 -24.47800064086914,-100 0,-100 C24.47800064086914,-100 44.32099914550781,-55.22800064086914 44.32099914550781,0z"></path>
    </g>
    
    <!-- Additional headphone elements -->
    <g transform="matrix(1,0,0,1,133.73800659179688,173.5590057373047)">
      <path class="draw-path path-draw draw-delay-1" d="M12.503999710083008,88.08799743652344 C-2.2980000972747803,71.89399719238281 -12.503999710083008,37.66400146484375 -12.503999710083008,-1.9429999589920044 C-12.503999710083008,-38.619998931884766 -3.752000093460083,-70.68499755859375 9.295999526977539,-88.08799743652344"></path>
    </g>
    
    <g transform="matrix(1,0,0,0.9996623396873474,95.03500366210938,180.17799377441406)">
      <path class="draw-path path-draw draw-delay-3" d="M0.7900000214576721,-47.27399826049805 C0.7900000214576721,-47.27399826049805 -11.706999778747559,-4.671000003814697 3.937000036239624,47.27399826049805"></path>
    </g>
    
    <!-- Small dots -->
    <g transform="matrix(1.004488229751587,0,0,1.004488229751587,107.15499877929688,149.8520050048828)">
      <path class="draw-path path-draw draw-delay-7" d="M4.15500020980835,0 C4.15500020980835,2.2950000762939453 2.2950000762939453,4.15500020980835 0,4.15500020980835 C-2.2950000762939453,4.15500020980835 -4.15500020980835,2.2950000762939453 -4.15500020980835,0 C-4.15500020980835,-2.2950000762939453 -2.2950000762939453,-4.15500020980835 0,-4.15500020980835 C2.2950000762939453,-4.15500020980835 4.15500020980835,-2.2950000762939453 4.15500020980835,0z"></path>
    </g>
    
    <g transform="matrix(1.0054525136947632,0,0,1.0054525136947632,106.5260009765625,179.27000427246094)">
      <path class="draw-path path-draw draw-delay-8" d="M3.5989999771118164,-2.078000068664551 C4.745999813079834,-0.09099999815225601 4.065000057220459,2.4519999027252197 2.078000068664551,3.5989999771118164 C0.09099999815225601,4.745999813079834 -2.4519999027252197,4.065000057220459 -3.5989999771118164,2.078000068664551 C-4.745999813079834,0.09099999815225601 -4.065000057220459,-2.4519999027252197 -2.078000068664551,-3.5989999771118164 C-0.09099999815225601,-4.745999813079834 2.4519999027252197,-4.065000057220459 3.5989999771118164,-2.078000068664551z"></path>
    </g>
    
    <g transform="matrix(0.9992558360099792,0,0,0.9992558360099792,109.41600036621094,208.68899536132812)">
      <path class="draw-path path-draw draw-delay-9" d="M3.5989999771118164,-2.078000068664551 C4.745999813079834,-0.09099999815225601 4.065000057220459,2.4519999027252197 2.078000068664551,3.5989999771118164 C0.09099999815225601,4.745999813079834 -2.4519999027252197,4.065000057220459 -3.5989999771118164,2.078000068664551 C-4.745999813079834,0.09099999815225601 -4.065000057220459,-2.4519999027252197 -2.078000068664551,-3.5989999771118164 C-0.09099999815225601,-4.745999813079834 2.4519999027252197,-4.065000057220459 3.5989999771118164,-2.078000068664551z"></path>
    </g>
    
    <!-- Bottom lines -->
    <g>
      <g transform="matrix(1.0008615255355835,0,0,1,186.48599243164062,120.79299926757812)">
        <path class="draw-path path-draw draw-delay-6" d="M-18.722999572753906,0 C-18.722999572753906,0 18.722999572753906,0 18.722999572753906,0"></path>
      </g>
      <g transform="matrix(1.0008615255355835,0,0,1,181.76499938964844,106.95899963378906)">
        <path class="draw-path path-draw draw-delay-7" d="M-18.722999572753906,0 C-18.722999572753906,0 18.722999572753906,0 18.722999572753906,0"></path>
      </g>
      <g transform="matrix(1.0008615255355835,0,0,1,186.62899780273438,229.78500366210938)">
        <path class="draw-path path-draw draw-delay-8" d="M-18.579999923706055,0 C-18.579999923706055,0 18.579999923706055,0 18.579999923706055,0"></path>
      </g>
      <g transform="matrix(1.0008615255355835,0,0,1,183.13699340820312,243.1739959716797)">
        <path class="draw-path path-draw draw-delay-9" d="M-18.579999923706055,0 C-18.579999923706055,0 18.579999923706055,0 18.579999923706055,0"></path>
      </g>
    </g>
  </g>
</svg>