<svg xmlns="http://www.w3.org/2000/svg" width="24" height="24" viewBox="0 0 24 24" fill="none">
  <path d="M20.52 3.48A11.94 11.94 0 0 0 12 0C5.37 0 0 5.37 0 12c0 2.03.51 3.96 1.4 5.65L0 24l6.52-1.38A11.94 11.94 0 0 0 12 24c6.63 0 12-5.37 12-12 0-3.21-1.25-6.22-3.48-8.52ZM12 21.75c-1.84 0-3.56-.5-5.04-1.36l-.36-.21-3.83.81.8-3.84-.2-.36A9.72 9.72 0 0 1 2.25 12C2.25 6.61 6.61 2.25 12 2.25S21.75 6.61 21.75 12 17.39 21.75 12 21.75Zm5.08-6.21c-.28-.14-1.66-.82-1.92-.91-.26-.1-.45-.14-.64.14-.19.28-.73.91-.9 1.1-.17.19-.33.21-.61.07-.28-.14-1.19-.44-2.27-1.41-.84-.75-1.41-1.67-1.58-1.95-.17-.28-.02-.43.13-.57.13-.13.28-.33.42-.49.14-.17.19-.28.28-.47.09-.19.05-.36-.03-.5-.07-.14-.64-1.54-.88-2.11-.23-.55-.47-.47-.64-.48h-.55c-.19 0-.5.07-.76.36-.26.28-1 1-1 2.43 0 1.43 1.03 2.82 1.17 3.01.14.19 2.02 3.09 4.89 4.33.68.29 1.21.46 1.62.59.68.22 1.31.19 1.8.12.55-.08 1.66-.68 1.89-1.33.23-.65.23-1.21.16-1.33-.06-.12-.25-.19-.53-.33Z" fill="#25D366"/>
</svg>

