 <svg xmlns="http://www.w3.org/2000/svg" width="29" height="36" viewBox="0 0 29 36" fill="none">
                      <path
                        d="M26.4351 19.9388C25.0387 17.4649 23.1442 15.3064 20.8708 13.5991C20.1609 13.0009 19.3345 12.556 18.4437 12.2923C17.5529 12.0287 16.617 11.9521 15.6951 12.0673C14.7731 12.1825 13.8851 12.4871 13.0869 12.9618C12.2888 13.4365 11.5978 14.071 11.0576 14.8254C10.5173 15.5799 10.1396 16.4378 9.948 17.3452C9.75644 18.2525 9.75528 19.1896 9.94461 20.0975C10.1339 21.0053 10.5096 21.8641 11.048 22.6199C11.5864 23.3756 12.2758 24.0119 13.0728 24.4885C13.3182 24.6927 13.5497 24.913 13.7659 25.1477L16.1543 23.9607L12.4543 19.9887C12.1322 19.6511 11.8804 19.2531 11.7136 18.8177C11.5468 18.3822 11.4682 17.9181 11.4824 17.4522C11.4967 16.9863 11.6035 16.5278 11.7966 16.1033C11.9897 15.6789 12.2653 15.2969 12.6074 14.9795C12.9495 14.6622 13.3514 14.4157 13.7897 14.2545C14.228 14.0933 14.6939 14.0205 15.1606 14.0403C15.6273 14.0602 16.0854 14.1723 16.5083 14.3701C16.9312 14.568 17.3106 14.8477 17.6244 15.1929L24.5399 22.6177C24.9135 23.019 25.1883 23.5017 25.3422 24.0276C25.4962 24.5534 25.5251 25.1079 25.4267 25.6469C25.3283 26.1858 25.1053 26.6944 24.7755 27.1323C24.4456 27.5702 24.0179 27.9252 23.5264 28.1692L15.6047 32.1008C15.451 32.1763 15.292 32.2405 15.129 32.2931C14.9441 32.8977 14.7206 33.4898 14.4597 34.0658C14.1831 34.6797 14.001 35.3318 13.9197 36H28.0123C28.8715 33.3587 29.1749 30.5688 28.9035 27.8051C28.6321 25.0414 27.7918 22.3634 26.4351 19.9388Z"
                        fill="#666666" />
                      <path d="M4.76887 17.8789L2.45972 19.5978L5.3937 23.2579L6.84246 21.949L8.94539 25.0679L8.88513 20.1193L5.91626 20.9107L4.76887 17.8789Z" fill="#666666" />
                      <path d="M4.89496 26.7676L8.54262 26.8096L4.45647 24.0793L3.55881 26.937L0.479736 26.1678L0.686689 29.0104L5.21216 28.682L4.89496 26.7676Z" fill="#666666" />
                      <path d="M9.64086 30.4003L4.91637 29.0383L4.93065 32.0329L1.75879 32.2339L2.82216 34.8795L7.03362 33.1939L6.14705 31.4679L9.64086 30.4003Z" fill="#666666" />
                      <path d="M6.08846 13.7701C6.35771 13.8016 6.62857 13.8174 6.89967 13.8175C8.65988 13.8067 10.3499 13.1272 11.626 11.9172C12.9022 10.7073 13.6687 9.05765 13.7697 7.30381C13.8707 5.54998 13.2986 3.82359 12.1697 2.47568C11.0409 1.12776 9.44001 0.259509 7.69263 0.047481C7.42338 0.0159889 7.15251 0.000136488 6.88142 0C5.12121 0.0108448 3.4312 0.690332 2.15504 1.9003C0.878889 3.11027 0.112412 4.7599 0.0114153 6.51373C-0.0895815 8.26757 0.482525 9.99396 1.61138 11.3419C2.74024 12.6898 4.34108 13.558 6.08846 13.7701Z" fill="#666666" />
                      <path d="M23.069 27.2512C23.4175 27.0784 23.7207 26.8268 23.9546 26.5164C24.1885 26.2061 24.3466 25.8456 24.4164 25.4635C24.4861 25.0815 24.4656 24.6885 24.3564 24.3157C24.2472 23.943 24.0524 23.6009 23.7875 23.3165L16.872 15.8917C16.6481 15.6516 16.3791 15.4579 16.0802 15.3216C15.7813 15.1854 15.4584 15.1092 15.13 15.0974C14.8016 15.0857 14.4741 15.1386 14.1662 15.2532C13.8583 15.3677 13.576 15.5417 13.3354 15.7651C13.0949 15.9886 12.9008 16.2571 12.7642 16.5554C12.6277 16.8537 12.5513 17.1759 12.5395 17.5036C12.5277 17.8314 12.5808 18.1583 12.6955 18.4656C12.8103 18.7729 12.9846 19.0546 13.2085 19.2946L17.845 24.2725L12.9207 26.7163C12.4159 26.9672 12.0109 27.381 11.7714 27.8904C11.5318 28.3999 11.4718 28.9752 11.601 29.5231C11.7301 30.0709 12.0409 30.5591 12.483 30.9085C12.9251 31.2579 13.4725 31.448 14.0364 31.4479C14.4218 31.4482 14.802 31.3584 15.1465 31.186L23.069 27.2512Z" fill="#666666" />
                    </svg>