 <svg xmlns="http://www.w3.org/2000/svg" width="29" height="36" viewBox="0 0 29 36" fill="none">
                      <path d="M12.2633 12.6192L5.78131 8.48499C5.76661 8.6114 5.7519 8.73785 5.7407 8.86614C5.61828 10.2577 5.70863 11.6681 6.00624 13.0116C6.30386 14.355 6.80253 15.6036 7.47198 16.6813L12.0617 14.9284L12.2633 12.6192Z" fill="#666666" />
                      <path d="M11.757 16.0145L7.95142 17.4678C9.31253 19.159 11.0825 20.1401 12.939 20.2322C14.7955 20.3243 16.615 19.5214 18.0661 17.9697L12.5684 17.112C12.3602 17.079 12.1666 16.9525 12.0192 16.7531C11.8718 16.5537 11.7793 16.2933 11.757 16.0145Z" fill="#666666" />
                      <path d="M18.8433 16.6082C19.4771 15.5947 19.9593 14.4277 20.2637 13.1707L19.1072 13.5827L18.8433 16.6082Z" fill="#666666" />
                      <path d="M12.4885 11.0338C12.5837 10.9327 12.6929 10.8577 12.8098 10.8134C12.9267 10.769 13.049 10.7561 13.1697 10.7753L18.7241 11.6424C18.9291 11.6749 19.12 11.798 19.2667 11.9923C19.4133 12.1865 19.5072 12.4408 19.5334 12.7146L20.8565 12.2464C20.8866 12.0273 20.9132 11.8063 20.9328 11.5825C21.1608 8.98867 20.6488 6.37526 19.499 4.26436C18.3492 2.15346 16.6464 0.700455 14.7306 0.195628C12.8149 -0.3092 10.8273 0.171308 9.16485 1.54116C7.50241 2.911 6.28754 5.06934 5.76294 7.58502L12.1735 11.6733C12.2247 11.4206 12.3351 11.1965 12.4885 11.0338Z" fill="#666666" />
                      <path d="M20.6298 34.6611C22.6997 33.7458 24.6219 32.3162 26.2954 30.4473C27.7084 28.8617 28.6449 26.6459 28.9319 24.209C29.4633 19.1525 26.7442 15.4387 25.6507 14.1708C25.3511 13.7466 24.9901 13.4084 24.5897 13.1767C24.1893 12.9451 23.7578 12.8249 23.3215 12.8234C22.4285 12.8499 21.5799 13.3495 20.9621 14.2125C20.3444 15.0755 20.008 16.2312 20.027 17.4257C20.0212 18.27 20.1883 19.1002 20.5102 19.8265C20.832 20.5528 21.2963 21.1474 21.8528 21.5459C22.1477 21.9273 22.3778 22.3891 22.5276 22.8999C22.4576 23.0872 22.0103 24.033 20.0977 25.2409C19.7267 24.5478 19.2526 23.9647 18.7052 23.5282C18.1578 23.0917 17.5488 22.8112 16.9166 22.7042L5.97162 20.9195C5.34841 20.8345 4.71878 20.9159 4.1193 21.1591C3.51981 21.4023 2.96241 21.8023 2.47946 22.336C1.99651 22.8697 1.59764 23.5263 1.306 24.2679C1.01436 25.0095 0.83576 25.8211 0.780574 26.6558L0 36.0001H20.5177L20.6298 34.6611Z" fill="#666666" />
                      <path d="M25.7424 5.4772C23.073 4.73276 21.8101 9.49435 21.8101 9.49435C22.7468 7.84161 28.4118 6.22163 25.7424 5.4772Z" fill="#666666" />
                      <path d="M28.1247 9.59919C26.6308 7.43424 24.1301 9.77242 24.1301 9.77242C25.3259 9.27051 29.6187 11.7641 28.1247 9.59919Z" fill="#666666" />
                      <path d="M23.3789 12.0956C24.6278 12.2164 27.942 16.6362 27.1439 13.8907C26.3458 11.1452 23.3789 12.0956 23.3789 12.0956Z" fill="#666666" />
                    </svg>