  <svg xmlns="http://www.w3.org/2000/svg" width="29" height="36" viewBox="0 0 29 36" fill="none">
                      <path d="M16.1642 14.9383C16.1511 14.9187 16.1394 14.899 16.127 14.8794C14.0037 13.8915 11.7672 13.2011 9.47453 12.8256C9.46628 12.8256 9.4601 12.8213 9.45253 12.8198C7.76352 13.2532 6.10921 13.8256 4.50477 14.5319C4.30435 15.0074 4.15304 15.5044 4.05347 16.0142C5.98103 15.48 7.95898 15.1747 9.95061 15.104C12.0179 14.9935 14.0921 14.9695 16.1642 14.9383Z" fill="#666666" />
                      <path d="M15.1328 11.5294C14.3696 10.9358 13.4989 10.5144 12.5749 10.2917C11.6509 10.0689 10.6935 10.0495 9.76207 10.2347C8.83069 10.4198 7.94534 10.8056 7.16111 11.3679C6.37688 11.9302 5.71056 12.657 5.20361 13.5032C6.92507 12.7446 8.7215 12.192 10.5593 11.8559C12.0763 11.6507 13.6035 11.5417 15.1328 11.5294Z" fill="#666666" />
                      <path d="M10.1976 15.9967C8.08265 16.0559 5.98242 16.3874 3.94342 16.984C3.9221 17.2166 3.9104 17.4522 3.9104 17.6906C3.9104 19.6269 4.63828 21.4839 5.93393 22.8531C7.22957 24.2223 8.98685 24.9914 10.8192 24.9914C12.6515 24.9914 14.4087 24.2223 15.7044 22.8531C17 21.4839 17.7279 19.6269 17.7279 17.6906C17.7279 17.4725 17.7176 17.2617 17.6997 17.0509L16.7097 15.8361C14.5392 15.871 12.366 15.8913 10.1976 15.9967Z" fill="#666666" />
                      <path d="M15.9275 12.5209C15.9337 12.4359 15.9434 12.3523 15.9544 12.2687C14.5737 12.2861 13.1874 12.3247 11.8267 12.4708C13.2766 12.8169 14.6969 13.2888 16.0734 13.8819C15.9444 13.4419 15.8949 12.9802 15.9275 12.5209Z" fill="#666666" />
                      <path d="M13.1985 8.65708L16.9602 4.85417L14.69 3.93234L16.3707 1.03455L13.7565 1.16031L12.5945 5.45539L14.4114 5.20094L13.1985 8.65708Z" fill="#666666" />
                      <path d="M17.3069 7.75121L23.4482 5.94608L21.5034 3.56227L24.9032 1.46199L22.0138 0L18.409 3.92577L20.5093 4.76181L17.3069 7.75121Z" fill="#666666" />
                      <path d="M20.8815 32.5941V31.1139L28.2618 22.9542C28.7176 22.4525 28.9804 21.7895 28.9989 21.0943C29.0175 20.3991 28.7905 19.7215 28.3623 19.1934L21.5316 10.7225C21.3091 10.4443 21.0363 10.216 20.7291 10.0508C20.422 9.88563 20.0867 9.78699 19.7429 9.76067C19.6741 9.75558 19.6109 9.75269 19.5448 9.75269C18.9188 9.75229 18.3141 9.9926 17.8435 10.4288C17.3178 10.9153 16.9942 11.6007 16.9427 12.3372C16.8912 13.0736 17.1159 13.8019 17.5683 14.3647L22.8435 20.9077L18.2955 25.9363H5.13428C4.45636 25.9398 3.78571 26.0845 3.16072 26.362C2.53573 26.6396 1.96863 27.0445 1.49182 27.5538C1.01501 28.0631 0.637855 28.6667 0.381894 29.33C0.125932 29.9934 -0.00380985 30.7036 8.51665e-05 31.42V36.0001H20.8815V32.5941Z" fill="#666666" />
                    </svg>