<svg xmlns="http://www.w3.org/2000/svg" width="29" height="36" viewBox="0 0 29 36" fill="none">
                      <path d="M12.0405 13.9509C12.1164 13.3829 12.2831 12.8432 12.5293 12.3687C12.7755 11.8942 13.0953 11.4959 13.4672 11.2009C14.4829 10.4267 15.653 10.089 16.818 10.2339C17.1393 10.1824 19.2447 9.62299 20.9633 9.16305C20.832 7.26488 20.3002 5.45513 19.4294 3.94341C18.5586 2.43169 17.3845 1.27985 16.0431 0.621283C14.7017 -0.0372848 13.2478 -0.175643 11.8498 0.222251C10.4519 0.620146 9.16707 1.538 8.14416 2.86952C7.12125 4.20104 6.40211 5.89174 6.07004 7.74582C5.73796 9.5999 5.80653 11.5415 6.2678 13.3458C6.72908 15.15 7.56416 16.7431 8.67638 17.9405C9.7886 19.138 11.1324 19.8907 12.5522 20.1116C12.782 20.1474 13.0104 20.1666 13.2368 20.1745C12.5542 18.5512 11.744 16.07 12.0405 13.9509Z" fill="#666666" />
                      <path
                        d="M20.9948 34.9659C22.5205 34.1637 23.9432 33.0491 25.2115 31.6625C26.6381 30.1514 27.5953 27.99 27.8986 25.5943C28.5236 19.9136 24.7337 15.9784 24.1761 15.4329C23.9723 15.1671 23.7441 14.9369 23.4968 14.7478C23.4959 15.2922 23.3709 15.8234 23.1383 16.2708C22.9056 16.7182 22.5764 17.0606 22.1944 17.2526C21.6602 17.4441 21.0963 17.4308 20.5675 17.2142C19.913 17.0134 19.5806 16.9131 19.1493 17.9927C19.0124 18.3014 18.9279 18.6462 18.9017 19.0031C18.8754 19.36 18.9081 19.7202 18.9974 20.0585C19.0816 20.352 19.0977 20.6724 19.0439 20.9783V20.988C19.036 21.0176 19.0275 21.0464 19.0177 21.0752C19.3717 21.7992 19.8748 22.3716 20.4667 22.7238C20.8587 23.1537 21.1694 23.7005 21.3737 24.3201C21.1335 24.7931 20.8165 25.188 20.4464 25.4756C20.0588 24.8098 19.5756 24.2538 19.025 23.8401C18.4743 23.4263 17.8674 23.1632 17.2396 23.066L16.0707 22.8836C15.8602 22.9731 15.6411 23.0213 15.4202 23.0267C15.1106 23.0321 14.8085 22.899 14.5622 22.6488L6.08576 21.33C5.46364 21.2332 4.83331 21.3007 4.23077 21.5287C3.62822 21.7568 3.06526 22.1408 2.57403 22.659C2.0828 23.1772 1.67293 23.8194 1.36782 24.5488C1.06271 25.2783 0.868346 26.0807 0.795816 26.9104L0 36.0001H20.9097L20.9948 34.9659Z"
                        fill="#666666" />
                      <path d="M26.3706 5.49043C23.7665 4.76693 22.5342 9.39771 22.5342 9.39771C23.4478 7.78924 28.9753 6.2183 26.3706 5.49043Z" fill="#666666" />
                      <path d="M28.6958 9.58378C27.2383 7.47784 24.7979 9.75226 24.7979 9.75226C25.9641 9.26702 30.1532 11.6888 28.6958 9.58378Z" fill="#666666" />
                      <path d="M24.0649 12.1094C25.2835 12.2273 28.5152 16.5264 27.7384 13.8549C26.9615 11.1835 24.0649 12.1094 24.0649 12.1094Z" fill="#666666" />
                      <path d="M21.5721 9.99573C20.4772 10.2925 19.6376 10.5194 18.989 10.6869C19.8703 10.9845 20.7337 11.3693 21.5721 11.8381V9.99573Z" fill="#666666" />
                      <path
                        d="M16.703 21.4846C17.12 21.1987 17.5588 20.9737 18.0119 20.8134L18.1029 20.7838L14.6651 16.7159C14.5924 16.63 14.5483 16.5091 14.5425 16.3799C14.5367 16.2507 14.5696 16.1237 14.634 16.0269C14.6984 15.93 14.789 15.8712 14.8859 15.8634C14.9828 15.8557 15.078 15.8995 15.1507 15.9854L18.1736 19.5636C18.1231 18.8598 18.2374 18.1525 18.5008 17.5389C18.5806 17.2568 18.7022 16.9991 18.8585 16.7812C19.0148 16.5634 19.2025 16.3899 19.4103 16.2711C19.6181 16.1524 19.8417 16.0908 20.0678 16.0901C20.2939 16.0895 20.5177 16.1497 20.7259 16.2673C21.1279 16.4431 21.559 16.4637 21.9694 16.3266C22.8411 15.9592 22.8077 14.2809 22.7645 13.6604C22.0381 13.1603 19.0178 11.1975 16.3594 11.1975C15.4824 11.1561 14.6144 11.4449 13.8548 12.0309C13.5685 12.2539 13.3222 12.5575 13.1328 12.9204C12.9435 13.2834 12.8158 13.697 12.7586 14.1325C12.3345 17.1295 14.6264 21.2891 14.65 21.3336C14.6559 21.3449 14.6618 21.3562 14.6677 21.3676C15.1284 22.3512 15.5911 22.181 16.703 21.4846Z"
                        fill="#666666" />
                    </svg>