 <svg xmlns="http://www.w3.org/2000/svg" width="29" height="36" viewBox="0 0 29 36" fill="none">
                      <path d="M14.3736 8.64215C14.4814 8.48934 14.5987 8.34476 14.7246 8.20944C13.3024 7.56586 11.7337 7.41168 10.2288 7.76756C8.72399 8.12345 7.35485 8.97239 6.30501 10.2006C5.25517 11.4288 4.57485 12.9775 4.35512 14.6392C4.1354 16.3009 4.38679 17.9961 5.07568 19.4976C5.76457 20.9991 6.85795 22.2351 8.20933 23.04C9.5607 23.8448 11.1055 24.18 12.6365 24.0006C14.1675 23.8213 15.6117 23.1359 16.7754 22.0364C17.9391 20.9369 18.7667 19.4758 19.1472 17.849L15.0783 14.4488C14.2799 13.7796 13.7573 12.7927 13.6252 11.7042C13.4931 10.6158 13.7623 9.51464 14.3736 8.64215Z" fill="#666666" />
                      <path d="M22.1939 31.1839L28.5683 20.1547C28.9403 19.5169 29.0789 18.7499 28.9567 18.0058C28.8344 17.2617 28.4601 16.5949 27.9081 16.1375L19.0785 8.7593C18.5961 8.35356 18.0039 8.13358 17.3947 8.13379C17.2709 8.13379 17.1474 8.14262 17.0247 8.16021C16.4802 8.23878 15.9691 8.49161 15.5564 8.88674C15.1437 9.28187 14.8477 9.80156 14.7058 10.3801C14.5639 10.9586 14.5825 11.5701 14.7593 12.1371C14.9361 12.704 15.2632 13.2012 15.6991 13.5655L22.5175 19.2629L19.1532 25.0838H5.4568C4.74021 25.0838 4.03066 25.2377 3.36861 25.5367C2.70656 25.8356 2.10499 26.2739 1.59828 26.8263C1.09157 27.3788 0.689629 28.0346 0.4154 28.7565C0.141171 29.4783 0 30.2519 0 31.0332V36.0001H22.1927V31.1839H22.1939Z" fill="#666666" />
                      <path d="M8.27033 3.45455C9.17674 3.89511 9.41773 4.26499 9.41708 4.41351C9.41708 4.58203 9.13545 4.89478 8.6161 5.14327L9.0267 6.16507C9.92328 5.73664 10.4381 5.09971 10.4401 4.41708C10.4401 3.65876 9.86898 3.01041 8.68685 2.4356C8.56765 2.37777 8.55975 2.33207 8.55582 2.31279C8.50408 2.00932 8.95601 1.26743 9.39349 0.790449L8.6731 0C8.45501 0.236349 7.3744 1.47022 7.55057 2.51415C7.58719 2.72474 7.67253 2.92165 7.79849 3.08622C7.92445 3.25079 8.08685 3.37757 8.27033 3.45455Z" fill="#666666" />
                      <path d="M11.1133 3.45455C12.0198 3.89511 12.2607 4.26499 12.2601 4.41351C12.2601 4.58203 11.9791 4.89478 11.4591 5.14327L11.8698 6.16507C12.7664 5.73664 13.2811 5.09971 13.2831 4.41708C13.2831 3.65876 12.712 3.01041 11.5299 2.4356C11.4107 2.37777 11.4028 2.33207 11.3989 2.31279C11.3472 2.00932 11.799 1.26743 12.2365 0.790449L11.5161 0C11.298 0.236349 10.2174 1.47022 10.3936 2.51415C10.4302 2.72474 10.5155 2.92165 10.6415 3.08622C10.7675 3.25079 10.9299 3.37757 11.1133 3.45455Z" fill="#666666" />
                      <path d="M13.9551 3.45455C14.8616 3.89511 15.1025 4.26499 15.1019 4.41351C15.1019 4.58203 14.8203 4.89478 14.3009 5.14327L14.7115 6.16507C15.6074 5.73664 16.1229 5.09971 16.1249 4.41708C16.1249 3.65876 15.5538 3.01041 14.3717 2.4356C14.2525 2.37777 14.2446 2.33207 14.2406 2.31279C14.1889 2.00932 14.6408 1.26743 15.0783 0.790449L14.3579 0C14.1398 0.236349 13.0592 1.47022 13.2354 2.51415C13.272 2.72474 13.3573 2.92165 13.4833 3.08622C13.6093 3.25079 13.7717 3.37757 13.9551 3.45455Z" fill="#666666" />
                    </svg>