<svg xmlns="http://www.w3.org/2000/svg" width="29" height="36" viewBox="0 0 29 36" fill="none">
                      <path
                        d="M26.9925 19.9423C25.8998 17.4698 24.4174 15.3126 22.6387 13.6065C22.0833 13.0075 21.4366 12.5618 20.7394 12.2975C20.0421 12.0332 19.3095 11.956 18.5877 12.0708C17.8659 12.1855 17.1706 12.4898 16.5456 12.9643C15.9206 13.4388 15.3795 14.0733 14.9565 14.8278C14.5335 15.5823 14.2377 16.4404 14.0878 17.348C13.9379 18.2555 13.9372 19.1928 14.0856 20.1007C14.2341 21.0086 14.5285 21.8675 14.9503 22.6231C15.3721 23.3787 15.9121 24.0147 16.5363 24.4908C16.7101 24.6749 16.875 24.8722 17.03 25.0818L18.7922 23.9643L15.8968 19.9934C15.6499 19.6548 15.4577 19.2574 15.3312 18.824C15.2047 18.3907 15.1465 17.9297 15.1597 17.4677C15.1729 17.0056 15.2573 16.5513 15.4082 16.1308C15.5591 15.7104 15.7735 15.3319 16.0391 15.0171C16.3047 14.7022 16.6164 14.4572 16.9563 14.2959C17.2962 14.1346 17.6576 14.0603 18.0201 14.0771C18.3825 14.094 18.7388 14.2017 19.0685 14.3941C19.3983 14.5865 19.6951 14.8598 19.9421 15.1985L25.3538 22.621C25.6462 23.0223 25.8612 23.5049 25.9817 24.0306C26.1022 24.5564 26.1249 25.1107 26.0479 25.6495C25.9709 26.1884 25.7963 26.697 25.5382 27.1347C25.28 27.5725 24.9453 27.9275 24.5607 28.1714L18.362 32.1015C18.3003 32.1424 18.233 32.1802 18.1676 32.2124C18.0198 32.8454 17.8386 33.4648 17.6251 34.0665C17.4087 34.6802 17.2661 35.3321 17.2023 36H28.2269C28.8994 33.3593 29.1369 30.57 28.9245 27.8068C28.7121 25.0437 28.0543 22.3662 26.9925 19.9423Z"
                        fill="#666666" />
                      <path d="M6.91276 12.2026C4.50563 15.2985 0.47275 20.6671 1.48745 20.6671C1.70828 20.632 1.92155 20.5418 2.11515 20.4019C3.06175 19.8767 3.96316 19.228 4.80497 18.466C3.8989 20.6451 0.876419 28.1967 2.52129 28.1967C2.85101 28.1528 3.16701 28.0051 3.44094 27.767C7.35592 24.8553 8.05028 18.2638 8.05028 18.2638C8.05028 18.2638 7.57504 26.6055 8.47493 26.6055C8.6064 26.6055 8.76749 26.4268 8.96376 26.0176C9.99019 23.8763 10.3216 18.2339 10.4321 14.7162C9.07193 14.4024 7.83312 13.5176 6.91276 12.2026Z" fill="#666666" />
                      <path d="M11.5493 13.8189C12.9342 13.8224 14.2675 13.1496 15.2754 11.9387C16.2833 10.7277 16.8893 9.07071 16.9689 7.3079C17.0484 5.54509 16.5955 3.81037 15.7032 2.46005C14.8109 1.10973 13.5468 0.246317 12.1708 0.0472153C11.96 0.015791 11.7479 2.72651e-05 11.5357 0C10.1087 0.0215656 8.74592 0.760078 7.74342 2.05514C6.74092 3.3502 6.17961 5.09727 6.1814 6.91687C6.18319 8.73648 6.74793 10.4817 7.75297 11.7736C8.75801 13.0654 10.1222 13.7995 11.5493 13.8166V13.8189Z" fill="#666666" />
                      <path d="M24.2021 27.253C24.4749 27.0801 24.7123 26.8285 24.8953 26.5181C25.0784 26.2077 25.2022 25.8472 25.2567 25.4651C25.3112 25.083 25.2951 24.69 25.2095 24.3173C25.1239 23.9446 24.9713 23.6025 24.7638 23.3182L19.3521 15.8956C18.9987 15.4109 18.5087 15.125 17.99 15.1009C17.4712 15.0768 16.9662 15.3164 16.5861 15.767C16.2059 16.2176 15.9817 16.8423 15.9627 17.5037C15.9438 18.1651 16.1317 18.809 16.4851 19.2937L20.1131 24.2704L16.2599 26.71C15.8649 26.9609 15.548 27.3746 15.3606 27.884C15.1732 28.3933 15.1263 28.9684 15.2274 29.5161C15.3285 30.0637 15.5717 30.5518 15.9177 30.9011C16.2636 31.2504 16.6919 31.4404 17.1332 31.4403C17.4351 31.4407 17.733 31.3509 18.0029 31.1783L24.2021 27.253Z" fill="#666666" />
                      <path d="M0.663493 23.2733C0.532265 23.2733 0.403988 23.3229 0.294876 23.4159C0.185763 23.5088 0.100718 23.6409 0.0504991 23.7955C0.000279958 23.9501 -0.0128495 24.1202 0.012752 24.2843C0.0383535 24.4484 0.101537 24.5992 0.19433 24.7175C0.287122 24.8358 0.405346 24.9164 0.534053 24.949C0.662761 24.9816 0.79618 24.9649 0.91742 24.9009C1.03866 24.8368 1.14227 24.7284 1.21518 24.5893C1.28808 24.4502 1.32701 24.2866 1.32701 24.1193C1.32701 23.8949 1.25711 23.6797 1.13268 23.5211C1.00824 23.3624 0.839466 23.2733 0.663493 23.2733Z" fill="#666666" />
                      <path d="M2.10522 13.0714C1.95128 13.0714 1.80081 13.1296 1.67282 13.2387C1.54483 13.3477 1.44507 13.5027 1.38616 13.684C1.32725 13.8653 1.31183 14.0649 1.34186 14.2574C1.37189 14.4499 1.44602 14.6267 1.55487 14.7654C1.66372 14.9042 1.8024 14.9987 1.95338 15.037C2.10436 15.0753 2.26085 15.0557 2.40307 14.9806C2.54529 14.9055 2.66684 14.7782 2.75236 14.6151C2.83788 14.4519 2.88352 14.26 2.88352 14.0637C2.88352 13.8006 2.80152 13.5482 2.65556 13.3621C2.5096 13.176 2.31164 13.0714 2.10522 13.0714Z" fill="#666666" />
                      <path d="M7.68194 28.1967C7.58342 28.1967 7.48713 28.2339 7.40522 28.3037C7.32331 28.3735 7.25946 28.4726 7.22176 28.5887C7.18406 28.7047 7.17419 28.8324 7.19341 28.9556C7.21263 29.0788 7.26006 29.192 7.32972 29.2808C7.39938 29.3696 7.48814 29.4301 7.58476 29.4546C7.68138 29.4791 7.78154 29.4665 7.87255 29.4184C7.96357 29.3704 8.04135 29.289 8.09608 29.1846C8.15081 29.0801 8.18003 28.9573 8.18003 28.8317C8.18003 28.7483 8.16715 28.6657 8.14211 28.5887C8.11708 28.5116 8.0804 28.4417 8.03415 28.3827C7.98789 28.3237 7.93299 28.2769 7.87255 28.245C7.81212 28.2131 7.74735 28.1967 7.68194 28.1967Z" fill="#666666" />
                    </svg>