<svg width="68" height="68" viewBox="0 0 68 68" fill="none" xmlns="http://www.w3.org/2000/svg">
<g id="Frame" clip-path="url(#clip0_2999_8268)">
<path id="Vector" d="M11.3333 19.8334C11.3333 18.3305 11.9303 16.8891 12.993 15.8264C14.0557 14.7637 15.497 14.1667 16.9999 14.1667H50.9999C52.5028 14.1667 53.9441 14.7637 55.0069 15.8264C56.0696 16.8891 56.6666 18.3305 56.6666 19.8334V53.8334C56.6666 55.3362 56.0696 56.7776 55.0069 57.8403C53.9441 58.903 52.5028 59.5 50.9999 59.5H16.9999C15.497 59.5 14.0557 58.903 12.993 57.8403C11.9303 56.7776 11.3333 55.3362 11.3333 53.8334V19.8334Z" stroke="#666666" stroke-width="1.5" stroke-linecap="round" stroke-linejoin="round"/>
<path id="Vector_2" d="M45.3333 8.5V19.8333" stroke="#666666" stroke-width="1.5" stroke-linecap="round" stroke-linejoin="round"/>
<path id="Vector_3" d="M22.6667 8.5V19.8333" stroke="#666666" stroke-width="1.5" stroke-linecap="round" stroke-linejoin="round"/>
<path id="Vector_4" d="M11.3333 31.1667H56.6666" stroke="#666666" stroke-width="1.5" stroke-linecap="round" stroke-linejoin="round"/>
<path id="Vector_5" d="M22.6667 42.5H28.3334V48.1667H22.6667V42.5Z" stroke="#666666" stroke-width="1.5" stroke-linecap="round" stroke-linejoin="round"/>
</g>
<defs>
<clipPath id="clip0_2999_8268">
<rect width="68" height="68" fill="white"/>
</clipPath>
</defs>
</svg>
