
<svg width="512" height="512" version="1.1" xmlns="http://www.w3.org/2000/svg" desc="Created with imagetracer.js version 1.2.6" ><path fill="rgb(0,0,0)" stroke="rgb(0,0,0)" stroke-width="1" opacity="0" d="M 0 0 L 512 0 L 512 183.5 L 511 183.5 L 505 166 L 477.5 166 L 475 163.5 L 464.5 151 Q 457 144.5 445.5 142 L 14.5 142 Q 7.1 144.1 3 149.5 L 0.5 155 L 0 0 Z " /><path fill="rgb(0,0,0)" stroke="rgb(0,0,0)" stroke-width="1" opacity="0" d="M 19.5 152 L 440.5 152 Q 454.4 154.6 462 163.5 Q 469.1 171.4 473 182.5 L 496 256.5 L 494.5 257 L 476.5 244 L 280 244 L 280 234.5 L 280.5 234 L 475.5 234 L 475 232.5 L 470 211.5 L 461 184.5 Q 457 173.5 448.5 167 L 440.5 164 L 25 164 L 25 234 L 220.5 234 L 221 234.5 L 221 244 L 10 244 L 10 159.5 L 14.5 154 L 19.5 152 Z " /><path fill="rgb(0,0,0)" stroke="rgb(0,0,0)" stroke-width="1" opacity="0" d="M 35 175 L 74 175 L 74 224 L 50 224 L 50 204 L 39 204 L 39 223.5 L 35 224 L 35 175 Z " /><path fill="rgb(0,0,0)" stroke="rgb(0,0,0)" stroke-width="1" opacity="0" d="M 84 175 L 123 175 L 123 224 L 99 224 L 99 204 L 88 204 L 88 223.5 L 84 224 L 84 175 Z " /><path fill="rgb(0,0,0)" stroke="rgb(0,0,0)" stroke-width="1" opacity="0" d="M 133 175 L 172 175 L 172 224 L 148 224 L 148 204 L 137 204 L 137 223.5 L 133 224 L 133 175 Z " /><path fill="rgb(0,0,0)" stroke="rgb(0,0,0)" stroke-width="1" opacity="0" d="M 182 175 L 221 175 L 221 224 L 197 224 L 197 204 L 186 204 L 186 223.5 L 182 224 L 182 175 Z " /><path fill="rgb(0,0,0)" stroke="rgb(0,0,0)" stroke-width="1" opacity="0" d="M 231 175 L 269.5 175 L 270 175.5 L 270 331 L 231.5 331 L 231 330.5 L 231 175 Z " /><path fill="rgb(0,0,0)" stroke="rgb(0,0,0)" stroke-width="1" opacity="0" d="M 280 175 L 319 175 L 319 224 L 295 224 L 295 204 L 284 204 L 284 223.5 L 280 224 L 280 175 Z " /><path fill="rgb(0,0,0)" stroke="rgb(0,0,0)" stroke-width="1" opacity="0" d="M 329 175 L 368 175 L 368 224 L 344 224 L 344 204 L 333 204 L 333 223.5 L 329 224 L 329 175 Z " /><path fill="rgb(0,0,0)" stroke="rgb(0,0,0)" stroke-width="1" opacity="0" d="M 378 175 L 440.5 175 L 446 179.5 L 453 193.5 L 462 223.5 L 378 224 L 378 175 Z " /><path fill="rgb(0,0,0)" stroke="rgb(0,0,0)" stroke-width="1" opacity="0" d="M 482 176 L 496.5 176 L 497 177.5 L 502 191 L 512 188 L 512 512 L 0 512 L 0.5 328 Q 2.4 334.6 7.5 338 L 13.5 341 L 70 341 Q 68.6 329.2 72 321.5 Q 75.7 312.7 82.5 307 Q 88.3 301.3 97.5 299 L 111.5 298 Q 129.6 301.4 138 314.5 L 144 329.5 L 144 341 L 370.5 341 L 371 340.5 L 371 328.5 Q 374.9 312.9 386.5 305 L 400.5 299 L 414.5 299 Q 428.3 302.2 436 311.5 L 444 326.5 L 445 341 L 496.5 341 Q 504.1 339.1 508 333.5 L 511 327.5 L 511 267.5 L 482 176 Z M 103 300 L 92 303 L 87 306 Q 76 313 72 328 L 72 344 L 78 357 L 89 366 L 99 370 Q 104 369 106 371 Q 122 370 131 362 Q 139 354 142 341 Q 143 322 135 314 Q 129 306 120 302 L 112 300 L 103 300 Z M 403 300 Q 393 301 388 306 Q 377 313 373 328 L 373 344 L 379 357 Q 386 366 400 370 L 416 370 L 429 364 Q 440 357 443 341 Q 444 321 435 313 Q 426 299 403 300 Z " /><path fill="rgb(0,0,0)" stroke="rgb(0,0,0)" stroke-width="1" opacity="0" d="M 10 255 L 221 255 L 221 331 L 154.5 331 Q 153.4 330.9 154 325.5 Q 150.1 307.4 137.5 298 L 120.5 289 L 116.5 288 L 97.5 288 Q 78.7 292.2 69 305.5 L 62 317.5 L 60 328.5 L 58.5 330 L 24.5 330 L 19.5 331 L 12 327.5 L 10 323.5 L 10 255 Z M 25 270 L 25 287 L 36 287 L 36 270 L 25 270 Z M 27 300 L 25 302 L 25 317 L 36 317 L 36 302 L 35 300 L 27 300 Z " /><path fill="rgb(0,0,0)" stroke="rgb(0,0,0)" stroke-width="1" opacity="0" d="M 280 255 L 473.5 255 L 485 263.5 L 485 297.5 Q 486.3 303.3 490.5 306 Q 494 309.2 501 308 L 501 323.5 L 497.5 329 L 492.5 331 L 455 331 Q 452.7 308.5 437.5 298 Q 425.8 287.2 402.5 288 L 385.5 293 L 372 303.5 L 364 315.5 L 360 331 L 280 331 L 280 255 Z " /><path fill="rgb(0,0,0)" stroke="rgb(0,0,0)" stroke-width="1" opacity="0" d="M 496.5 271 L 501 274.5 L 501 297.5 L 498.5 298 L 496 297 L 496.5 271 Z " /><path fill="rgb(0,0,0)" stroke="rgb(0,0,0)" stroke-width="1" opacity="0" d="M 101.5 311 L 112.5 311 L 125 318 L 131 329.5 L 131 340.5 Q 128.3 350.8 120.5 356 L 110.5 360 L 103.5 360 Q 93.8 357.7 88 351.5 Q 81.7 345.3 82 332.5 Q 84.2 320.7 92.5 315 L 101.5 311 Z M 103 321 L 99 323 Q 93 326 92 334 L 92 338 L 95 345 L 105 350 Q 111 351 115 348 L 121 340 Q 123 329 118 326 Q 114 320 103 321 Z " /><path fill="rgb(0,0,0)" stroke="rgb(0,0,0)" stroke-width="1" opacity="0" d="M 402.5 311 L 416.5 312 Q 424 315 428 321.5 L 432 330.5 L 432 340.5 Q 429.6 350.1 422.5 355 L 411.5 360 L 404.5 360 Q 394.2 358.3 389 351.5 Q 382.4 345.1 383 331.5 Q 385.4 320.4 393.5 315 L 402.5 311 Z M 404 321 L 400 323 Q 395 326 393 333 L 393 338 L 396 345 L 406 350 L 416 348 L 422 340 Q 423 330 419 326 Q 415 320 404 321 Z " /><path fill="rgb(0,0,0)" stroke="rgb(0,0,0)" stroke-width="1" opacity="0" d="M 106.5 331 L 111 334.5 L 108.5 339 Q 103.8 339.8 103 336.5 Q 102.3 332.8 104.5 332 L 106.5 331 Z " /><path fill="rgb(0,0,0)" stroke="rgb(0,0,0)" stroke-width="1" opacity="0" d="M 407.5 331 L 411 333.5 L 412 335.5 L 409.5 339 Q 404.8 339.8 404 336.5 Q 403.3 332.8 405.5 332 L 407.5 331 Z " /><path fill="rgb(102,102,102)" stroke="rgb(102,102,102)" stroke-width="1" opacity="0.5411764705882353" d="M 14.5 142 L 18 142.5 L 11.5 144 L 5 148 L 2 152.5 L 0.5 158 L 0 155.5 L 6.5 146 L 14.5 142 Z " /><path fill="rgb(102,102,102)" stroke="rgb(102,102,102)" stroke-width="1" opacity="0.5411764705882353" d="M 441.5 142 L 446 142.5 L 441.5 143 L 441.5 142 Z " /><path fill="rgb(102,102,102)" stroke="rgb(102,102,102)" stroke-width="1" opacity="0.5411764705882353" d="M 447.5 143 Q 463.7 146.8 472 158.5 L 477 165.5 L 474 163.5 L 464.5 152 L 452.5 145 L 447.5 144 L 447.5 143 Z " /><path fill="rgb(102,102,102)" stroke="rgb(102,102,102)" stroke-width="1" opacity="0.5411764705882353" d="M 20.5 151 L 439 151.5 L 20.5 152 L 20.5 151 Z " /><path fill="rgb(102,102,102)" stroke="rgb(102,102,102)" stroke-width="1" opacity="0.5411764705882353" d="M 16.5 152 L 19 152.5 Q 13.4 153.4 11 157.5 L 10.5 159 L 10 157.5 L 16.5 152 Z " /><path fill="rgb(102,102,102)" stroke="rgb(102,102,102)" stroke-width="1" opacity="0.5411764705882353" d="M 441.5 152 L 445 152.5 L 441.5 153 L 441.5 152 Z " /><path fill="rgb(102,102,102)" stroke="rgb(102,102,102)" stroke-width="1" opacity="0.5411764705882353" d="M 449.5 154 Q 458.5 157.5 464 164.5 L 471 176.5 L 470 176.5 Q 466.1 166.4 458.5 160 L 449.5 155 L 449.5 154 Z " /><path fill="rgb(102,102,102)" stroke="rgb(102,102,102)" stroke-width="1" opacity="0.5411764705882353" d="M 9.5 160 L 10 244 L 220.5 244 L 221 243.5 L 221 234 L 25 234 L 25 164 L 441 164.5 L 26 165 L 26 233 L 220.5 233 L 222 234.5 L 222 245 L 9 245 L 9.5 160 Z " /><path fill="rgb(102,102,102)" stroke="rgb(102,102,102)" stroke-width="1" opacity="0.5411764705882353" d="M 442.5 165 Q 451.4 166.6 455 173.5 L 461 185.5 L 460 185.5 Q 456.6 174.4 448.5 168 L 442.5 166 L 442.5 165 Z " /><path fill="rgb(102,102,102)" stroke="rgb(102,102,102)" stroke-width="1" opacity="0.5411764705882353" d="M 505.5 169 L 510 180.5 L 509 180.5 L 505.5 169 Z " /><path fill="rgb(102,102,102)" stroke="rgb(102,102,102)" stroke-width="1" opacity="0.5411764705882353" d="M 35.5 174 L 73.5 174 L 75 175.5 L 74.5 224 L 74 175 L 35.5 175 L 35.5 174 Z " /><path fill="rgb(102,102,102)" stroke="rgb(102,102,102)" stroke-width="1" opacity="0.5411764705882353" d="M 84.5 174 L 122.5 174 L 124 175.5 L 123.5 224 L 123 175 L 84.5 175 L 84.5 174 Z " /><path fill="rgb(102,102,102)" stroke="rgb(102,102,102)" stroke-width="1" opacity="0.5411764705882353" d="M 133.5 174 L 172 174.5 L 133.5 175 L 133.5 174 Z " /><path fill="rgb(102,102,102)" stroke="rgb(102,102,102)" stroke-width="1" opacity="0.5411764705882353" d="M 182.5 174 L 220.5 174 L 222 175.5 L 221.5 224 L 221 175 L 182.5 175 L 182.5 174 Z " /><path fill="rgb(102,102,102)" stroke="rgb(102,102,102)" stroke-width="1" opacity="0.5411764705882353" d="M 231.5 174 L 270 174.5 L 231.5 175 L 231.5 174 Z " /><path fill="rgb(102,102,102)" stroke="rgb(102,102,102)" stroke-width="1" opacity="0.5411764705882353" d="M 280.5 174 L 319 174.5 L 280.5 175 L 280.5 174 Z " /><path fill="rgb(102,102,102)" stroke="rgb(102,102,102)" stroke-width="1" opacity="0.5411764705882353" d="M 329.5 174 L 368 174.5 L 329.5 175 L 329.5 174 Z " /><path fill="rgb(102,102,102)" stroke="rgb(102,102,102)" stroke-width="1" opacity="0.5411764705882353" d="M 378.5 174 L 440 174.5 L 378.5 175 L 378.5 174 Z " /><path fill="rgb(102,102,102)" stroke="rgb(102,102,102)" stroke-width="1" opacity="0.5411764705882353" d="M 441.5 175 L 447 179.5 L 453 192.5 L 452 192.5 Q 449.7 182.8 443.5 177 L 441.5 175 Z " /><path fill="rgb(102,102,102)" stroke="rgb(102,102,102)" stroke-width="1" opacity="0.5411764705882353" d="M 481.5 176 L 485 186.5 L 484 186.5 L 481.5 176 Z " /><path fill="rgb(102,102,102)" stroke="rgb(102,102,102)" stroke-width="1" opacity="0.5411764705882353" d="M 497.5 176 L 499 179.5 L 498 179.5 L 497.5 176 Z " /><path fill="rgb(102,102,102)" stroke="rgb(102,102,102)" stroke-width="1" opacity="0.5411764705882353" d="M 471.5 178 L 473 181.5 L 472 181.5 L 471.5 178 Z " /><path fill="rgb(102,102,102)" stroke="rgb(102,102,102)" stroke-width="1" opacity="0.5411764705882353" d="M 499.5 181 L 503 190 L 511.5 187 L 511.5 188 L 502 191 L 499.5 181 Z " /><path fill="rgb(102,102,102)" stroke="rgb(102,102,102)" stroke-width="1" opacity="0.5411764705882353" d="M 510.5 182 L 512 185.5 L 511 185.5 L 510.5 182 Z " /><path fill="rgb(102,102,102)" stroke="rgb(102,102,102)" stroke-width="1" opacity="0.5411764705882353" d="M 474.5 186 L 478 197.5 L 477 197.5 L 474 188.5 L 474.5 186 Z " /><path fill="rgb(102,102,102)" stroke="rgb(102,102,102)" stroke-width="1" opacity="0.5411764705882353" d="M 461.5 187 L 464 193.5 L 463 193.5 L 461.5 187 Z " /><path fill="rgb(102,102,102)" stroke="rgb(102,102,102)" stroke-width="1" opacity="0.5411764705882353" d="M 486.5 191 L 490 202.5 L 489 202.5 L 486 193.5 L 486.5 191 Z " /><path fill="rgb(102,102,102)" stroke="rgb(102,102,102)" stroke-width="1" opacity="0.5411764705882353" d="M 453.5 194 L 455 199.5 L 454 199.5 L 453.5 194 Z " /><path fill="rgb(102,102,102)" stroke="rgb(102,102,102)" stroke-width="1" opacity="0.5411764705882353" d="M 465.5 198 L 467 203.5 L 466 203.5 L 465.5 198 Z " /><path fill="rgb(102,102,102)" stroke="rgb(102,102,102)" stroke-width="1" opacity="0.5411764705882353" d="M 39 204 L 50 204 L 50 223.5 L 49 223.5 L 49 205 L 40 205 L 39.5 224 L 39 204 Z " /><path fill="rgb(102,102,102)" stroke="rgb(102,102,102)" stroke-width="1" opacity="0.5411764705882353" d="M 88 204 L 99 204 L 99 223.5 L 98 223.5 L 98 205 L 89 205 L 88.5 224 L 88 204 Z " /><path fill="rgb(102,102,102)" stroke="rgb(102,102,102)" stroke-width="1" opacity="0.5411764705882353" d="M 137 204 L 148 204 L 148 223.5 L 147 223.5 L 147 205 L 138 205 L 137.5 224 L 137 204 Z " /><path fill="rgb(102,102,102)" stroke="rgb(102,102,102)" stroke-width="1" opacity="0.5411764705882353" d="M 186 204 L 197 204 L 197 223.5 L 196 223.5 L 196 205 L 187 205 L 186.5 224 L 186 204 Z " /><path fill="rgb(102,102,102)" stroke="rgb(102,102,102)" stroke-width="1" opacity="0.5411764705882353" d="M 284 204 L 295 204 L 295 223.5 L 294 223.5 L 294 205 L 285 205 L 284.5 224 L 284 204 Z " /><path fill="rgb(102,102,102)" stroke="rgb(102,102,102)" stroke-width="1" opacity="0.5411764705882353" d="M 333 204 L 344 204 L 344 223.5 L 343 223.5 L 343 205 L 334 205 L 333.5 224 L 333 204 Z " /><path fill="rgb(102,102,102)" stroke="rgb(102,102,102)" stroke-width="1" opacity="0.5411764705882353" d="M 456.5 204 L 459 212.5 L 458 212.5 L 456.5 204 Z " /><path fill="rgb(102,102,102)" stroke="rgb(102,102,102)" stroke-width="1" opacity="0.5411764705882353" d="M 480.5 205 L 484 216.5 L 483 216.5 L 480 207.5 L 480.5 205 Z " /><path fill="rgb(102,102,102)" stroke="rgb(102,102,102)" stroke-width="1" opacity="0.5411764705882353" d="M 491.5 207 L 496 221.5 L 495 221.5 L 491 209.5 L 491.5 207 Z " /><path fill="rgb(102,102,102)" stroke="rgb(102,102,102)" stroke-width="1" opacity="0.5411764705882353" d="M 468.5 208 L 470 213.5 L 469 213.5 L 468.5 208 Z " /><path fill="rgb(102,102,102)" stroke="rgb(102,102,102)" stroke-width="1" opacity="0.5411764705882353" d="M 459.5 214 L 462 222.5 L 461 222.5 L 459.5 214 Z " /><path fill="rgb(102,102,102)" stroke="rgb(102,102,102)" stroke-width="1" opacity="0.5411764705882353" d="M 470.5 215 L 473 224.5 L 472 224.5 L 470.5 215 Z " /><path fill="rgb(102,102,102)" stroke="rgb(102,102,102)" stroke-width="1" opacity="0.5411764705882353" d="M 485.5 221 L 489 232.5 L 488 232.5 L 485 223.5 L 485.5 221 Z " /><path fill="rgb(102,102,102)" stroke="rgb(102,102,102)" stroke-width="1" opacity="0.5411764705882353" d="M 473.5 226 L 475 231.5 L 474 231.5 L 473.5 226 Z " /><path fill="rgb(102,102,102)" stroke="rgb(102,102,102)" stroke-width="1" opacity="0.5411764705882353" d="M 497.5 226 L 501 237.5 L 500 237.5 L 497 228.5 L 497.5 226 Z " /><path fill="rgb(102,102,102)" stroke="rgb(102,102,102)" stroke-width="1" opacity="0.5411764705882353" d="M 280.5 233 L 476 233.5 L 280.5 234 L 280.5 233 Z " /><path fill="rgb(102,102,102)" stroke="rgb(102,102,102)" stroke-width="1" opacity="0.5411764705882353" d="M 490.5 237 L 494 248.5 L 493 248.5 L 490 239.5 L 490.5 237 Z " /><path fill="rgb(102,102,102)" stroke="rgb(102,102,102)" stroke-width="1" opacity="0.5411764705882353" d="M 502.5 242 L 506 253.5 L 505 253.5 L 502 244.5 L 502.5 242 Z " /><path fill="rgb(102,102,102)" stroke="rgb(102,102,102)" stroke-width="1" opacity="0.5411764705882353" d="M 280.5 244 L 476.5 244 L 495.5 257 L 495 255.5 L 495.5 253 L 497 258.5 L 495.5 258 L 476.5 245 L 280.5 245 L 280.5 244 Z " /><path fill="rgb(102,102,102)" stroke="rgb(102,102,102)" stroke-width="1" opacity="0.5411764705882353" d="M 10.5 254 L 220.5 254 L 222 255.5 L 221.5 331 L 221 255 L 10.5 255 L 10 255.5 L 10 322.5 L 9 322.5 L 9 255.5 L 10.5 254 Z " /><path fill="rgb(102,102,102)" stroke="rgb(102,102,102)" stroke-width="1" opacity="0.5411764705882353" d="M 280.5 254 L 473.5 254 L 486 263.5 L 485.5 298 L 485 263.5 L 483.5 262 L 473.5 255 L 280.5 255 L 280.5 254 Z " /><path fill="rgb(102,102,102)" stroke="rgb(102,102,102)" stroke-width="1" opacity="0.5411764705882353" d="M 507.5 258 L 511 269.5 L 510 269.5 L 507 260.5 L 507.5 258 Z " /><path fill="rgb(102,102,102)" stroke="rgb(102,102,102)" stroke-width="1" opacity="0.5411764705882353" d="M 25 270 L 36 270 L 36 287 L 25 287 L 25 270 Z M 26 271 L 26 286 L 35 286 L 35 271 L 26 271 Z " /><path fill="rgb(102,102,102)" stroke="rgb(102,102,102)" stroke-width="1" opacity="0.5411764705882353" d="M 495 270 L 501 273.5 L 499.5 273 L 496.5 271 L 496 297 L 498 297.5 L 496.5 298 L 495 296.5 L 495 270 Z " /><path fill="rgb(102,102,102)" stroke="rgb(102,102,102)" stroke-width="1" opacity="0.5411764705882353" d="M 97.5 288 L 102 288.5 L 97.5 289 L 97.5 288 Z " /><path fill="rgb(102,102,102)" stroke="rgb(102,102,102)" stroke-width="1" opacity="0.5411764705882353" d="M 112.5 288 L 117 288.5 L 112.5 289 L 112.5 288 Z " /><path fill="rgb(102,102,102)" stroke="rgb(102,102,102)" stroke-width="1" opacity="0.5411764705882353" d="M 402.5 288 L 414 288.5 L 402.5 289 L 402.5 288 Z " /><path fill="rgb(102,102,102)" stroke="rgb(102,102,102)" stroke-width="1" opacity="0.5411764705882353" d="M 93.5 289 L 96 289.5 L 88.5 292 L 88.5 291 L 93.5 289 Z " /><path fill="rgb(102,102,102)" stroke="rgb(102,102,102)" stroke-width="1" opacity="0.5411764705882353" d="M 118.5 289 L 128 292.5 L 126.5 293 L 118.5 290 L 118.5 289 Z " /><path fill="rgb(102,102,102)" stroke="rgb(102,102,102)" stroke-width="1" opacity="0.5411764705882353" d="M 396.5 289 L 400 289.5 L 396.5 290 L 396.5 289 Z " /><path fill="rgb(102,102,102)" stroke="rgb(102,102,102)" stroke-width="1" opacity="0.5411764705882353" d="M 415.5 289 L 419 289.5 L 415.5 290 L 415.5 289 Z " /><path fill="rgb(102,102,102)" stroke="rgb(102,102,102)" stroke-width="1" opacity="0.5411764705882353" d="M 420.5 290 Q 437.5 294 446 306.5 L 452 317.5 L 451 317.5 Q 446.6 305.9 437.5 299 L 425.5 292 L 420.5 291 L 420.5 290 Z " /><path fill="rgb(102,102,102)" stroke="rgb(102,102,102)" stroke-width="1" opacity="0.5411764705882353" d="M 390.5 291 L 392 291.5 Q 377.3 296.8 369 308.5 L 367.5 311 L 368 309.5 L 375.5 300 L 390.5 291 Z " /><path fill="rgb(102,102,102)" stroke="rgb(102,102,102)" stroke-width="1" opacity="0.5411764705882353" d="M 85.5 292 L 87 292.5 Q 76.7 297.2 70 305.5 Q 63.7 312.2 61.5 323 L 61 320.5 Q 65.9 305.4 77.5 297 L 85.5 292 Z " /><path fill="rgb(102,102,102)" stroke="rgb(102,102,102)" stroke-width="1" opacity="0.5411764705882353" d="M 129.5 293 Q 138.3 297.3 144 304.5 L 150 314.5 L 149 314.5 Q 145.4 305.6 138.5 300 L 130.5 295 L 129.5 293 Z " /><path fill="rgb(102,102,102)" stroke="rgb(102,102,102)" stroke-width="1" opacity="0.5411764705882353" d="M 103.5 297 L 111 297.5 L 103.5 298 L 103.5 297 Z " /><path fill="rgb(102,102,102)" stroke="rgb(102,102,102)" stroke-width="1" opacity="0.5411764705882353" d="M 98.5 298 L 102 298.5 L 98.5 299 L 98.5 298 Z " /><path fill="rgb(102,102,102)" stroke="rgb(102,102,102)" stroke-width="1" opacity="0.5411764705882353" d="M 112.5 298 L 116 298.5 L 112.5 299 L 112.5 298 Z " /><path fill="rgb(102,102,102)" stroke="rgb(102,102,102)" stroke-width="1" opacity="0.5411764705882353" d="M 401.5 298 L 414 298.5 L 401.5 299 L 401.5 298 Z " /><path fill="rgb(102,102,102)" stroke="rgb(102,102,102)" stroke-width="1" opacity="0.5411764705882353" d="M 94.5 299 L 97 299.5 L 90.5 302 L 90.5 301 L 94.5 299 Z " /><path fill="rgb(102,102,102)" stroke="rgb(102,102,102)" stroke-width="1" opacity="0.5411764705882353" d="M 397.5 299 L 400 299.5 L 397.5 300 L 397.5 299 Z " /><path fill="rgb(102,102,102)" stroke="rgb(102,102,102)" stroke-width="1" opacity="0.5411764705882353" d="M 415.5 299 L 421 300.5 L 419.5 301 L 415.5 300 L 415.5 299 Z " /><path fill="rgb(102,102,102)" stroke="rgb(102,102,102)" stroke-width="1" opacity="0.5411764705882353" d="M 486.5 299 L 490.5 305 L 499 307.5 L 494.5 308 L 487 302.5 L 486.5 299 Z " /><path fill="rgb(102,102,102)" stroke="rgb(102,102,102)" stroke-width="1" opacity="0.5411764705882353" d="M 26.5 300 L 34.5 300 L 36 301.5 L 35.5 317 L 35 301 L 26 301 L 26 316.5 L 25 316.5 L 25 301.5 L 26.5 300 Z " /><path fill="rgb(102,102,102)" stroke="rgb(102,102,102)" stroke-width="1" opacity="0.5411764705882353" d="M 102.5 300 L 112 300.5 L 102.5 301 L 102.5 300 Z " /><path fill="rgb(102,102,102)" stroke="rgb(102,102,102)" stroke-width="1" opacity="0.5411764705882353" d="M 120.5 300 Q 130.4 303.1 136 310.5 L 143 324.5 L 142 324.5 Q 138.5 310.5 127.5 304 L 120.5 301 L 120.5 300 Z " /><path fill="rgb(102,102,102)" stroke="rgb(102,102,102)" stroke-width="1" opacity="0.5411764705882353" d="M 394.5 300 L 396 300.5 L 392 302.5 L 394.5 303 L 396.5 302 L 396.5 303 Q 385.6 306.1 380 314.5 L 374.5 326 L 374 323.5 Q 378.2 312.2 387.5 306 L 390 304.5 L 388.5 304 L 377 314.5 L 374.5 319 L 375 317.5 L 380 309 L 394.5 300 Z " /><path fill="rgb(102,102,102)" stroke="rgb(102,102,102)" stroke-width="1" opacity="0.5411764705882353" d="M 402.5 300 L 413 300.5 L 402.5 301 L 402.5 300 Z " /><path fill="rgb(102,102,102)" stroke="rgb(102,102,102)" stroke-width="1" opacity="0.5411764705882353" d="M 97.5 301 L 100 301.5 L 97.5 302 L 97.5 301 Z " /><path fill="rgb(102,102,102)" stroke="rgb(102,102,102)" stroke-width="1" opacity="0.5411764705882353" d="M 113.5 301 Q 128 303.5 135 313.5 Q 139.9 318.6 141 327.5 L 140 327.5 Q 137.6 315.4 129.5 309 Q 124.2 302.8 113.5 302 L 113.5 301 Z " /><path fill="rgb(102,102,102)" stroke="rgb(102,102,102)" stroke-width="1" opacity="0.5411764705882353" d="M 398.5 301 L 401 301.5 L 398.5 302 L 398.5 301 Z " /><path fill="rgb(102,102,102)" stroke="rgb(102,102,102)" stroke-width="1" opacity="0.5411764705882353" d="M 414.5 301 L 417.5 301 L 426.5 305 L 425.5 303 L 422 301.5 L 423.5 301 Q 432.3 305.3 438 312.5 L 444 325.5 L 443 325.5 Q 440 313.5 431.5 307 L 430 307.5 Q 439.6 314.4 442 328.5 L 441 328.5 Q 439 315.5 430.5 309 Q 425.2 302.8 414.5 302 L 414.5 301 Z M 428 305 L 429 307 L 430 307 L 428 305 Z " /><path fill="rgb(102,102,102)" stroke="rgb(102,102,102)" stroke-width="1" opacity="0.5411764705882353" d="M 88.5 302 L 87.5 304 L 78 311.5 L 72.5 321 L 72 319.5 Q 76.3 310.8 83.5 305 L 88.5 302 Z " /><path fill="rgb(102,102,102)" stroke="rgb(102,102,102)" stroke-width="1" opacity="0.5411764705882353" d="M 94.5 302 L 96 302.5 L 90.5 305 L 91.5 303 L 94.5 302 Z " /><path fill="rgb(102,102,102)" stroke="rgb(102,102,102)" stroke-width="1" opacity="0.5411764705882353" d="M 88.5 305 L 87.5 307 L 79 314.5 L 74.5 323 L 74 321.5 Q 78.3 311.8 86.5 306 L 88.5 305 Z " /><path fill="rgb(102,102,102)" stroke="rgb(102,102,102)" stroke-width="1" opacity="0.5411764705882353" d="M 501.5 308 L 502 322.5 L 501 322.5 L 501.5 308 Z " /><path fill="rgb(102,102,102)" stroke="rgb(102,102,102)" stroke-width="1" opacity="0.5411764705882353" d="M 102.5 310 L 112 310.5 L 102.5 311 L 102.5 310 Z " /><path fill="rgb(102,102,102)" stroke="rgb(102,102,102)" stroke-width="1" opacity="0.5411764705882353" d="M 403.5 310 Q 411.9 308.6 416 311.5 L 413.5 312 L 412.5 311 L 403.5 311 L 403.5 310 Z " /><path fill="rgb(102,102,102)" stroke="rgb(102,102,102)" stroke-width="1" opacity="0.5411764705882353" d="M 98.5 311 L 101 311.5 Q 91.6 313.6 87 320.5 Q 83.3 324.8 82.5 332 L 82 328.5 Q 85.2 319.2 92.5 314 L 98.5 311 Z " /><path fill="rgb(102,102,102)" stroke="rgb(102,102,102)" stroke-width="1" opacity="0.5411764705882353" d="M 399.5 311 L 402 311.5 Q 391.9 313.9 387 321.5 L 384.5 327 L 384 325.5 Q 387 318 393.5 314 L 399.5 311 Z " /><path fill="rgb(102,102,102)" stroke="rgb(102,102,102)" stroke-width="1" opacity="0.5411764705882353" d="M 116.5 312 L 127 319.5 L 131 328.5 L 130 328.5 L 125 318 L 116.5 313 L 116.5 312 Z " /><path fill="rgb(102,102,102)" stroke="rgb(102,102,102)" stroke-width="1" opacity="0.5411764705882353" d="M 366.5 312 L 366 313.5 L 364.5 317 L 364 315.5 L 366.5 312 Z " /><path fill="rgb(102,102,102)" stroke="rgb(102,102,102)" stroke-width="1" opacity="0.5411764705882353" d="M 417.5 312 L 427 318.5 L 433 330.5 L 433 339.5 L 432 339.5 Q 433.1 329.9 430 324.5 L 420.5 314 Q 416.8 313.8 417.5 312 Z " /><path fill="rgb(102,102,102)" stroke="rgb(102,102,102)" stroke-width="1" opacity="0.5411764705882353" d="M 150.5 316 L 152 319.5 L 151 319.5 L 150.5 316 Z " /><path fill="rgb(102,102,102)" stroke="rgb(102,102,102)" stroke-width="1" opacity="0.5411764705882353" d="M 363.5 318 L 364 319.5 L 362.5 323 L 362 320.5 L 363.5 318 Z " /><path fill="rgb(102,102,102)" stroke="rgb(102,102,102)" stroke-width="1" opacity="0.5411764705882353" d="M 373.5 320 L 374 321.5 L 372.5 324 L 372 322.5 L 373.5 320 Z " /><path fill="rgb(102,102,102)" stroke="rgb(102,102,102)" stroke-width="1" opacity="0.5411764705882353" d="M 102.5 321 L 111 321.5 Q 99 320.5 95 327.5 L 93.5 332 L 93 329.5 L 98.5 323 L 102.5 321 Z " /><path fill="rgb(102,102,102)" stroke="rgb(102,102,102)" stroke-width="1" opacity="0.5411764705882353" d="M 152.5 321 L 153 323.5 L 152 323.5 L 152.5 321 Z " /><path fill="rgb(102,102,102)" stroke="rgb(102,102,102)" stroke-width="1" opacity="0.5411764705882353" d="M 403.5 321 L 412 321.5 Q 400 320.5 396 327.5 L 393.5 338 L 393 332.5 Q 394.5 326 399.5 323 L 403.5 321 Z " /><path fill="rgb(102,102,102)" stroke="rgb(102,102,102)" stroke-width="1" opacity="0.5411764705882353" d="M 112.5 322 L 118 325.5 Q 122.7 329.3 121 339.5 L 114.5 348 Q 111.2 350.7 104.5 350 L 104.5 349 Q 114.5 349.5 118 343.5 Q 121.5 339.5 120 330.5 L 113.5 323 L 112.5 322 Z " /><path fill="rgb(102,102,102)" stroke="rgb(102,102,102)" stroke-width="1" opacity="0.5411764705882353" d="M 413.5 322 L 419 325.5 L 421 329.5 L 420 329.5 L 414.5 323 L 413.5 322 Z " /><path fill="rgb(102,102,102)" stroke="rgb(102,102,102)" stroke-width="1" opacity="0.5411764705882353" d="M 453.5 322 L 454 324.5 L 453 324.5 L 453.5 322 Z " /><path fill="rgb(102,102,102)" stroke="rgb(102,102,102)" stroke-width="1" opacity="0.5411764705882353" d="M 10.5 324 L 13.5 329 L 19 330.5 L 15.5 331 L 11 327.5 L 10.5 324 Z " /><path fill="rgb(102,102,102)" stroke="rgb(102,102,102)" stroke-width="1" opacity="0.5411764705882353" d="M 60.5 324 L 61 327.5 L 60 327.5 L 60.5 324 Z " /><path fill="rgb(102,102,102)" stroke="rgb(102,102,102)" stroke-width="1" opacity="0.5411764705882353" d="M 361.5 324 L 362 326.5 L 361 326.5 L 361.5 324 Z " /><path fill="rgb(102,102,102)" stroke="rgb(102,102,102)" stroke-width="1" opacity="0.5411764705882353" d="M 500.5 324 L 501 325.5 L 497.5 330 L 493.5 331 L 493.5 330 L 499 327.5 L 500.5 324 Z " /><path fill="rgb(102,102,102)" stroke="rgb(102,102,102)" stroke-width="1" opacity="0.5411764705882353" d="M 0.5 325 L 1 327.5 L 0 327.5 L 0.5 325 Z " /><path fill="rgb(102,102,102)" stroke="rgb(102,102,102)" stroke-width="1" opacity="0.5411764705882353" d="M 70.5 325 L 71 327.5 L 70 327.5 L 70.5 325 Z " /><path fill="rgb(102,102,102)" stroke="rgb(102,102,102)" stroke-width="1" opacity="0.5411764705882353" d="M 153.5 325 L 154 328.5 L 153 328.5 L 153.5 325 Z " /><path fill="rgb(102,102,102)" stroke="rgb(102,102,102)" stroke-width="1" opacity="0.5411764705882353" d="M 371.5 325 L 372 327.5 L 371 327.5 L 371.5 325 Z " /><path fill="rgb(102,102,102)" stroke="rgb(102,102,102)" stroke-width="1" opacity="0.5411764705882353" d="M 510.5 325 L 511 327.5 Q 508.8 334.3 503.5 338 L 498.5 340 L 498.5 339 Q 504.3 337.8 507 333.5 L 510.5 325 Z " /><path fill="rgb(102,102,102)" stroke="rgb(102,102,102)" stroke-width="1" opacity="0.5411764705882353" d="M 143.5 326 L 144 328.5 L 143 328.5 L 143.5 326 Z " /><path fill="rgb(102,102,102)" stroke="rgb(102,102,102)" stroke-width="1" opacity="0.5411764705882353" d="M 454.5 326 L 455 330.5 L 454 330.5 L 454.5 326 Z " /><path fill="rgb(102,102,102)" stroke="rgb(102,102,102)" stroke-width="1" opacity="0.5411764705882353" d="M 72.5 327 L 73 331.5 L 72 331.5 L 72.5 327 Z " /><path fill="rgb(102,102,102)" stroke="rgb(102,102,102)" stroke-width="1" opacity="0.5411764705882353" d="M 373.5 327 L 374 331.5 L 373 331.5 L 373.5 327 Z " /><path fill="rgb(102,102,102)" stroke="rgb(102,102,102)" stroke-width="1" opacity="0.5411764705882353" d="M 444.5 327 L 445 330.5 L 444 330.5 L 444.5 327 Z " /><path fill="rgb(102,102,102)" stroke="rgb(102,102,102)" stroke-width="1" opacity="0.5411764705882353" d="M 383.5 328 L 384 330.5 L 383 330.5 L 383.5 328 Z " /><path fill="rgb(102,102,102)" stroke="rgb(102,102,102)" stroke-width="1" opacity="0.5411764705882353" d="M 1.5 329 L 7.5 337 L 10 338.5 L 8.5 338 L 3 333.5 L 1.5 329 Z " /><path fill="rgb(102,102,102)" stroke="rgb(102,102,102)" stroke-width="1" opacity="0.5411764705882353" d="M 59.5 329 L 60 331 L 24 330.5 L 58.5 330 L 59.5 329 Z " /><path fill="rgb(102,102,102)" stroke="rgb(102,102,102)" stroke-width="1" opacity="0.5411764705882353" d="M 69.5 329 L 70 341 L 13.5 341 L 11 339.5 L 12.5 339 L 13.5 340 L 69 340 L 69.5 329 Z " /><path fill="rgb(102,102,102)" stroke="rgb(102,102,102)" stroke-width="1" opacity="0.5411764705882353" d="M 141.5 329 L 142 340.5 L 141 340.5 L 141.5 329 Z " /><path fill="rgb(102,102,102)" stroke="rgb(102,102,102)" stroke-width="1" opacity="0.5411764705882353" d="M 370.5 329 L 371 341 L 144.5 341 L 144 340.5 L 144 331.5 L 145 331.5 L 145 339.5 L 145.5 340 L 370 340 L 370.5 329 Z " /><path fill="rgb(102,102,102)" stroke="rgb(102,102,102)" stroke-width="1" opacity="0.5411764705882353" d="M 131.5 330 L 132 340.5 L 129.5 346 L 129 344.5 L 131 340.5 L 131.5 330 Z " /><path fill="rgb(102,102,102)" stroke="rgb(102,102,102)" stroke-width="1" opacity="0.5411764705882353" d="M 442.5 330 L 443 340.5 L 442 340.5 L 442.5 330 Z " /><path fill="rgb(102,102,102)" stroke="rgb(102,102,102)" stroke-width="1" opacity="0.5411764705882353" d="M 104.5 331 L 106 331.5 L 103 333.5 Q 102.3 338.3 105.5 339 Q 109.3 339.8 110 337.5 L 110.5 336 L 111 337.5 Q 110.3 340.8 105.5 340 L 103 339 L 102 333.5 L 104.5 331 Z " /><path fill="rgb(102,102,102)" stroke="rgb(102,102,102)" stroke-width="1" opacity="0.5411764705882353" d="M 107.5 331 L 111 333.5 L 108.5 332 L 107.5 331 Z " /><path fill="rgb(102,102,102)" stroke="rgb(102,102,102)" stroke-width="1" opacity="0.5411764705882353" d="M 405.5 331 L 407 331.5 L 404 333.5 Q 403.3 338.3 406.5 339 Q 410.3 339.8 411 337.5 L 411.5 336 L 412 337.5 Q 411.3 340.8 406.5 340 L 404 339 L 403 333.5 L 405.5 331 Z " /><path fill="rgb(102,102,102)" stroke="rgb(102,102,102)" stroke-width="1" opacity="0.5411764705882353" d="M 408.5 331 L 412 333.5 L 411.5 335 L 409.5 332 L 408.5 331 Z " /><path fill="rgb(102,102,102)" stroke="rgb(102,102,102)" stroke-width="1" opacity="0.5411764705882353" d="M 421.5 331 L 422 339.5 L 415.5 348 L 411.5 349 L 411.5 348 Q 417.1 347.6 419 343.5 Q 422.3 339.3 421.5 331 Z " /><path fill="rgb(102,102,102)" stroke="rgb(102,102,102)" stroke-width="1" opacity="0.5411764705882353" d="M 382.5 332 L 383 337.5 L 382 337.5 L 382.5 332 Z " /><path fill="rgb(102,102,102)" stroke="rgb(102,102,102)" stroke-width="1" opacity="0.5411764705882353" d="M 92.5 333 Q 92.9 343.1 99.5 347 L 103 348.5 L 101.5 349 L 95 344.5 L 92 337.5 L 92.5 333 Z " /><path fill="rgb(102,102,102)" stroke="rgb(102,102,102)" stroke-width="1" opacity="0.5411764705882353" d="M 445.5 333 L 446 340 L 497 340.5 L 445 341 L 445.5 333 Z " /><path fill="rgb(102,102,102)" stroke="rgb(102,102,102)" stroke-width="1" opacity="0.5411764705882353" d="M 81.5 334 L 82 336.5 L 81 336.5 L 81.5 334 Z " /><path fill="rgb(102,102,102)" stroke="rgb(102,102,102)" stroke-width="1" opacity="0.5411764705882353" d="M 72.5 339 Q 74.4 354.6 84.5 362 L 94 367.5 L 92.5 368 Q 83.5 364 78 356.5 L 72 343.5 L 72.5 339 Z " /><path fill="rgb(102,102,102)" stroke="rgb(102,102,102)" stroke-width="1" opacity="0.5411764705882353" d="M 82.5 339 L 83 341.5 L 82 341.5 L 82.5 339 Z " /><path fill="rgb(102,102,102)" stroke="rgb(102,102,102)" stroke-width="1" opacity="0.5411764705882353" d="M 373.5 339 Q 375.4 354.6 385.5 362 L 389 364.5 L 387.5 364 L 379 356.5 L 373 343.5 L 373.5 339 Z " /><path fill="rgb(102,102,102)" stroke="rgb(102,102,102)" stroke-width="1" opacity="0.5411764705882353" d="M 383.5 339 L 385 344.5 L 384 344.5 L 383.5 339 Z " /><path fill="rgb(102,102,102)" stroke="rgb(102,102,102)" stroke-width="1" opacity="0.5411764705882353" d="M 431.5 341 L 432 343.5 Q 429.1 351.6 422.5 356 Q 419 359.5 412.5 360 L 412.5 359 Q 423.3 357.3 428 349.5 L 431.5 341 Z " /><path fill="rgb(102,102,102)" stroke="rgb(102,102,102)" stroke-width="1" opacity="0.5411764705882353" d="M 140.5 342 L 141 345.5 Q 137.7 355.7 130.5 362 L 124.5 366 L 125.5 364 L 135 355.5 Q 139.4 350.4 140.5 342 Z " /><path fill="rgb(102,102,102)" stroke="rgb(102,102,102)" stroke-width="1" opacity="0.5411764705882353" d="M 395.5 342 L 398 346 L 401 347.5 L 399.5 347 L 396 344.5 L 395.5 342 Z " /><path fill="rgb(102,102,102)" stroke="rgb(102,102,102)" stroke-width="1" opacity="0.5411764705882353" d="M 441.5 342 L 442 344.5 L 441 344.5 L 441.5 342 Z " /><path fill="rgb(102,102,102)" stroke="rgb(102,102,102)" stroke-width="1" opacity="0.5411764705882353" d="M 83.5 343 L 90.5 354 L 99.5 359 L 103 359.5 L 99.5 360 L 87 351.5 L 83 344.5 L 83.5 343 Z " /><path fill="rgb(102,102,102)" stroke="rgb(102,102,102)" stroke-width="1" opacity="0.5411764705882353" d="M 440.5 346 L 441 347.5 Q 437.2 358.2 428.5 364 L 420.5 368 L 420.5 367 Q 430.5 363.5 436 355.5 L 440.5 346 Z " /><path fill="rgb(102,102,102)" stroke="rgb(102,102,102)" stroke-width="1" opacity="0.5411764705882353" d="M 128.5 347 L 128 348.5 L 120.5 357 L 115.5 359 L 115.5 358 Q 123.4 355.9 127 349.5 L 128.5 347 Z " /><path fill="rgb(102,102,102)" stroke="rgb(102,102,102)" stroke-width="1" opacity="0.5411764705882353" d="M 386.5 348 L 391.5 354 L 397 357.5 L 395.5 357 Q 389.4 355.6 387 350.5 L 386.5 348 Z " /><path fill="rgb(102,102,102)" stroke="rgb(102,102,102)" stroke-width="1" opacity="0.5411764705882353" d="M 405.5 349 L 410 349.5 L 405.5 350 L 405.5 349 Z " /><path fill="rgb(102,102,102)" stroke="rgb(102,102,102)" stroke-width="1" opacity="0.5411764705882353" d="M 398.5 358 L 404 359.5 L 400.5 360 L 398.5 358 Z " /><path fill="rgb(102,102,102)" stroke="rgb(102,102,102)" stroke-width="1" opacity="0.5411764705882353" d="M 111.5 359 L 114 359.5 L 111.5 360 L 111.5 359 Z " /><path fill="rgb(102,102,102)" stroke="rgb(102,102,102)" stroke-width="1" opacity="0.5411764705882353" d="M 104.5 360 L 109 360.5 L 104.5 361 L 104.5 360 Z " /><path fill="rgb(102,102,102)" stroke="rgb(102,102,102)" stroke-width="1" opacity="0.5411764705882353" d="M 405.5 360 L 410 360.5 L 405.5 361 L 405.5 360 Z " /><path fill="rgb(102,102,102)" stroke="rgb(102,102,102)" stroke-width="1" opacity="0.5411764705882353" d="M 390.5 365 Q 395.4 369.1 404 369.5 L 399.5 370 L 391.5 367 L 390.5 365 Z " /><path fill="rgb(102,102,102)" stroke="rgb(102,102,102)" stroke-width="1" opacity="0.5411764705882353" d="M 119.5 367 L 121 367.5 Q 118.1 370.6 111.5 370 L 111.5 369 Q 117.2 369.7 119.5 367 Z " /><path fill="rgb(102,102,102)" stroke="rgb(102,102,102)" stroke-width="1" opacity="0.5411764705882353" d="M 98.5 369 L 102 369.5 L 98.5 370 L 98.5 369 Z " /><path fill="rgb(102,102,102)" stroke="rgb(102,102,102)" stroke-width="1" opacity="0.5411764705882353" d="M 411.5 369 L 416 369.5 L 411.5 370 L 411.5 369 Z " /><path fill="rgb(102,102,102)" stroke="rgb(102,102,102)" stroke-width="1" opacity="0.5411764705882353" d="M 105.5 370 L 109 370.5 L 105.5 371 L 105.5 370 Z " /><path fill="rgb(102,102,102)" stroke="rgb(102,102,102)" stroke-width="1" opacity="0.996078431372549" d="M 18.5 142 L 21 142.5 L 18.5 143 L 18.5 142 Z " /><path fill="rgb(102,102,102)" stroke="rgb(102,102,102)" stroke-width="1" opacity="0.996078431372549" d="M 437.5 142 L 441 142.5 L 437.5 143 L 437.5 142 Z " /><path fill="rgb(102,102,102)" stroke="rgb(102,102,102)" stroke-width="1" opacity="0.996078431372549" d="M 9.5 145 L 8.5 147 L 9.5 145 Z " /><path fill="rgb(102,102,102)" stroke="rgb(102,102,102)" stroke-width="1" opacity="0.996078431372549" d="M 460.5 149 L 461.5 151 L 460.5 149 Z " /><path fill="rgb(102,102,102)" stroke="rgb(102,102,102)" stroke-width="1" opacity="0.996078431372549" d="M 3.5 151 L 2.5 153 L 3.5 151 Z " /><path fill="rgb(102,102,102)" stroke="rgb(102,102,102)" stroke-width="1" opacity="0.996078431372549" d="M 464.5 152 L 470.5 159 L 464.5 152 Z " /><path fill="rgb(102,102,102)" stroke="rgb(102,102,102)" stroke-width="1" opacity="0.996078431372549" d="M 13.5 153 L 10.5 157 L 13.5 153 Z " /><path fill="rgb(102,102,102)" stroke="rgb(102,102,102)" stroke-width="1" opacity="0.996078431372549" d="M 453.5 155 L 454.5 157 L 453.5 155 Z " /><path fill="rgb(102,102,102)" stroke="rgb(102,102,102)" stroke-width="1" opacity="0.996078431372549" d="M 456.5 157 L 457.5 159 L 456.5 157 Z " /><path fill="rgb(102,102,102)" stroke="rgb(102,102,102)" stroke-width="1" opacity="0.996078431372549" d="M 0.5 158 L 1 160.5 L 0 160.5 L 0.5 158 Z " /><path fill="rgb(102,102,102)" stroke="rgb(102,102,102)" stroke-width="1" opacity="0.996078431372549" d="M 472.5 161 L 473.5 163 L 472.5 161 Z " /><path fill="rgb(102,102,102)" stroke="rgb(102,102,102)" stroke-width="1" opacity="0.996078431372549" d="M 474.5 164 L 476.5 166 L 504 166.5 L 476.5 167 L 474.5 164 Z " /><path fill="rgb(102,102,102)" stroke="rgb(102,102,102)" stroke-width="1" opacity="0.996078431372549" d="M 464.5 165 L 465.5 167 L 464.5 165 Z " /><path fill="rgb(102,102,102)" stroke="rgb(102,102,102)" stroke-width="1" opacity="0.996078431372549" d="M 448.5 168 L 453.5 174 L 448.5 168 Z " /><path fill="rgb(102,102,102)" stroke="rgb(102,102,102)" stroke-width="1" opacity="0.996078431372549" d="M 83.5 174 L 84 223.5 L 83 223.5 L 83.5 174 Z " /><path fill="rgb(102,102,102)" stroke="rgb(102,102,102)" stroke-width="1" opacity="0.996078431372549" d="M 132.5 174 L 133 223.5 L 132 223.5 L 132.5 174 Z " /><path fill="rgb(102,102,102)" stroke="rgb(102,102,102)" stroke-width="1" opacity="0.996078431372549" d="M 172.5 174 L 173 223.5 L 172 223.5 L 172.5 174 Z " /><path fill="rgb(102,102,102)" stroke="rgb(102,102,102)" stroke-width="1" opacity="0.996078431372549" d="M 181.5 174 L 182 223.5 L 181 223.5 L 181.5 174 Z " /><path fill="rgb(102,102,102)" stroke="rgb(102,102,102)" stroke-width="1" opacity="0.996078431372549" d="M 230.5 174 L 231 330.5 L 230 330.5 L 230.5 174 Z " /><path fill="rgb(102,102,102)" stroke="rgb(102,102,102)" stroke-width="1" opacity="0.996078431372549" d="M 270.5 174 L 271 330.5 L 270 330.5 L 270.5 174 Z " /><path fill="rgb(102,102,102)" stroke="rgb(102,102,102)" stroke-width="1" opacity="0.996078431372549" d="M 279.5 174 L 280 223.5 L 279 223.5 L 279.5 174 Z " /><path fill="rgb(102,102,102)" stroke="rgb(102,102,102)" stroke-width="1" opacity="0.996078431372549" d="M 319.5 174 L 320 223.5 L 319 223.5 L 319.5 174 Z " /><path fill="rgb(102,102,102)" stroke="rgb(102,102,102)" stroke-width="1" opacity="0.996078431372549" d="M 328.5 174 L 329 223.5 L 328 223.5 L 328.5 174 Z " /><path fill="rgb(102,102,102)" stroke="rgb(102,102,102)" stroke-width="1" opacity="0.996078431372549" d="M 368.5 174 L 369 223.5 L 368 223.5 L 368.5 174 Z " /><path fill="rgb(102,102,102)" stroke="rgb(102,102,102)" stroke-width="1" opacity="0.996078431372549" d="M 377.5 174 L 378 223.5 L 377 223.5 L 377.5 174 Z " /><path fill="rgb(102,102,102)" stroke="rgb(102,102,102)" stroke-width="1" opacity="0.996078431372549" d="M 480.5 175 L 498 175.5 L 480.5 176 L 480.5 175 Z " /><path fill="rgb(102,102,102)" stroke="rgb(102,102,102)" stroke-width="1" opacity="0.996078431372549" d="M 444.5 176 L 446.5 179 L 444.5 176 Z " /><path fill="rgb(102,102,102)" stroke="rgb(102,102,102)" stroke-width="1" opacity="0.996078431372549" d="M 447.5 180 L 448.5 182 L 447.5 180 Z " /><path fill="rgb(102,102,102)" stroke="rgb(102,102,102)" stroke-width="1" opacity="0.996078431372549" d="M 279.5 233 L 280 244.5 L 279 244.5 L 279.5 233 Z " /><path fill="rgb(102,102,102)" stroke="rgb(102,102,102)" stroke-width="1" opacity="0.996078431372549" d="M 478.5 246 L 479.5 248 L 478.5 246 Z " /><path fill="rgb(102,102,102)" stroke="rgb(102,102,102)" stroke-width="1" opacity="0.996078431372549" d="M 485.5 251 L 486.5 253 L 485.5 251 Z " /><path fill="rgb(102,102,102)" stroke="rgb(102,102,102)" stroke-width="1" opacity="0.996078431372549" d="M 488.5 253 L 489.5 255 L 488.5 253 Z " /><path fill="rgb(102,102,102)" stroke="rgb(102,102,102)" stroke-width="1" opacity="0.996078431372549" d="M 279.5 254 L 280 331 L 361 331.5 L 279 332 L 279.5 254 Z " /><path fill="rgb(102,102,102)" stroke="rgb(102,102,102)" stroke-width="1" opacity="0.996078431372549" d="M 474.5 254 L 475.5 256 L 474.5 254 Z " /><path fill="rgb(102,102,102)" stroke="rgb(102,102,102)" stroke-width="1" opacity="0.996078431372549" d="M 477.5 256 L 478.5 258 L 477.5 256 Z " /><path fill="rgb(102,102,102)" stroke="rgb(102,102,102)" stroke-width="1" opacity="0.996078431372549" d="M 492.5 256 L 493.5 258 L 492.5 256 Z " /><path fill="rgb(102,102,102)" stroke="rgb(102,102,102)" stroke-width="1" opacity="0.996078431372549" d="M 495.5 258 L 498 258.5 Q 498.8 260.8 496.5 260 L 495.5 258 Z " /><path fill="rgb(102,102,102)" stroke="rgb(102,102,102)" stroke-width="1" opacity="0.996078431372549" d="M 484.5 261 L 485.5 263 L 484.5 261 Z " /><path fill="rgb(102,102,102)" stroke="rgb(102,102,102)" stroke-width="1" opacity="0.996078431372549" d="M 501.5 273 L 502 299 L 498 298.5 L 501 298 L 501.5 273 Z " /><path fill="rgb(102,102,102)" stroke="rgb(102,102,102)" stroke-width="1" opacity="0.996078431372549" d="M 102.5 288 L 106 288.5 L 102.5 289 L 102.5 288 Z " /><path fill="rgb(102,102,102)" stroke="rgb(102,102,102)" stroke-width="1" opacity="0.996078431372549" d="M 108.5 288 L 112 288.5 L 108.5 289 L 108.5 288 Z " /><path fill="rgb(102,102,102)" stroke="rgb(102,102,102)" stroke-width="1" opacity="0.996078431372549" d="M 80.5 296 L 79.5 298 L 80.5 296 Z " /><path fill="rgb(102,102,102)" stroke="rgb(102,102,102)" stroke-width="1" opacity="0.996078431372549" d="M 433.5 296 L 434.5 298 L 433.5 296 Z " /><path fill="rgb(102,102,102)" stroke="rgb(102,102,102)" stroke-width="1" opacity="0.996078431372549" d="M 379.5 298 L 378.5 300 L 379.5 298 Z " /><path fill="rgb(102,102,102)" stroke="rgb(102,102,102)" stroke-width="1" opacity="0.996078431372549" d="M 76.5 299 L 70.5 306 L 76.5 299 Z " /><path fill="rgb(102,102,102)" stroke="rgb(102,102,102)" stroke-width="1" opacity="0.996078431372549" d="M 437.5 299 L 444.5 307 L 437.5 299 Z " /><path fill="rgb(102,102,102)" stroke="rgb(102,102,102)" stroke-width="1" opacity="0.996078431372549" d="M 138.5 300 L 141.5 304 L 138.5 300 Z " /><path fill="rgb(102,102,102)" stroke="rgb(102,102,102)" stroke-width="1" opacity="0.996078431372549" d="M 426.5 302 L 427.5 304 L 426.5 302 Z " /><path fill="rgb(102,102,102)" stroke="rgb(102,102,102)" stroke-width="1" opacity="0.996078431372549" d="M 488.5 302 L 490.5 305 L 488.5 302 Z " /><path fill="rgb(102,102,102)" stroke="rgb(102,102,102)" stroke-width="1" opacity="0.996078431372549" d="M 85.5 303 L 84.5 305 L 85.5 303 Z " /><path fill="rgb(102,102,102)" stroke="rgb(102,102,102)" stroke-width="1" opacity="0.996078431372549" d="M 129.5 304 L 130.5 306 L 129.5 304 Z " /><path fill="rgb(102,102,102)" stroke="rgb(102,102,102)" stroke-width="1" opacity="0.996078431372549" d="M 429.5 304 L 430.5 306 L 429.5 304 Z " /><path fill="rgb(102,102,102)" stroke="rgb(102,102,102)" stroke-width="1" opacity="0.996078431372549" d="M 89.5 305 L 88.5 307 L 89.5 305 Z " /><path fill="rgb(102,102,102)" stroke="rgb(102,102,102)" stroke-width="1" opacity="0.996078431372549" d="M 384.5 305 L 381.5 309 L 384.5 305 Z " /><path fill="rgb(102,102,102)" stroke="rgb(102,102,102)" stroke-width="1" opacity="0.996078431372549" d="M 390.5 305 L 389.5 307 L 390.5 305 Z " /><path fill="rgb(102,102,102)" stroke="rgb(102,102,102)" stroke-width="1" opacity="0.996078431372549" d="M 125.5 306 L 126.5 308 L 125.5 306 Z " /><path fill="rgb(102,102,102)" stroke="rgb(102,102,102)" stroke-width="1" opacity="0.996078431372549" d="M 371.5 306 L 369.5 309 L 371.5 306 Z " /><path fill="rgb(102,102,102)" stroke="rgb(102,102,102)" stroke-width="1" opacity="0.996078431372549" d="M 426.5 306 L 427.5 308 L 426.5 306 Z " /><path fill="rgb(102,102,102)" stroke="rgb(102,102,102)" stroke-width="1" opacity="0.996078431372549" d="M 80.5 307 L 78.5 310 L 80.5 307 Z " /><path fill="rgb(102,102,102)" stroke="rgb(102,102,102)" stroke-width="1" opacity="0.996078431372549" d="M 86.5 307 L 84.5 310 L 86.5 307 Z " /><path fill="rgb(102,102,102)" stroke="rgb(102,102,102)" stroke-width="1" opacity="0.996078431372549" d="M 144.5 307 L 145.5 309 L 144.5 307 Z " /><path fill="rgb(102,102,102)" stroke="rgb(102,102,102)" stroke-width="1" opacity="0.996078431372549" d="M 387.5 307 L 385.5 310 L 387.5 307 Z " /><path fill="rgb(102,102,102)" stroke="rgb(102,102,102)" stroke-width="1" opacity="0.996078431372549" d="M 499.5 307 L 502 307.5 L 499.5 308 L 499.5 307 Z " /><path fill="rgb(102,102,102)" stroke="rgb(102,102,102)" stroke-width="1" opacity="0.996078431372549" d="M 68.5 308 L 67.5 310 L 68.5 308 Z " /><path fill="rgb(102,102,102)" stroke="rgb(102,102,102)" stroke-width="1" opacity="0.996078431372549" d="M 434.5 308 L 435.5 310 L 434.5 308 Z " /><path fill="rgb(102,102,102)" stroke="rgb(102,102,102)" stroke-width="1" opacity="0.996078431372549" d="M 129.5 309 L 132.5 313 L 129.5 309 Z " /><path fill="rgb(102,102,102)" stroke="rgb(102,102,102)" stroke-width="1" opacity="0.996078431372549" d="M 430.5 309 L 433.5 313 L 430.5 309 Z " /><path fill="rgb(102,102,102)" stroke="rgb(102,102,102)" stroke-width="1" opacity="0.996078431372549" d="M 368.5 310 L 367.5 312 L 368.5 310 Z " /><path fill="rgb(102,102,102)" stroke="rgb(102,102,102)" stroke-width="1" opacity="0.996078431372549" d="M 379.5 310 L 377.5 313 L 379.5 310 Z " /><path fill="rgb(102,102,102)" stroke="rgb(102,102,102)" stroke-width="1" opacity="0.996078431372549" d="M 136.5 311 L 137.5 313 L 136.5 311 Z " /><path fill="rgb(102,102,102)" stroke="rgb(102,102,102)" stroke-width="1" opacity="0.996078431372549" d="M 76.5 312 L 75.5 314 L 76.5 312 Z " /><path fill="rgb(102,102,102)" stroke="rgb(102,102,102)" stroke-width="1" opacity="0.996078431372549" d="M 81.5 312 L 79.5 315 L 81.5 312 Z " /><path fill="rgb(102,102,102)" stroke="rgb(102,102,102)" stroke-width="1" opacity="0.996078431372549" d="M 381.5 313 L 380.5 315 L 381.5 313 Z " /><path fill="rgb(102,102,102)" stroke="rgb(102,102,102)" stroke-width="1" opacity="0.996078431372549" d="M 438.5 313 L 439.5 315 L 438.5 313 Z " /><path fill="rgb(102,102,102)" stroke="rgb(102,102,102)" stroke-width="1" opacity="0.996078431372549" d="M 121.5 314 L 122.5 316 L 121.5 314 Z " /><path fill="rgb(102,102,102)" stroke="rgb(102,102,102)" stroke-width="1" opacity="0.996078431372549" d="M 422.5 314 L 423.5 316 L 422.5 314 Z " /><path fill="rgb(102,102,102)" stroke="rgb(102,102,102)" stroke-width="1" opacity="0.996078431372549" d="M 74.5 315 L 73.5 317 L 74.5 315 Z " /><path fill="rgb(102,102,102)" stroke="rgb(102,102,102)" stroke-width="1" opacity="0.996078431372549" d="M 90.5 315 L 86.5 320 L 90.5 315 Z " /><path fill="rgb(102,102,102)" stroke="rgb(102,102,102)" stroke-width="1" opacity="0.996078431372549" d="M 134.5 315 L 135.5 317 L 134.5 315 Z " /><path fill="rgb(102,102,102)" stroke="rgb(102,102,102)" stroke-width="1" opacity="0.996078431372549" d="M 391.5 315 L 387.5 320 L 391.5 315 Z " /><path fill="rgb(102,102,102)" stroke="rgb(102,102,102)" stroke-width="1" opacity="0.996078431372549" d="M 435.5 315 L 436.5 317 L 435.5 315 Z " /><path fill="rgb(102,102,102)" stroke="rgb(102,102,102)" stroke-width="1" opacity="0.996078431372549" d="M 26.5 316 L 35 316.5 L 26.5 317 L 26.5 316 Z " /><path fill="rgb(102,102,102)" stroke="rgb(102,102,102)" stroke-width="1" opacity="0.996078431372549" d="M 427.5 319 L 428.5 321 L 427.5 319 Z " /><path fill="rgb(102,102,102)" stroke="rgb(102,102,102)" stroke-width="1" opacity="0.996078431372549" d="M 0.5 322 L 1 324.5 L 0 324.5 L 0.5 322 Z " /><path fill="rgb(102,102,102)" stroke="rgb(102,102,102)" stroke-width="1" opacity="0.996078431372549" d="M 510.5 322 L 511 324.5 L 510 324.5 L 510.5 322 Z " /><path fill="rgb(102,102,102)" stroke="rgb(102,102,102)" stroke-width="1" opacity="0.996078431372549" d="M 414.5 323 L 415.5 325 L 414.5 323 Z " /><path fill="rgb(102,102,102)" stroke="rgb(102,102,102)" stroke-width="1" opacity="0.996078431372549" d="M 98.5 324 L 95.5 328 L 98.5 324 Z " /><path fill="rgb(102,102,102)" stroke="rgb(102,102,102)" stroke-width="1" opacity="0.996078431372549" d="M 399.5 324 L 396.5 328 L 399.5 324 Z " /><path fill="rgb(102,102,102)" stroke="rgb(102,102,102)" stroke-width="1" opacity="0.996078431372549" d="M 105.5 330 L 108 330.5 L 105.5 331 L 105.5 330 Z " /><path fill="rgb(102,102,102)" stroke="rgb(102,102,102)" stroke-width="1" opacity="0.996078431372549" d="M 81.5 331 L 82 333.5 L 81 333.5 L 81.5 331 Z " /><path fill="rgb(102,102,102)" stroke="rgb(102,102,102)" stroke-width="1" opacity="0.996078431372549" d="M 109.5 331 L 110.5 333 L 109.5 331 Z " /><path fill="rgb(102,102,102)" stroke="rgb(102,102,102)" stroke-width="1" opacity="0.996078431372549" d="M 404.5 331 L 403.5 333 L 404.5 331 Z " /><path fill="rgb(102,102,102)" stroke="rgb(102,102,102)" stroke-width="1" opacity="0.996078431372549" d="M 410.5 331 L 411.5 333 L 410.5 331 Z " /><path fill="rgb(102,102,102)" stroke="rgb(102,102,102)" stroke-width="1" opacity="0.996078431372549" d="M 454.5 331 L 493 331.5 L 454.5 332 L 454.5 331 Z " /><path fill="rgb(102,102,102)" stroke="rgb(102,102,102)" stroke-width="1" opacity="0.996078431372549" d="M 72.5 332 L 73 338.5 L 72 338.5 L 72.5 332 Z " /><path fill="rgb(102,102,102)" stroke="rgb(102,102,102)" stroke-width="1" opacity="0.996078431372549" d="M 373.5 332 L 374 338.5 L 373 338.5 L 373.5 332 Z " /><path fill="rgb(102,102,102)" stroke="rgb(102,102,102)" stroke-width="1" opacity="0.996078431372549" d="M 4.5 333 L 7.5 337 L 4.5 333 Z " /><path fill="rgb(102,102,102)" stroke="rgb(102,102,102)" stroke-width="1" opacity="0.996078431372549" d="M 506.5 333 L 503.5 337 L 506.5 333 Z " /><path fill="rgb(102,102,102)" stroke="rgb(102,102,102)" stroke-width="1" opacity="0.996078431372549" d="M 111.5 334 L 112 336.5 L 111 336.5 L 111.5 334 Z " /><path fill="rgb(102,102,102)" stroke="rgb(102,102,102)" stroke-width="1" opacity="0.996078431372549" d="M 110.5 338 L 109.5 340 L 110.5 338 Z " /><path fill="rgb(102,102,102)" stroke="rgb(102,102,102)" stroke-width="1" opacity="0.996078431372549" d="M 395.5 341 L 396.5 343 L 395.5 341 Z " /><path fill="rgb(102,102,102)" stroke="rgb(102,102,102)" stroke-width="1" opacity="0.996078431372549" d="M 117.5 343 L 114.5 347 L 117.5 343 Z " /><path fill="rgb(102,102,102)" stroke="rgb(102,102,102)" stroke-width="1" opacity="0.996078431372549" d="M 418.5 343 L 415.5 347 L 418.5 343 Z " /><path fill="rgb(102,102,102)" stroke="rgb(102,102,102)" stroke-width="1" opacity="0.996078431372549" d="M 85.5 349 L 86.5 351 L 85.5 349 Z " /><path fill="rgb(102,102,102)" stroke="rgb(102,102,102)" stroke-width="1" opacity="0.996078431372549" d="M 126.5 351 L 122.5 356 L 126.5 351 Z " /><path fill="rgb(102,102,102)" stroke="rgb(102,102,102)" stroke-width="1" opacity="0.996078431372549" d="M 427.5 351 L 423.5 356 L 427.5 351 Z " /><path fill="rgb(102,102,102)" stroke="rgb(102,102,102)" stroke-width="1" opacity="0.996078431372549" d="M 437.5 352 L 436.5 354 L 437.5 352 Z " /><path fill="rgb(102,102,102)" stroke="rgb(102,102,102)" stroke-width="1" opacity="0.996078431372549" d="M 77.5 353 L 78.5 355 L 77.5 353 Z " /><path fill="rgb(102,102,102)" stroke="rgb(102,102,102)" stroke-width="1" opacity="0.996078431372549" d="M 378.5 353 L 379.5 355 L 378.5 353 Z " /><path fill="rgb(102,102,102)" stroke="rgb(102,102,102)" stroke-width="1" opacity="0.996078431372549" d="M 91.5 355 L 92.5 357 L 91.5 355 Z " /><path fill="rgb(102,102,102)" stroke="rgb(102,102,102)" stroke-width="1" opacity="0.996078431372549" d="M 134.5 355 L 133.5 357 L 134.5 355 Z " /><path fill="rgb(102,102,102)" stroke="rgb(102,102,102)" stroke-width="1" opacity="0.996078431372549" d="M 435.5 355 L 433.5 358 L 435.5 355 Z " /><path fill="rgb(102,102,102)" stroke="rgb(102,102,102)" stroke-width="1" opacity="0.996078431372549" d="M 421.5 356 L 420.5 358 L 421.5 356 Z " /><path fill="rgb(102,102,102)" stroke="rgb(102,102,102)" stroke-width="1" opacity="0.996078431372549" d="M 80.5 357 L 84.5 362 L 80.5 357 Z " /><path fill="rgb(102,102,102)" stroke="rgb(102,102,102)" stroke-width="1" opacity="0.996078431372549" d="M 381.5 357 L 385.5 362 L 381.5 357 Z " /><path fill="rgb(102,102,102)" stroke="rgb(102,102,102)" stroke-width="1" opacity="0.996078431372549" d="M 429.5 361 L 428.5 363 L 429.5 361 Z " /><path fill="rgb(102,102,102)" stroke="rgb(102,102,102)" stroke-width="1" opacity="0.996078431372549" d="M 127.5 362 L 126.5 364 L 127.5 362 Z " /><path fill="rgb(102,102,102)" stroke="rgb(102,102,102)" stroke-width="1" opacity="0.996078431372549" d="M 87.5 363 L 88.5 365 L 87.5 363 Z " /><path fill="rgb(102,102,102)" stroke="rgb(102,102,102)" stroke-width="1" opacity="0.996078431372549" d="M 388.5 363 L 389.5 365 L 388.5 363 Z " /><path fill="rgb(102,102,102)" stroke="rgb(102,102,102)" stroke-width="1" opacity="0.996078431372549" d="M 124.5 364 L 123.5 366 L 124.5 364 Z " /><path fill="rgb(102,102,102)" stroke="rgb(102,102,102)" stroke-width="1" opacity="0.996078431372549" d="M 102.5 369 L 105 369.5 L 102.5 370 L 102.5 369 Z " /><path fill="rgb(102,102,102)" stroke="rgb(102,102,102)" stroke-width="1" opacity="0.996078431372549" d="M 404.5 369 L 411 369.5 L 404.5 370 L 404.5 369 Z " /><path fill="rgb(102,102,102)" stroke="rgb(102,102,102)" stroke-width="1" opacity="1" d="M 21.5 142 L 436.5 142 L 437.5 143 L 448.5 144 L 459.5 149 L 472 160.5 L 476.5 167 L 503.5 167 L 504 168.5 L 511 187 L 503.5 190 L 498 175 L 480 175.5 L 511 271.5 L 511 321.5 L 508 331.5 L 502.5 337 L 496.5 340 L 446 340 Q 446.8 318 434.5 308 Q 428.5 302 419.5 299 Q 411.6 296.4 399.5 298 Q 384.9 301.9 377 312.5 L 370 327.5 L 370 340 L 145.5 340 L 145 339.5 L 145 329.5 Q 141.6 312.4 129.5 304 Q 119.9 296.1 101.5 297 Q 86.3 299.8 78 309.5 L 70 323.5 L 69 340 L 14.5 340 Q 6.6 337.9 3 331.5 L 0 321.5 L 0 161.5 L 2 153.5 L 7.5 147 L 12.5 144 L 21.5 142 Z M 19 151 L 14 153 L 9 159 L 9 245 L 222 245 L 222 234 L 222 233 L 26 233 L 26 165 L 441 165 L 448 168 L 455 176 L 461 188 L 474 231 L 474 233 L 280 233 L 279 234 L 279 245 L 476 245 L 498 260 L 473 180 L 462 161 L 452 154 L 441 151 L 19 151 Z M 35 174 L 35 224 L 40 224 L 40 205 L 49 205 L 49 224 L 75 224 L 75 174 L 35 174 Z M 83 174 L 83 224 L 89 224 L 89 224 L 89 205 L 98 205 L 98 224 L 124 224 L 124 174 L 83 174 Z M 132 174 L 132 224 L 138 224 L 138 224 L 138 205 L 147 205 L 147 224 L 173 224 L 173 174 L 132 174 Z M 181 174 L 181 224 L 187 224 L 187 224 L 187 205 L 196 205 L 196 224 L 222 224 L 222 174 L 181 174 Z M 230 174 L 230 331 L 231 331 L 271 331 L 271 175 L 271 174 L 230 174 Z M 279 174 L 279 224 L 285 224 L 285 224 L 285 205 L 294 205 L 294 224 L 320 224 L 320 174 L 279 174 Z M 328 174 L 328 224 L 334 224 L 334 224 L 334 205 L 343 205 L 343 224 L 369 224 L 369 174 L 328 174 Z M 377 174 L 377 224 L 463 224 L 452 188 L 447 179 L 441 174 L 377 174 Z M 9 254 L 9 325 L 10 327 L 15 331 L 60 331 Q 62 317 69 308 L 83 295 L 98 289 L 106 289 L 107 288 L 116 289 L 126 292 L 136 298 Q 148 308 153 326 Q 152 331 154 331 L 222 331 L 222 254 L 9 254 Z M 279 254 L 279 332 L 361 332 Q 363 315 372 306 Q 382 292 403 289 L 419 290 L 436 298 Q 452 309 454 332 L 493 332 L 497 331 L 502 325 L 502 307 L 493 306 L 487 301 L 486 297 L 486 263 L 475 254 L 279 254 Z M 496 269 L 495 298 L 499 299 L 502 299 L 502 273 L 496 269 Z " /><path fill="rgb(102,102,102)" stroke="rgb(102,102,102)" stroke-width="1" opacity="1" d="M 26 271 L 35 271 L 35 286 L 26 286 L 26 271 Z " /><path fill="rgb(102,102,102)" stroke="rgb(102,102,102)" stroke-width="1" opacity="1" d="M 26 301 L 35 301 L 35 316 L 26 316 L 26 301 Z " /><path fill="rgb(102,102,102)" stroke="rgb(102,102,102)" stroke-width="1" opacity="1" d="M 102.5 301 L 111.5 301 L 118.5 303 Q 128.2 306.8 134 314.5 Q 141.9 323.1 141 340.5 Q 138 354.5 128.5 362 Q 120.4 369.4 105.5 370 L 95.5 368 L 89.5 365 L 79 355.5 L 73 342.5 L 73 328.5 Q 75.9 316.9 83.5 310 Q 90.6 303.1 102.5 301 Z M 101 310 L 91 315 Q 83 320 81 332 L 82 344 L 85 350 Q 91 358 103 361 Q 116 362 123 356 Q 129 351 132 342 L 132 329 L 128 321 Q 121 308 101 310 Z " /><path fill="rgb(102,102,102)" stroke="rgb(102,102,102)" stroke-width="1" opacity="1" d="M 403.5 301 L 411.5 301 L 419.5 303 Q 429.2 306.8 435 314.5 Q 442.7 322.8 442 339.5 Q 439.4 353.4 430.5 361 L 418.5 368 Q 411.4 370.4 400.5 369 Q 387 365.5 380 355.5 L 374 342.5 L 374 328.5 Q 376.9 316.9 384.5 310 L 395.5 303 L 403.5 301 Z M 402 310 L 392 315 Q 384 320 382 332 L 383 344 L 389 354 L 404 361 Q 417 362 424 356 Q 430 351 433 342 Q 435 327 429 321 Q 422 308 402 310 Z " /><path fill="rgb(102,102,102)" stroke="rgb(102,102,102)" stroke-width="1" opacity="1" d="M 103.5 322 L 110.5 322 L 118 327.5 Q 121.2 330.8 120 338.5 Q 118.6 344.6 113.5 347 Q 110.6 349.6 104.5 349 L 96 343.5 L 93 334.5 Q 94.1 327.1 99.5 324 L 103.5 322 Z M 106 330 L 103 331 L 102 338 Q 103 341 110 340 L 112 337 L 111 333 L 106 330 Z " /><path fill="rgb(102,102,102)" stroke="rgb(102,102,102)" stroke-width="1" opacity="1" d="M 404.5 322 L 411.5 322 L 419 327.5 Q 422.2 330.8 421 338.5 L 414.5 347 Q 411.6 349.6 405.5 349 Q 399.8 347.8 397 343.5 Q 393.3 340.7 394 333.5 Q 395.8 326.3 401.5 323 L 404.5 322 Z M 407 330 L 403 333 Q 402 339 406 340 L 412 339 L 413 336 L 412 333 L 407 330 Z " /></svg>