<svg width="68" height="68" viewBox="0 0 68 68" fill="none" xmlns="http://www.w3.org/2000/svg">
<g id="Frame" clip-path="url(#clip0_2999_8283)">
<path id="Vector" d="M22.6667 19.8333C22.6667 22.8391 23.8608 25.7218 25.9862 27.8472C28.1116 29.9726 30.9943 31.1667 34.0001 31.1667C37.0059 31.1667 39.8885 29.9726 42.014 27.8472C44.1394 25.7218 45.3334 22.8391 45.3334 19.8333C45.3334 16.8275 44.1394 13.9449 42.014 11.8195C39.8885 9.69404 37.0059 8.5 34.0001 8.5C30.9943 8.5 28.1116 9.69404 25.9862 11.8195C23.8608 13.9449 22.6667 16.8275 22.6667 19.8333Z" stroke="#f4ab67" stroke-width="2" stroke-linecap="round" stroke-linejoin="round"/>
<path id="Vector_2" d="M17 59.5V53.8333C17 50.8275 18.194 47.9449 20.3195 45.8195C22.4449 43.694 25.3275 42.5 28.3333 42.5H39.6667C42.6725 42.5 45.5551 43.694 47.6805 45.8195C49.806 47.9449 51 50.8275 51 53.8333V59.5" stroke="#f4ab67" stroke-width="2" stroke-linecap="round" stroke-linejoin="round"/>
</g>
<defs>
<clipPath id="clip0_2999_8283">
<rect width="68" height="68" fill="white"/>
</clipPath>
</defs>
</svg>
