<svg width="68" height="68" viewBox="0 0 68 68" fill="none" xmlns="http://www.w3.org/2000/svg">
<g id="Frame" clip-path="url(#clip0_2999_8294)">
<path id="Vector" d="M17 11.3333H14.1667C12.6638 11.3333 11.2224 11.9303 10.1597 12.993C9.09702 14.0557 8.5 15.4971 8.5 17V26.9166C8.5 31.0496 10.1418 35.0133 13.0643 37.9357C15.9867 40.8582 19.9504 42.5 24.0833 42.5C28.2163 42.5 32.18 40.8582 35.1024 37.9357C38.0249 35.0133 39.6667 31.0496 39.6667 26.9166V17C39.6667 15.4971 39.0696 14.0557 38.0069 12.993C36.9442 11.9303 35.5029 11.3333 34 11.3333H31.1667" stroke="#666666" stroke-width="2" stroke-linecap="round" stroke-linejoin="round"/>
<path id="Vector_2" d="M22.6667 42.5C22.6667 44.7325 23.1065 46.9431 23.9608 49.0056C24.8151 51.0682 26.0673 52.9422 27.6459 54.5208C29.2245 56.0994 31.0986 57.3516 33.1611 58.206C35.2237 59.0603 37.4343 59.5 39.6667 59.5C41.8992 59.5 44.1098 59.0603 46.1724 58.206C48.2349 57.3516 50.109 56.0994 51.6876 54.5208C53.2662 52.9422 54.5184 51.0682 55.3727 49.0056C56.227 46.9431 56.6667 44.7325 56.6667 42.5V34" stroke="#666666" stroke-width="2" stroke-linecap="round" stroke-linejoin="round"/>
<path id="Vector_3" d="M31.1667 8.5V14.1667" stroke="#666666" stroke-width="2" stroke-linecap="round" stroke-linejoin="round"/>
<path id="Vector_4" d="M17 8.5V14.1667" stroke="#666666" stroke-width="2" stroke-linecap="round" stroke-linejoin="round"/>
<path id="Vector_5" d="M51 28.3334C51 29.8362 51.597 31.2776 52.6597 32.3403C53.7224 33.403 55.1638 34 56.6667 34C58.1696 34 59.6109 33.403 60.6736 32.3403C61.7363 31.2776 62.3333 29.8362 62.3333 28.3334C62.3333 26.8305 61.7363 25.3891 60.6736 24.3264C59.6109 23.2637 58.1696 22.6667 56.6667 22.6667C55.1638 22.6667 53.7224 23.2637 52.6597 24.3264C51.597 25.3891 51 26.8305 51 28.3334Z" stroke="#666666" stroke-width="2" stroke-linecap="round" stroke-linejoin="round"/>
</g>
<defs>
<clipPath id="clip0_2999_8294">
<rect width="68" height="68" fill="white"/>
</clipPath>
</defs>
</svg>
