<svg width="68" height="68" viewBox="0 0 68 68" fill="none" xmlns="http://www.w3.org/2000/svg">
<g id="Frame" clip-path="url(#clip0_2999_8288)">
<path id="Vector" d="M22.6667 19.8333C22.6667 22.8391 23.8608 25.7218 25.9862 27.8472C28.1116 29.9726 30.9943 31.1667 34.0001 31.1667C37.0059 31.1667 39.8885 29.9726 42.014 27.8472C44.1394 25.7218 45.3334 22.8391 45.3334 19.8333C45.3334 16.8275 44.1394 13.9449 42.014 11.8195C39.8885 9.69404 37.0059 8.5 34.0001 8.5C30.9943 8.5 28.1116 9.69404 25.9862 11.8195C23.8608 13.9449 22.6667 16.8275 22.6667 19.8333Z" stroke="#ff8383" stroke-width="2" stroke-linecap="round" stroke-linejoin="round"/>
<path id="Vector_2" d="M17 59.5V53.8333C17 50.8275 18.194 47.9449 20.3195 45.8195C22.4449 43.694 25.3275 42.5 28.3333 42.5H29.75" stroke="#ff8383" stroke-width="2" stroke-linecap="round" stroke-linejoin="round"/>
<path id="Vector_3" d="M50.9999 62.3334L60.4916 53.0287C61.0737 52.4639 61.5367 51.7882 61.8533 51.0415C62.1699 50.2947 62.3337 49.4922 62.335 48.6811C62.3363 47.87 62.1751 47.0669 61.861 46.3192C61.5468 45.5715 61.086 44.8942 60.5058 44.3275C59.3218 43.1697 57.7325 42.5199 56.0765 42.5167C54.4204 42.5136 52.8287 43.1572 51.6403 44.3105L51.0056 44.9339L50.3738 44.3105C49.1899 43.1535 47.6012 42.5043 45.9459 42.5011C44.2905 42.4979 42.6994 43.1411 41.5111 44.2935C40.9288 44.8582 40.4656 45.5337 40.1488 46.2803C39.8319 47.0269 39.6679 47.8295 39.6663 48.6405C39.6647 49.4516 39.8256 50.2547 40.1395 51.0026C40.4535 51.7504 40.9141 52.4278 41.4941 52.9947L50.9999 62.3334Z" stroke="#ff8383" stroke-width="2" stroke-linecap="round" stroke-linejoin="round"/>
</g>
<defs>
<clipPath id="clip0_2999_8288">
<rect width="68" height="68" fill="white"/>
</clipPath>
</defs>
</svg>
