<svg width="68" height="68" viewBox="0 0 68 68" fill="none" xmlns="http://www.w3.org/2000/svg">
<g id="Frame" clip-path="url(#clip0_2999_8276)">
<path id="Vector" d="M14.1667 19.8333C14.1667 22.8391 15.3608 25.7218 17.4862 27.8472C19.6116 29.9726 22.4943 31.1667 25.5001 31.1667C28.5059 31.1667 31.3885 29.9726 33.514 27.8472C35.6394 25.7218 36.8334 22.8391 36.8334 19.8333C36.8334 16.8275 35.6394 13.9449 33.514 11.8195C31.3885 9.69404 28.5059 8.5 25.5001 8.5C22.4943 8.5 19.6116 9.69404 17.4862 11.8195C15.3608 13.9449 14.1667 16.8275 14.1667 19.8333Z" stroke="#10d01c" stroke-width="2" stroke-linecap="round" stroke-linejoin="round"/>
<path id="Vector_2" d="M8.5 59.5V53.8333C8.5 50.8275 9.69404 47.9449 11.8195 45.8195C13.9449 43.694 16.8275 42.5 19.8333 42.5H31.1667C34.1725 42.5 37.0551 43.694 39.1805 45.8195C41.306 47.9449 42.5 50.8275 42.5 53.8333V59.5" stroke="#10d01c" stroke-width="2" stroke-linecap="round" stroke-linejoin="round"/>
<path id="Vector_3" d="M45.3333 8.86835C47.7711 9.49253 49.9319 10.9103 51.4749 12.8982C53.0179 14.8861 53.8555 17.331 53.8555 19.8475C53.8555 22.364 53.0179 24.8089 51.4749 26.7968C49.9319 28.7847 47.7711 30.2025 45.3333 30.8267" stroke="#10d01c" stroke-width="2" stroke-linecap="round" stroke-linejoin="round"/>
<path id="Vector_4" d="M59.5 59.5V53.8333C59.4856 51.3319 58.6441 48.9056 57.1066 46.9325C55.5691 44.9593 53.422 43.5503 51 42.925" stroke="#10d01c" stroke-width="2" stroke-linecap="round" stroke-linejoin="round"/>
</g>
<defs>
<clipPath id="clip0_2999_8276">
<rect width="68" height="68" fill="white"/>
</clipPath>
</defs>
</svg>
