<svg width="29" height="36" viewBox="0 0 29 36" fill="none" xmlns="http://www.w3.org/2000/svg">
<g id="Icons">
<path id="Path 1105" d="M26.3823 19.9388C24.9888 17.4649 23.098 15.3064 20.8292 13.5991C20.1207 13.0009 19.2959 12.556 18.4069 12.2923C17.5179 12.0287 16.5839 11.9521 15.6638 12.0673C14.7437 12.1825 13.8574 12.4871 13.0609 12.9618C12.2643 13.4365 11.5747 14.071 11.0356 14.8254C10.4964 15.5799 10.1193 16.4378 9.92818 17.3452C9.737 18.2525 9.73585 19.1896 9.9248 20.0975C10.1137 21.0053 10.4887 21.8641 11.026 22.6199C11.5633 23.3756 12.2514 24.0119 13.0468 24.4885C13.2916 24.6927 13.5227 24.913 13.7384 25.1477L16.1221 23.9607L12.4295 19.9887C12.108 19.6511 11.8567 19.2531 11.6902 18.8177C11.5237 18.3822 11.4453 17.9181 11.4595 17.4522C11.4738 16.9863 11.5803 16.5278 11.7731 16.1033C11.9658 15.6789 12.2408 15.2969 12.5823 14.9795C12.9237 14.6622 13.3248 14.4157 13.7622 14.2545C14.1996 14.0933 14.6646 14.0205 15.1304 14.0403C15.5961 14.0602 16.0533 14.1723 16.4754 14.3701C16.8975 14.568 17.2761 14.8477 17.5893 15.1929L24.4909 22.6177C24.8639 23.019 25.138 23.5017 25.2917 24.0276C25.4453 24.5534 25.4742 25.1079 25.376 25.6469C25.2778 26.1858 25.0553 26.6944 24.7261 27.1323C24.3968 27.5702 23.97 27.9252 23.4795 28.1692L15.5736 32.1008C15.4202 32.1763 15.2615 32.2405 15.0988 32.2931C14.9143 32.8977 14.6912 33.4898 14.4309 34.0658C14.1548 34.6797 13.9731 35.3318 13.8919 36H27.9564C28.8139 33.3587 29.1168 30.5688 28.8459 27.8051C28.575 25.0414 27.7363 22.3634 26.3823 19.9388Z" fill="#666666"/>
<path id="Path 1106" d="M4.75938 17.8789L2.45483 19.5978L5.38296 23.2579L6.82883 21.949L8.92756 25.0679L8.86742 20.1193L5.90448 20.9107L4.75938 17.8789Z" fill="#666666"/>
<path id="Path 1107" d="M4.88517 26.7677L8.52556 26.8097L4.44755 24.0794L3.55169 26.9371L0.47876 26.1678L0.6853 29.0105L5.20174 28.6821L4.88517 26.7677Z" fill="#666666"/>
<path id="Path 1108" d="M9.62171 30.4002L4.90665 29.0383L4.9209 32.0329L1.75537 32.2339L2.81662 34.8794L7.01967 33.1938L6.13488 31.4678L9.62171 30.4002Z" fill="#666666"/>
<path id="Path 1109" d="M6.0763 13.7701C6.34502 13.8016 6.61534 13.8174 6.8859 13.8175C8.64259 13.8067 10.3292 13.1272 11.6028 11.9172C12.8764 10.7073 13.6414 9.05765 13.7422 7.30381C13.843 5.54998 13.272 3.82359 12.1454 2.47568C11.0188 1.12776 9.42117 0.259509 7.67728 0.047481C7.40856 0.0159889 7.13824 0.000136488 6.86769 0C5.11099 0.0108448 3.42435 0.690332 2.15074 1.9003C0.877135 3.11027 0.112188 4.7599 0.0113925 6.51373C-0.0894027 8.26757 0.481562 9.99396 1.60816 11.3419C2.73477 12.6898 4.33242 13.558 6.0763 13.7701Z" fill="#666666"/>
<path id="Path 1110" d="M23.0231 27.2512C23.3708 27.0783 23.6734 26.8267 23.9068 26.5164C24.1403 26.206 24.2981 25.8455 24.3677 25.4635C24.4373 25.0815 24.4168 24.6884 24.3079 24.3157C24.1989 23.943 24.0045 23.6008 23.7401 23.3164L16.8384 15.8916C16.615 15.6516 16.3464 15.4579 16.0481 15.3216C15.7498 15.1853 15.4276 15.1091 15.0999 15.0974C14.7721 15.0856 14.4453 15.1385 14.138 15.2531C13.8307 15.3677 13.5489 15.5416 13.3089 15.765C13.0688 15.9885 12.8751 16.257 12.7388 16.5553C12.6025 16.8536 12.5263 17.1758 12.5145 17.5036C12.5028 17.8313 12.5557 18.1582 12.6703 18.4655C12.7848 18.7728 12.9588 19.0545 13.1822 19.2946L17.8095 24.2724L12.895 26.7162C12.3912 26.9671 11.987 27.3809 11.7479 27.8904C11.5089 28.3999 11.449 28.9752 11.5779 29.523C11.7068 30.0708 12.017 30.559 12.4582 30.9084C12.8994 31.2578 13.4457 31.4479 14.0084 31.4479C14.3931 31.4481 14.7725 31.3583 15.1164 31.1859L23.0231 27.2512Z" fill="#666666"/>
</g>
</svg>
