<svg width="48" height="48" viewBox="0 0 48 48" fill="none" xmlns="http://www.w3.org/2000/svg">
<g clip-path="url(#clip0_66_4979)">
    <path d="M16 14C16 16.1217 16.8429 18.1566 18.3431 19.6569C19.8434 21.1571 21.8783 22 24 22C26.1217 22 28.1566 21.1571 29.6569 19.6569C31.1571 18.1566 32 16.1217 32 14C32 11.8783 31.1571 9.84344 29.6569 8.34315C28.1566 6.84285 26.1217 6 24 6C21.8783 6 19.8434 6.84285 18.3431 8.34315C16.8429 9.84344 16 11.8783 16 14Z" stroke="#10D01C" stroke-width="2" stroke-linecap="round" stroke-linejoin="round" />
    <path d="M12 42V38C12 35.8783 12.8429 33.8434 14.3431 32.3431C15.8434 30.8429 17.8783 30 20 30H21" stroke="#10D01C" stroke-width="2" stroke-linecap="round" stroke-linejoin="round" />
    <path d="M36 44L42.7 37.432C43.1109 37.0333 43.4377 36.5563 43.6612 36.0292C43.8847 35.5021 44.0003 34.9356 44.0012 34.3631C44.0022 33.7906 43.8884 33.2237 43.6666 32.6959C43.4448 32.168 43.1196 31.69 42.71 31.29C41.8743 30.4727 40.7524 30.014 39.5834 30.0118C38.4145 30.0095 37.2909 30.4639 36.452 31.278L36.004 31.718L35.558 31.278C34.7224 30.4613 33.6009 30.003 32.4324 30.0007C31.264 29.9985 30.1408 30.4525 29.302 31.266C28.891 31.6645 28.564 32.1414 28.3404 32.6684C28.1167 33.1954 28.0009 33.7619 27.9998 34.3344C27.9986 34.907 28.1122 35.4739 28.3338 36.0018C28.5554 36.5297 28.8806 37.0078 29.29 37.408L36 44Z" stroke="#10D01C" stroke-width="2" stroke-linecap="round" stroke-linejoin="round" />
</g>
<defs>
    <clipPath id="clip0_66_4979">
    <rect width="48" height="48" fill="white" />
    </clipPath>
</defs>
</svg>