<svg width="39" height="36" viewBox="0 0 39 36" fill="none" xmlns="http://www.w3.org/2000/svg">
<g id="Icons">
<path id="Path 1111" d="M16.4029 12.6192L7.73281 8.48499C7.71315 8.6114 7.69349 8.73785 7.6785 8.86614C7.51476 10.2577 7.6356 11.6681 8.03368 13.0116C8.43176 14.355 9.09877 15.6036 9.99421 16.6813L16.1332 14.9284L16.4029 12.6192Z" fill="#666666"/>
<path id="Path 1112" d="M15.726 16.0145L10.6357 17.4678C12.4563 19.159 14.8238 20.1401 17.307 20.2322C19.7902 20.3243 22.2239 19.5214 24.1648 17.9697L16.8113 17.112C16.5328 17.079 16.2738 16.9525 16.0767 16.7531C15.8795 16.5537 15.7559 16.2933 15.726 16.0145Z" fill="#666666"/>
<path id="Path 1113" d="M25.2041 16.6081C26.0519 15.5947 26.6969 14.4276 27.1041 13.1706L25.5571 13.5826L25.2041 16.6081Z" fill="#666666"/>
<path id="Path 1114" d="M16.7045 11.0338C16.8317 10.9327 16.9778 10.8577 17.1342 10.8134C17.2906 10.769 17.4542 10.7561 17.6156 10.7753L25.045 11.6424C25.3191 11.6749 25.5746 11.798 25.7707 11.9923C25.9668 12.1865 26.0924 12.4408 26.1274 12.7146L27.8972 12.2464C27.9375 12.0273 27.9731 11.8063 27.9993 11.5825C28.3042 8.98867 27.6193 6.37527 26.0815 4.26436C24.5436 2.15346 22.2659 0.700455 19.7034 0.195628C17.141 -0.3092 14.4824 0.171308 12.2588 1.54116C10.0352 2.911 8.41019 5.06934 7.7085 7.58502L16.2831 11.6733C16.3516 11.4206 16.4993 11.1965 16.7045 11.0338Z" fill="#666666"/>
<path id="Path 1115" d="M27.5938 34.6611C30.3625 33.7458 32.9335 32.3162 35.172 30.4473C37.062 28.8617 38.3145 26.6459 38.6985 24.209C39.4092 19.1525 35.7723 15.4387 34.3096 14.1708C33.9089 13.7466 33.426 13.4084 32.8905 13.1767C32.3549 12.9451 31.7777 12.8249 31.1942 12.8234C29.9997 12.8499 28.8646 13.3495 28.0383 14.2125C27.2121 15.0755 26.7622 16.2312 26.7875 17.4257C26.7798 18.27 27.0033 19.1002 27.4338 19.8265C27.8643 20.5528 28.4853 21.1474 29.2296 21.5459C29.6241 21.9273 29.932 22.3891 30.1323 22.8999C30.0387 23.0872 29.4403 24.033 26.8821 25.2409C26.3858 24.5478 25.7517 23.9647 25.0195 23.5282C24.2873 23.0917 23.4728 22.8112 22.6271 22.7042L7.98747 20.9195C7.15388 20.8345 6.3117 20.9159 5.50985 21.1591C4.708 21.4023 3.96243 21.8023 3.31646 22.336C2.67048 22.8697 2.13696 23.5263 1.74687 24.2679C1.35678 25.0095 1.11789 25.8211 1.04407 26.6558L0 36.0001H27.4439L27.5938 34.6611Z" fill="#666666"/>
<path id="Path 1116" d="M34.4321 5.47726C30.8616 4.73282 29.1724 9.49441 29.1724 9.49441C30.4253 7.84167 38.0026 6.22169 34.4321 5.47726Z" fill="#666666"/>
<path id="Path 1117" d="M37.619 9.59925C35.6207 7.4343 32.2759 9.77248 32.2759 9.77248C33.8752 9.27057 39.6172 11.7642 37.619 9.59925Z" fill="#666666"/>
<path id="Path 1118" d="M31.271 12.0956C32.9415 12.2164 37.3744 16.6362 36.3069 13.8907C35.2394 11.1452 31.271 12.0956 31.271 12.0956Z" fill="#666666"/>
</g>
</svg>
