<svg width="29" height="36" viewBox="0 0 29 36" fill="none" xmlns="http://www.w3.org/2000/svg">
<path d="M22.5211 13.8423L21.8118 15.6193C21.6903 15.9233 21.4789 16.1844 21.2051 16.3685C20.9312 16.5526 20.6075 16.6513 20.2761 16.6517C19.9458 16.6518 19.6234 16.5521 19.3523 16.366C19.0614 16.171 18.7552 15.9991 18.4367 15.8519C17.2057 15.2784 15.8612 14.9809 14.4997 14.9809C13.1383 14.9809 11.7937 15.2784 10.5628 15.8519C10.2445 15.9991 9.93855 16.171 9.64785 16.366C9.44635 16.5045 9.21557 16.5962 8.97291 16.634C8.73025 16.6718 8.48204 16.6547 8.24704 16.5841C8.00835 16.5134 7.78912 16.39 7.60595 16.2234C7.42277 16.0567 7.28044 15.8511 7.1898 15.6222L6.48058 13.8453C5.51175 15.5043 5.09621 17.4217 5.29266 19.3264C5.48911 21.2311 6.28763 23.0268 7.57535 24.4595C8.86307 25.8922 10.5749 26.8896 12.4687 27.3106C14.3626 27.7316 16.3427 27.555 18.1292 26.8057L15.021 22.0631C13.448 21.9479 11.891 22.4389 10.6778 23.4329L9.81151 22.5379C11.026 21.5416 12.5241 20.9417 14.0991 20.8211C15.6741 20.7005 17.2482 21.0652 18.6041 21.8646L18.3644 22.3067L21.1033 24.8019C22.5216 23.3797 23.4282 21.5382 23.6843 19.5595C23.9403 17.5808 23.5317 15.5739 22.5211 13.846V13.8423Z" fill="#666666"/>
<path d="M29 35.2766C29 33.5269 28.2952 31.8488 27.0406 30.6116C25.786 29.3744 24.0844 28.6793 22.3101 28.6793H6.68987C4.91561 28.6793 3.21401 29.3744 1.95942 30.6116C0.704825 31.8488 0 33.5269 0 35.2766V36H29V35.2766Z" fill="#666666"/>
<path d="M11.2947 0.877553L10.41 0.000732422C10.1424 0.263198 8.81829 1.6315 9.03357 2.78897C9.07871 3.0227 9.18368 3.24118 9.33852 3.42366C9.49336 3.60613 9.6929 3.74656 9.91824 3.83158C11.0293 4.32016 11.325 4.7302 11.3242 4.89524C11.3242 5.0821 10.9792 5.4289 10.3422 5.70446L10.8457 6.83721C11.9442 6.36245 12.5761 5.65574 12.579 4.89888C12.579 4.05768 11.8786 3.33935 10.4299 2.70173C10.2825 2.63702 10.2744 2.58687 10.2699 2.56578C10.2073 2.22989 10.7609 1.40685 11.2969 0.878285L11.2947 0.877553Z" fill="#666666"/>
<path d="M14.7784 0.87682L13.8937 0C13.626 0.262466 12.3019 1.63077 12.5172 2.78824C12.5624 3.02197 12.6673 3.24045 12.8222 3.42292C12.977 3.6054 13.1766 3.74582 13.4019 3.83085C14.513 4.31943 14.8086 4.72947 14.8079 4.89451C14.8079 5.08136 14.4628 5.42817 13.8259 5.70372L14.3294 6.83648C15.4279 6.36172 16.0598 5.65501 16.062 4.89815C16.062 4.05695 15.3616 3.33862 13.9128 2.701C13.7654 2.63629 13.7573 2.58613 13.7529 2.56432C13.6902 2.22842 14.2439 1.40539 14.7799 0.87682H14.7784Z" fill="#666666"/>
<path d="M18.2617 0.87682L17.377 0C17.1094 0.262466 15.7853 1.63077 16.0006 2.78824C16.0458 3.02195 16.1508 3.24039 16.3056 3.42286C16.4604 3.60532 16.66 3.74576 16.8853 3.83085C17.9963 4.31943 18.292 4.72947 18.2913 4.89451C18.2913 5.08136 17.9462 5.42817 17.3092 5.70372L17.8127 6.83648C18.9113 6.36172 19.5431 5.65501 19.546 4.89815C19.546 4.05695 18.8457 3.33862 17.397 2.701C17.2495 2.63629 17.2414 2.58613 17.237 2.56432C17.1736 2.22842 17.7272 1.40539 18.2639 0.87682H18.2617Z" fill="#666666"/>
<path d="M8.61047 15.3975C8.66447 15.4144 8.72173 15.4188 8.77773 15.4103C8.83373 15.4019 8.88697 15.3808 8.93338 15.3488C9.27933 15.1162 9.64348 14.911 10.0223 14.7351C11.4225 14.0825 12.9518 13.7441 14.5004 13.7441C16.049 13.7441 17.5784 14.0825 18.9785 14.7351C19.3574 14.9109 19.7216 15.1161 20.0675 15.3488C20.1139 15.3808 20.1671 15.4019 20.2231 15.4103C20.2791 15.4188 20.3364 15.4144 20.3904 15.3975C20.4478 15.3805 20.5006 15.3509 20.5446 15.3108C20.5887 15.2708 20.6229 15.2214 20.6447 15.1663L22.0809 11.5681C22.1075 11.5015 22.1147 11.4289 22.1016 11.3585C22.0886 11.2881 22.0559 11.2227 22.0072 11.1697C21.2397 10.3205 18.9711 8.34436 14.4975 8.34436C10.0238 8.34436 7.75526 10.3205 6.98777 11.1697C6.93905 11.2227 6.9063 11.2881 6.89328 11.3585C6.88025 11.4289 6.88748 11.5015 6.91407 11.5681L8.35024 15.1663C8.37268 15.222 8.40784 15.2718 8.45297 15.3119C8.49811 15.352 8.55199 15.3813 8.61047 15.3975Z" fill="#666666"/>
<path d="M16.0471 22.3241L19.2343 27.1888C19.3291 27.3178 19.4498 27.4261 19.5889 27.5072C19.728 27.5882 19.8824 27.6403 20.0427 27.6601C20.203 27.6798 20.3658 27.6669 20.5208 27.6221C20.6758 27.5773 20.8199 27.5016 20.944 27.3997C21.0689 27.2966 21.1707 27.1692 21.2432 27.0255C21.3157 26.8817 21.3572 26.7248 21.3652 26.5644C21.3732 26.4041 21.3474 26.2438 21.2895 26.0938C21.2316 25.9437 21.1428 25.8071 21.0288 25.6925L17.5769 22.5488L16.0471 22.3241Z" fill="#666666"/>
</svg>
