<svg width="31" height="36" viewBox="0 0 31 36" fill="none" xmlns="http://www.w3.org/2000/svg">
<path d="M17.0815 14.9383C17.0677 14.9187 17.0553 14.899 17.0422 14.8794C14.7983 13.8915 12.435 13.2011 10.0122 12.8256C10.0034 12.8256 9.99691 12.8213 9.98891 12.8198C8.20405 13.2532 6.45585 13.8256 4.76036 14.5319C4.54857 15.0074 4.38867 15.5044 4.28345 16.0142C6.3204 15.48 8.4106 15.1747 10.5153 15.104C12.6999 14.9935 14.8918 14.9695 17.0815 14.9383Z" fill="#666666"/>
<path d="M15.9917 11.5294C15.1851 10.9358 14.2651 10.5144 13.2886 10.2917C12.3122 10.0689 11.3004 10.0495 10.3162 10.2347C9.33194 10.4198 8.39634 10.8056 7.56761 11.3679C6.73888 11.9302 6.03474 12.657 5.49902 13.5032C7.31817 12.7446 9.21655 12.192 11.1587 11.8559C12.7617 11.6507 14.3756 11.5417 15.9917 11.5294Z" fill="#666666"/>
<path d="M10.7763 15.9967C8.54135 16.0559 6.32193 16.3874 4.16722 16.984C4.14469 17.2166 4.13232 17.4522 4.13232 17.6906C4.13232 19.6269 4.90151 21.4839 6.27069 22.8531C7.63986 24.2223 9.49687 24.9914 11.4332 24.9914C13.3695 24.9914 15.2265 24.2223 16.5956 22.8531C17.9648 21.4839 18.734 19.6269 18.734 17.6906C18.734 17.4725 18.7231 17.2617 18.7042 17.0509L17.658 15.8361C15.3644 15.871 13.0678 15.8913 10.7763 15.9967Z" fill="#666666"/>
<path d="M16.8314 12.521C16.838 12.4359 16.8481 12.3523 16.8598 12.2687C15.4007 12.2862 13.9358 12.3247 12.4978 12.4708C14.03 12.8169 15.531 13.2889 16.9855 13.8819C16.8492 13.442 16.7969 12.9803 16.8314 12.521Z" fill="#666666"/>
<path d="M13.9474 8.65714L17.9226 4.85423L15.5235 3.9324L17.2996 1.03461L14.537 1.16037L13.3091 5.45545L15.2291 5.201L13.9474 8.65714Z" fill="#666666"/>
<path d="M18.2891 7.75121L24.7789 5.94608L22.7237 3.56227L26.3165 1.46199L23.2631 0L19.4537 3.92577L21.6732 4.76181L18.2891 7.75121Z" fill="#666666"/>
<path d="M22.0665 32.594V31.1139L29.8657 22.9541C30.3474 22.4524 30.625 21.7894 30.6446 21.0942C30.6643 20.399 30.4244 19.7214 29.9719 19.1934L22.7535 10.7224C22.5184 10.4443 22.2301 10.2159 21.9055 10.0507C21.5809 9.88557 21.2266 9.78693 20.8634 9.76061C20.7907 9.75552 20.7238 9.75263 20.654 9.75263C19.9925 9.75222 19.3535 9.99254 18.8561 10.4287C18.3006 10.9152 17.9587 11.6007 17.9042 12.3371C17.8498 13.0736 18.0873 13.8018 18.5653 14.3647L24.1399 20.9076L19.3338 25.9362H5.42565C4.70926 25.9397 4.00056 26.0844 3.3401 26.362C2.67964 26.6395 2.08035 27.0445 1.57648 27.5538C1.07261 28.063 0.674053 28.6666 0.403566 29.33C0.133079 29.9934 -0.00402606 30.7036 8.99997e-05 31.4199V36H22.0665V32.594Z" fill="#666666"/>
</svg>
