<svg width="48" height="48" viewBox="0 0 48 48" fill="none" xmlns="http://www.w3.org/2000/svg">
<g clip-path="url(#clip0_66_4965)">
    <path d="M38.9999 27.1441L23.9999 42.0001L18.2079 36.2641M5.97395 20.0561C5.95723 17.9468 6.60793 15.8862 7.83298 14.1691C9.05804 12.4519 10.7947 11.1661 12.7946 10.4956C14.7946 9.825 16.9553 9.80402 18.9679 10.4356C20.9805 11.0672 22.7418 12.319 23.9999 14.0121C24.827 12.9121 25.8722 11.9947 27.0701 11.3173C28.2681 10.6398 29.5929 10.217 30.9618 10.0751C32.3307 9.93324 33.7141 10.0755 35.0255 10.4928C36.3369 10.9102 37.548 11.5938 38.583 12.5008C39.6181 13.4078 40.4548 14.5186 41.0408 15.7638C41.6268 17.0091 41.9494 18.3618 41.9886 19.7375C42.0277 21.1131 41.7825 22.482 41.2682 23.7586C40.754 25.0351 39.9818 26.1917 38.9999 27.1561" stroke="#FF8383" stroke-width="2" stroke-linecap="round" stroke-linejoin="round" />
    <path d="M6 26H10L14 32L18 20L20 26H26" stroke="#FF8383" stroke-width="2" stroke-linecap="round" stroke-linejoin="round" />
</g>
<defs>
    <clipPath id="clip0_66_4965">
    <rect width="48" height="48" fill="white" />
    </clipPath>
</defs>
</svg>