<svg width="39" height="36" viewBox="0 0 39 36" fill="none" xmlns="http://www.w3.org/2000/svg">
<g id="Icons">
<path id="Path 1120" d="M16.0568 13.9509C16.158 13.3829 16.3803 12.8432 16.7086 12.3687C17.0369 11.8942 17.4635 11.4959 17.9594 11.2009C19.3139 10.4267 20.8743 10.089 22.4278 10.2339C22.8563 10.1824 25.6639 9.62299 27.9558 9.16305C27.7807 7.26488 27.0715 5.45513 25.9103 3.94341C24.7491 2.43169 23.1833 1.27985 21.3945 0.621283C19.6056 -0.0372848 17.6668 -0.175643 15.8025 0.222251C13.9383 0.620146 12.2249 1.538 10.8608 2.86952C9.49674 4.20104 8.53774 5.89174 8.09489 7.74582C7.65205 9.59991 7.74349 11.5415 8.35863 13.3458C8.97376 15.15 10.0874 16.7431 11.5706 17.9405C13.0538 19.138 14.8459 19.8907 16.7393 20.1116C17.0456 20.1474 17.3502 20.1666 17.6522 20.1745C16.7419 18.5512 15.6614 16.07 16.0568 13.9509Z" fill="#666666"/>
<path id="Path 1121" d="M27.9977 34.9659C30.0323 34.1637 31.9295 33.0491 33.6208 31.6625C35.5234 30.1514 36.7997 27.99 37.2043 25.5943C38.0377 19.9136 32.9837 15.9784 32.2401 15.4329C31.9683 15.1671 31.664 14.9369 31.3342 14.7478C31.3331 15.2922 31.1663 15.8234 30.8561 16.2708C30.5459 16.7182 30.1068 17.0606 29.5974 17.2526C28.885 17.4441 28.133 17.4308 27.4278 17.2142C26.555 17.0134 26.1117 16.9131 25.5366 17.9927C25.354 18.3014 25.2413 18.6462 25.2063 19.0031C25.1714 19.36 25.215 19.7202 25.3341 20.0585C25.4463 20.352 25.4678 20.6724 25.396 20.9783V20.988C25.3856 21.0176 25.3742 21.0464 25.3611 21.0752C25.8332 21.7992 26.5041 22.3716 27.2934 22.7238C27.8162 23.1537 28.2305 23.7005 28.503 24.3201C28.1826 24.7931 27.76 25.188 27.2663 25.4756C26.7495 24.8098 26.1051 24.2538 25.3708 23.8401C24.6365 23.4263 23.8271 23.1632 22.9899 23.0659L21.4311 22.8836C21.1504 22.9731 20.8582 23.0213 20.5637 23.0267C20.1507 23.0321 19.7479 22.899 19.4194 22.6488L8.11567 21.33C7.28605 21.2332 6.44548 21.3007 5.64195 21.5287C4.83843 21.7568 4.08768 22.1408 3.4326 22.659C2.77752 23.1772 2.23094 23.8194 1.82406 24.5488C1.41718 25.2783 1.15798 26.0807 1.06126 26.9104L0 36.0001H27.8842L27.9977 34.9659Z" fill="#666666"/>
<path id="Path 1122" d="M35.1663 5.49049C31.6937 4.76699 30.0503 9.39777 30.0503 9.39777C31.2686 7.7893 38.6399 6.21836 35.1663 5.49049Z" fill="#666666"/>
<path id="Path 1123" d="M38.2672 9.58372C36.3236 7.47778 33.0691 9.7522 33.0691 9.7522C34.6243 9.26696 40.2108 11.6888 38.2672 9.58372Z" fill="#666666"/>
<path id="Path 1124" d="M32.0918 12.1094C33.7168 12.2273 38.0264 16.5264 36.9905 13.8549C35.9545 11.1835 32.0918 12.1094 32.0918 12.1094Z" fill="#666666"/>
<path id="Path 1125" d="M28.7674 9.99567C27.3073 10.2924 26.1876 10.5193 25.3228 10.6869C26.498 10.9844 27.6494 11.3692 28.7674 11.838V9.99567Z" fill="#666666"/>
<path id="Path 1126" d="M22.2742 21.4845C22.8302 21.1986 23.4154 20.9736 24.0197 20.8134L24.141 20.7837L19.5565 16.7158C19.4596 16.6299 19.4008 16.5091 19.393 16.3799C19.3853 16.2506 19.4291 16.1237 19.515 16.0268C19.6009 15.9299 19.7217 15.8711 19.8509 15.8634C19.9801 15.8556 20.1072 15.8994 20.204 15.9853L24.2353 19.5636C24.168 18.8598 24.3204 18.1524 24.6716 17.5388C24.778 17.2567 24.9402 16.999 25.1487 16.7812C25.3571 16.5633 25.6073 16.3898 25.8845 16.2711C26.1616 16.1523 26.4598 16.0907 26.7613 16.0901C27.0628 16.0894 27.3613 16.1497 27.6389 16.2672C28.175 16.4431 28.7499 16.4637 29.2972 16.3266C30.4597 15.9592 30.4151 14.2808 30.3575 13.6603C29.3888 13.1602 25.3611 11.1974 21.816 11.1974C20.6465 11.156 19.4889 11.4449 18.476 12.0309C18.0942 12.2538 17.7656 12.5574 17.5131 12.9204C17.2607 13.2833 17.0903 13.697 17.0141 14.1325C16.4486 17.1295 19.505 21.289 19.5364 21.3335C19.5442 21.3449 19.5521 21.3562 19.5599 21.3675C20.1743 22.3511 20.7914 22.1809 22.2742 21.4845Z" fill="#666666"/>
</g>
</svg>
