<svg width="32" height="36" viewBox="0 0 32 36" fill="none" xmlns="http://www.w3.org/2000/svg">
<g id="Icons">
<path id="Path 1127" d="M15.6712 8.64215C15.7888 8.48934 15.9167 8.34476 16.054 8.20944C14.5034 7.56586 12.7931 7.41168 11.1523 7.76756C9.51162 8.12345 8.01887 8.97239 6.87425 10.2006C5.72964 11.4288 4.9879 12.9775 4.74833 14.6392C4.50877 16.3009 4.78286 17.9961 5.53394 19.4976C6.28502 20.9991 7.47712 22.2351 8.95049 23.04C10.4239 23.8448 12.1081 24.18 13.7774 24.0006C15.4466 23.8213 17.0212 23.1359 18.2899 22.0364C19.5587 20.9369 20.4609 19.4758 20.8759 17.849L16.4396 14.4488C15.5691 13.7796 14.9993 12.7927 14.8553 11.7042C14.7113 10.6158 15.0047 9.51464 15.6712 8.64215Z" fill="#666666"/>
<path id="Path 1128" d="M24.1976 31.1839L31.1474 20.1547C31.5531 19.5169 31.7042 18.7499 31.5709 18.0058C31.4375 17.2617 31.0295 16.5949 30.4276 16.1375L20.8009 8.7593C20.275 8.35356 19.6293 8.13358 18.9651 8.13379C18.8302 8.13379 18.6954 8.14262 18.5617 8.16021C17.968 8.23878 17.4108 8.49161 16.9608 8.88674C16.5108 9.28187 16.1881 9.80156 16.0334 10.3801C15.8787 10.9586 15.899 11.5701 16.0918 12.1371C16.2846 12.704 16.6412 13.2012 17.1164 13.5655L24.5503 19.2629L20.8823 25.0838H5.94944C5.16816 25.0838 4.39455 25.2377 3.67273 25.5367C2.95091 25.8356 2.29503 26.2739 1.74258 26.8263C1.19012 27.3788 0.751889 28.0346 0.452902 28.7565C0.153916 29.4783 0 30.2519 0 31.0332V36.0001H24.1962V31.1839H24.1976Z" fill="#666666"/>
<path id="Path 1129" d="M9.01699 3.45455C10.0052 3.89511 10.268 4.26499 10.2673 4.41351C10.2673 4.58203 9.96021 4.89478 9.39397 5.14327L9.84164 6.16507C10.8192 5.73664 11.3805 5.09971 11.3826 4.41708C11.3826 3.65876 10.76 3.01041 9.47111 2.4356C9.34115 2.37777 9.33253 2.33207 9.32825 2.31279C9.27184 2.00932 9.76457 1.26743 10.2415 0.790449L9.45612 0C9.21834 0.236349 8.04017 1.47022 8.23225 2.51415C8.27218 2.72474 8.36522 2.92165 8.50255 3.08622C8.63987 3.25079 8.81694 3.37757 9.01699 3.45455Z" fill="#666666"/>
<path id="Path 1130" d="M12.1166 3.45455C13.1048 3.89511 13.3676 4.26499 13.3669 4.41351C13.3669 4.58203 13.0605 4.89478 12.4936 5.14327L12.9413 6.16507C13.9189 5.73664 14.4801 5.09971 14.4822 4.41708C14.4822 3.65876 13.8596 3.01041 12.5707 2.4356C12.4408 2.37777 12.4322 2.33207 12.4279 2.31279C12.3715 2.00932 12.8642 1.26743 13.3412 0.790449L12.5557 0C12.3179 0.236349 11.1398 1.47022 11.3319 2.51415C11.3718 2.72474 11.4648 2.92165 11.6022 3.08622C11.7395 3.25079 11.9166 3.37757 12.1166 3.45455Z" fill="#666666"/>
<path id="Path 1131" d="M15.215 3.45455C16.2032 3.89511 16.466 4.26499 16.4653 4.41351C16.4653 4.58203 16.1582 4.89478 15.592 5.14327L16.0396 6.16507C17.0165 5.73664 17.5785 5.09971 17.5806 4.41708C17.5806 3.65876 16.958 3.01041 15.6691 2.4356C15.5392 2.37777 15.5305 2.33207 15.5262 2.31279C15.4698 2.00932 15.9626 1.26743 16.4395 0.790449L15.6541 0C15.4163 0.236349 14.2382 1.47022 14.4302 2.51415C14.4702 2.72474 14.5632 2.92165 14.7005 3.08622C14.8379 3.25079 15.0149 3.37757 15.215 3.45455Z" fill="#666666"/>
</g>
</svg>
