<svg width="48" height="48" viewBox="0 0 48 48" fill="none" xmlns="http://www.w3.org/2000/svg">
<g clip-path="url(#clip0_66_4993)">
    <path d="M20 10H28V6C28 5.46957 27.7893 4.96086 27.4142 4.58579C27.0391 4.21071 26.5304 4 26 4H22C21.4696 4 20.9609 4.21071 20.5858 4.58579C20.2107 4.96086 20 5.46957 20 6V10Z" stroke="#F4AB67" stroke-width="2" stroke-linecap="round" stroke-linejoin="round" />
    <path d="M28 7C28 10.252 29.014 13.424 30.9 16.074L31 16.214C32.9516 18.9554 34.0002 22.2369 34 25.602V38C34 39.0609 33.5786 40.0783 32.8284 40.8284C32.0783 41.5786 31.0609 42 30 42H18C16.9391 42 15.9217 41.5786 15.1716 40.8284C14.4214 40.0783 14 39.0609 14 38V25.6C14 22.236 15.048 18.956 17 16.214L17.1 16.074C18.9863 13.4243 20 10.2526 20 7" stroke="#F4AB67" stroke-width="2" stroke-linecap="round" stroke-linejoin="round" />
    <path d="M14 29.606C14.8 29.262 15.4914 28.7068 16 28C16.4543 27.367 17.0559 26.8541 17.7528 26.5057C18.4498 26.1572 19.221 25.9836 20 26C20.779 25.9836 21.5502 26.1572 22.2472 26.5057C22.9441 26.8541 23.5457 27.367 24 28C24.4543 28.6329 25.0559 29.1458 25.7528 29.4943C26.4498 29.8427 27.221 30.0163 28 30C28.779 30.0163 29.5502 29.8427 30.2472 29.4943C30.9441 29.1458 31.5457 28.6329 32 28C32.5081 27.2916 33.1995 26.7351 34 26.39" stroke="#F4AB67" stroke-width="2" stroke-linecap="round" stroke-linejoin="round" />
</g>
<defs>
    <clipPath id="clip0_66_4993">
    <rect width="48" height="48" fill="white" />
    </clipPath>
</defs>
</svg>