<svg width="37" height="36" viewBox="0 0 37 36" fill="none" xmlns="http://www.w3.org/2000/svg">
<g id="Icons">
<path id="Path 1098" d="M34.4158 19.9422C33.0225 17.4698 31.1324 15.3126 28.8646 13.6064C28.1565 13.0075 27.3319 12.5618 26.4429 12.2974C25.5539 12.0331 24.6198 11.9559 23.6995 12.0707C22.7792 12.1854 21.8927 12.4897 21.0958 12.9642C20.299 13.4388 19.6091 14.0733 19.0697 14.8278C18.5304 15.5823 18.1533 16.4404 17.9622 17.3479C17.7711 18.2554 17.7701 19.1927 17.9593 20.1007C18.1486 21.0086 18.524 21.8674 19.0618 22.623C19.5996 23.3786 20.2881 24.0146 21.084 24.4908C21.3056 24.6748 21.5158 24.8722 21.7135 25.0817L23.9603 23.9643L20.2687 19.9934C19.9538 19.6547 19.7088 19.2573 19.5475 18.824C19.3862 18.3906 19.3119 17.9297 19.3288 17.4676C19.3456 17.0055 19.4533 16.5512 19.6457 16.1308C19.8381 15.7103 20.1114 15.3318 20.4501 15.017C20.7887 14.7022 21.1861 14.4571 21.6195 14.2959C22.0528 14.1346 22.5137 14.0602 22.9758 14.0771C23.4379 14.0939 23.8921 14.2016 24.3126 14.394C24.7331 14.5864 25.1115 14.8598 25.4264 15.1984L32.3264 22.621C32.6992 23.0222 32.9734 23.5048 33.127 24.0306C33.2806 24.5563 33.3095 25.1106 33.2113 25.6495C33.1132 26.1883 32.8906 26.6969 32.5615 27.1347C32.2323 27.5725 31.8056 27.9274 31.3152 28.1713L23.4118 32.1014C23.3331 32.1423 23.2473 32.1801 23.1639 32.2124C22.9755 32.8453 22.7444 33.4648 22.4722 34.0664C22.1963 34.6802 22.0145 35.332 21.9331 36H35.9897C36.8471 33.3593 37.1499 30.57 36.879 27.8068C36.6082 25.0436 35.7696 22.3662 34.4158 19.9422Z" fill="#666666"/>
<path id="Path 1099" d="M8.81392 12.2026C5.7448 15.2985 0.602839 20.6671 1.89659 20.6671C2.17815 20.6319 2.45007 20.5418 2.69692 20.4019C3.90384 19.8766 5.05315 19.2279 6.12647 18.466C4.97122 20.6451 1.11752 28.1967 3.21475 28.1967C3.63515 28.1527 4.03805 28.005 4.38731 27.767C9.37895 24.8552 10.2643 18.2637 10.2643 18.2637C10.2643 18.2637 9.65833 26.6054 10.8057 26.6054C10.9733 26.6054 11.1787 26.4268 11.429 26.0175C12.7377 23.8762 13.1603 18.2338 13.3011 14.7161C11.5669 14.4023 9.98739 13.5175 8.81392 12.2026Z" fill="#666666"/>
<path id="Path 1100" d="M14.7255 13.8189C16.4912 13.8224 18.1912 13.1496 19.4763 11.9387C20.7614 10.7277 21.534 9.07071 21.6355 7.3079C21.7369 5.54509 21.1595 3.81037 20.0217 2.46005C18.884 1.10973 17.2724 0.246317 15.5179 0.0472153C15.2491 0.015791 14.9788 2.72651e-05 14.7081 0C12.8887 0.0215656 11.1511 0.760078 9.87295 2.05514C8.59475 3.3502 7.87907 5.09727 7.88135 6.91687C7.88363 8.73648 8.60368 10.4817 9.88512 11.7736C11.1666 13.0654 12.9059 13.7995 14.7255 13.8166V13.8189Z" fill="#666666"/>
<path id="Path 1101" d="M30.858 27.253C31.2057 27.0802 31.5084 26.8286 31.7418 26.5182C31.9752 26.2078 32.133 25.8473 32.2025 25.4652C32.2721 25.0831 32.2514 24.6901 32.1423 24.3174C32.0332 23.9447 31.8387 23.6025 31.5741 23.3183L24.6741 15.8957C24.2235 15.411 23.5988 15.1251 22.9374 15.101C22.276 15.0768 21.6321 15.3164 21.1474 15.767C20.6626 16.2176 20.3768 16.8424 20.3526 17.5038C20.3285 18.1651 20.5681 18.809 21.0187 19.2938L25.6444 24.2704L20.7315 26.71C20.2279 26.961 19.8239 27.3747 19.5849 27.884C19.346 28.3934 19.2861 28.9685 19.4151 29.5161C19.544 30.0638 19.8541 30.5519 20.2952 30.9011C20.7363 31.2504 21.2824 31.4404 21.845 31.4404C22.23 31.4407 22.6097 31.351 22.9538 31.1783L30.858 27.253Z" fill="#666666"/>
<path id="Path 1102" d="M0.845961 23.2734C0.678643 23.2734 0.515089 23.323 0.375969 23.4159C0.236849 23.5089 0.128417 23.641 0.0643868 23.7956C0.00035695 23.9502 -0.0163832 24.1203 0.0162589 24.2844C0.048901 24.4485 0.129461 24.5992 0.247772 24.7175C0.366084 24.8359 0.51682 24.9164 0.680924 24.9491C0.845027 24.9817 1.01514 24.965 1.16972 24.9009C1.3243 24.8369 1.45641 24.7285 1.54936 24.5894C1.64232 24.4502 1.69195 24.2866 1.69195 24.1193C1.69195 23.8949 1.60282 23.6798 1.44417 23.5211C1.28552 23.3625 1.07033 23.2734 0.845961 23.2734Z" fill="#666666"/>
<path id="Path 1103" d="M2.68425 13.0714C2.48798 13.0714 2.29613 13.1296 2.13294 13.2387C1.96975 13.3477 1.84255 13.5027 1.76744 13.684C1.69234 13.8653 1.67267 14.0649 1.71096 14.2574C1.74925 14.4499 1.84377 14.6267 1.98255 14.7654C2.12134 14.9042 2.29816 14.9987 2.49066 15.037C2.68316 15.0753 2.88269 15.0557 3.06402 14.9806C3.24534 14.9055 3.40033 14.7782 3.50937 14.6151C3.61841 14.4519 3.67659 14.26 3.67659 14.0637C3.67659 13.8006 3.57205 13.5482 3.38595 13.3621C3.19985 13.176 2.94744 13.0714 2.68425 13.0714Z" fill="#666666"/>
<path id="Path 1104" d="M9.7945 28.1966C9.6689 28.1966 9.54612 28.2338 9.44168 28.3036C9.33725 28.3734 9.25584 28.4726 9.20777 28.5886C9.1597 28.7047 9.14712 28.8324 9.17163 28.9555C9.19613 29.0787 9.25661 29.1919 9.34543 29.2807C9.43425 29.3695 9.54741 29.43 9.6706 29.4545C9.7938 29.4791 9.9215 29.4664 10.0375 29.4184C10.1536 29.3703 10.2528 29.289 10.3225 29.1845C10.3923 29.0801 10.4296 28.9573 10.4296 28.8317C10.4296 28.7483 10.4132 28.6657 10.3812 28.5886C10.3493 28.5116 10.3025 28.4416 10.2436 28.3826C10.1846 28.3236 10.1146 28.2769 10.0375 28.245C9.96049 28.213 9.8779 28.1966 9.7945 28.1966Z" fill="#666666"/>
</g>
</svg>
