<svg width="47" height="47" viewBox="0 0 47 47" fill="none" xmlns="http://www.w3.org/2000/svg">
<g id="Group 169">
<g id="Group 168">
<g id="Group 167">
<path id="Path 924" fill-rule="evenodd" clip-rule="evenodd" d="M46.9999 23.529C47.0041 22.9798 46.9002 22.4353 46.6942 21.9268C46.4881 21.4183 46.1841 20.9559 45.7996 20.5665C45.4151 20.177 44.9577 19.8681 44.4539 19.6577C43.9502 19.4473 43.41 19.3395 42.8646 19.3406C42.3155 19.3344 41.7706 19.4383 41.2618 19.6463C40.753 19.8542 40.2903 20.1621 39.9008 20.5519C39.5113 20.9417 39.2028 21.4057 38.9931 21.9168C38.7835 22.4279 38.6769 22.976 38.6797 23.529C38.681 24.0804 38.7903 24.6261 39.0015 25.1348C39.2127 25.6435 39.5216 26.1053 39.9104 26.4935C40.2992 26.8818 40.7603 27.1888 41.2673 27.3972C41.7742 27.6055 42.3171 27.7111 42.8646 27.7077C43.9619 27.7013 45.0122 27.2585 45.7868 26.4758C46.5614 25.6931 46.9974 24.634 46.9999 23.529ZM23.4999 19.3406C22.6883 19.3414 21.8846 19.1811 21.1347 18.8687C20.3847 18.5564 19.7032 18.0982 19.1293 17.5204C18.5555 16.9425 18.1005 16.2563 17.7903 15.5011C17.4801 14.7459 17.321 13.9365 17.3218 13.1193C17.3088 12.0094 16.8628 10.9492 16.0801 10.1677C15.2974 9.38611 14.2408 8.946 13.1386 8.94227C12.0362 8.94558 10.9793 9.38553 10.1965 10.1672C9.4137 10.9488 8.96771 12.0093 8.95511 13.1193C8.96562 14.231 9.41064 15.2939 10.1936 16.0778C10.9765 16.8617 12.0345 17.3035 13.1386 17.3077C14.7721 17.3108 16.3391 17.9589 17.5033 19.1128C18.6674 20.2667 19.3358 21.8344 19.3647 23.4791C19.4142 27.0762 16.6451 28.9223 13.3321 29.0189C12.3273 29.1395 11.4011 29.6267 10.729 30.3884C10.0569 31.1502 9.68539 32.1336 9.68467 33.1526C9.68593 33.7038 9.79521 34.2493 10.0063 34.758C10.2174 35.2666 10.5261 35.7283 10.9147 36.1165C11.3034 36.5047 11.7644 36.8118 12.2711 37.0202C12.7779 37.2287 13.3205 37.3344 13.8679 37.3312C14.9708 37.3279 16.0279 36.8877 16.811 36.1058C17.5941 35.3238 18.0402 34.263 18.0528 33.1526C17.9962 32.4173 18.0982 31.6783 18.3519 30.9865C18.6057 30.2947 19.0052 29.6664 19.5228 29.1447C20.0405 28.623 20.6641 28.2202 21.3508 27.9641C22.0376 27.708 22.7712 27.6046 23.5015 27.661C24.0463 27.6689 24.5872 27.568 25.0932 27.3643C25.5991 27.1605 26.06 26.8579 26.4492 26.4739C26.8384 26.09 27.1483 25.6322 27.3609 25.127C27.5736 24.6219 27.6847 24.0793 27.688 23.5306C27.6908 22.9775 27.5842 22.4293 27.3744 21.9181C27.1647 21.4069 26.856 20.9428 26.4664 20.553C26.0767 20.1632 25.6139 19.8553 25.1049 19.6475C24.5959 19.4396 24.0507 19.3358 23.5015 19.3423L23.4999 19.3406ZM28.9982 33.1445C29.0584 33.8805 28.9589 34.621 28.7064 35.3144C28.454 36.0078 28.0546 36.6375 27.5361 37.1599C27.0177 37.6822 26.3926 38.0847 25.7042 38.3393C25.0158 38.594 24.2805 38.6946 23.5495 38.6344C23.0003 38.628 22.4554 38.7318 21.9464 38.9397C21.4375 39.1476 20.9747 39.4554 20.5852 39.8452C20.1956 40.2351 19.8871 40.6992 19.6775 41.2104C19.4679 41.7216 19.3616 42.2698 19.3647 42.8228C19.3661 43.3741 19.4756 43.9196 19.6869 44.4281C19.8982 44.9367 20.2071 45.3982 20.5959 45.7862C20.9847 46.1743 21.4456 46.4813 21.9525 46.6895C22.4594 46.8978 23.0021 47.0033 23.5495 46.9999C24.6468 46.994 25.6974 46.5516 26.4722 45.7692C27.2471 44.9868 27.6835 43.9278 27.6865 42.8228C27.627 42.0826 27.7287 41.3382 27.9845 40.6417C28.2403 39.9452 28.644 39.3134 29.1675 38.7903C29.6909 38.2672 30.3214 37.8655 31.015 37.6132C31.7086 37.3609 32.4485 37.2641 33.1831 37.3296C33.7313 37.3358 34.2753 37.2322 34.7834 37.0248C35.2915 36.8174 35.7536 36.5104 36.1428 36.1216C36.5321 35.7328 36.8408 35.2699 37.0508 34.7599C37.2608 34.2499 37.3681 33.703 37.3664 33.1509C37.3632 32.6023 37.2524 32.0598 37.0401 31.5545C36.8278 31.0493 36.5182 30.5913 36.1294 30.207C35.7405 29.8228 35.28 29.5199 34.7743 29.3157C34.2687 29.1116 33.7279 29.0101 33.1831 29.0173C32.0852 29.0109 31.0293 29.4418 30.2456 30.2162C29.462 30.9905 29.0141 32.0454 28.9997 33.1509L28.9982 33.1445ZM23.4999 8.35912C24.2343 8.29344 24.9741 8.3899 25.6677 8.6419C26.3612 8.8939 26.9917 9.29535 27.5152 9.81812C28.0388 10.3409 28.4429 10.9724 28.699 11.6686C28.9551 12.3649 29.0572 13.1089 28.9982 13.849C29.0083 14.9609 29.453 16.024 30.236 16.8079C31.0191 17.5919 32.0773 18.0337 33.1814 18.0374C34.2856 18.0337 35.3439 17.5919 36.1269 16.8079C36.91 16.024 37.3546 14.9609 37.3647 13.849C37.3517 12.7391 36.9057 11.6789 36.123 10.8974C35.3403 10.1159 34.2837 9.67574 33.1814 9.67201C32.4469 9.73751 31.707 9.64065 31.0134 9.38836C30.3199 9.13606 29.6893 8.73435 29.1659 8.21125C28.6425 7.68814 28.2387 7.05634 27.9829 6.35984C27.7271 5.66335 27.6253 4.91896 27.6847 4.17877C27.6835 3.62725 27.5742 3.08141 27.3629 2.57258C27.1516 2.06375 26.8425 1.60194 26.4535 1.21368C26.0645 0.825417 25.6032 0.518363 25.0961 0.310099C24.589 0.101834 24.046 -0.00351794 23.4983 8.96092e-05C22.3958 0.00382512 21.339 0.444175 20.5563 1.22607C19.7735 2.00796 19.3277 3.0686 19.3151 4.17877C19.3161 4.73053 19.4252 5.27669 19.6361 5.78594C19.847 6.29519 20.1556 6.75759 20.5441 7.14662C20.9327 7.53565 21.3936 7.84371 21.9006 8.05314C22.4075 8.26258 22.9504 8.3693 23.4983 8.36718L23.4999 8.35912ZM8.36966 23.4726C8.36634 22.924 8.25528 22.3816 8.04277 21.8765C7.83025 21.3714 7.52043 20.9138 7.1314 20.5298C6.74236 20.1458 6.2817 19.8432 5.77597 19.6394C5.27023 19.4356 4.72952 19.3346 4.18483 19.3423C3.0872 19.3354 2.03135 19.7656 1.24744 20.5393C0.463534 21.313 0.0151768 22.3674 0 23.4726C0.00125768 24.0244 0.110554 24.5706 0.321625 25.0798C0.532695 25.5891 0.841376 26.0515 1.23006 26.4405C1.61875 26.8295 2.07965 27.1375 2.58667 27.3469C3.09368 27.5564 3.63683 27.6631 4.18483 27.661C4.73401 27.6674 5.27894 27.5636 5.78788 27.3557C6.29682 27.1478 6.75962 26.84 7.14917 26.4502C7.53871 26.0603 7.84726 25.5962 8.05683 25.085C8.26639 24.5737 8.37267 24.0256 8.36966 23.4726Z" fill="#008DD1"/>
</g>
</g>
</g>
</svg>
