<svg xmlns="http://www.w3.org/2000/svg" width="244.236" height="34" viewBox="0 0 244.236 34">
  <g id="Group_652" data-name="Group 652" transform="translate(-91.882 -75)">
    <g id="Group_169" data-name="Group 169" transform="translate(1136.612 -714.824)">
      <g id="Group_164" data-name="Group 164" transform="translate(-999.226 797.463)">
        <g id="Group_163" data-name="Group 163" transform="translate(0 0)">
          <path id="Path_916" data-name="Path 916" d="M-885.465,816.369a1.353,1.353,0,0,1,.638.193l16.474,10.983V817.519a1.151,1.151,0,0,1,1.15-1.15,1.151,1.151,0,0,1,1.15,1.15v12.174a1.151,1.151,0,0,1-1.151,1.15,1.355,1.355,0,0,1-.638-.193l-16.474-10.983v10.026a1.151,1.151,0,0,1-1.151,1.15,1.151,1.151,0,0,1-1.15-1.15V817.519a1.152,1.152,0,0,1,1.141-1.15Z" transform="translate(886.615 -816.369)" fill="#313133"/>
          <path id="Path_917" data-name="Path 917" d="M-780.578,816.37h0a1.151,1.151,0,0,1,1.151,1.15h0a1.151,1.151,0,0,1-1.151,1.15h-15.895v9.872h15.895a1.151,1.151,0,0,1,1.151,1.15h0a1.151,1.151,0,0,1-1.151,1.15h-17.046a1.151,1.151,0,0,1-1.15-1.151h0V817.52a1.151,1.151,0,0,1,1.15-1.15Zm-1.217,6.084a1.151,1.151,0,0,1,1.15,1.151h0a1.151,1.151,0,0,1-1.15,1.15h-11.018a1.151,1.151,0,0,1-1.15-1.15h0a1.151,1.151,0,0,1,1.15-1.151Z" transform="translate(824.053 -816.37)" fill="#313133"/>
          <path id="Path_918" data-name="Path 918" d="M-712.828,817.519V823.6a4.922,4.922,0,0,0,4.939,4.939h6.084a4.922,4.922,0,0,0,4.939-4.939v-6.084a1.151,1.151,0,0,1,1.15-1.15,1.151,1.151,0,0,1,1.151,1.15V823.6a7.258,7.258,0,0,1-7.24,7.24h-6.084a7.258,7.258,0,0,1-7.24-7.24v-6.084a1.151,1.151,0,0,1,1.151-1.15A1.151,1.151,0,0,1-712.828,817.519Z" transform="translate(764.481 -816.369)" fill="#313133"/>
          <path id="Path_919" data-name="Path 919" d="M-610.921,816.37a4.212,4.212,0,0,1,4.2,4.192,4.213,4.213,0,0,1-4.2,4.193h-2.287l5.972,3.982a1.285,1.285,0,0,1,.512.957,1.35,1.35,0,0,1-.193.638,1.285,1.285,0,0,1-.957.512,1.349,1.349,0,0,1-.637-.193l-8.843-5.9h-7.632v4.939h0a1.151,1.151,0,0,1-1.151,1.15h0a1.151,1.151,0,0,1-1.15-1.15h0V823.6h0a1.151,1.151,0,0,1,1.15-1.151h15.216a1.877,1.877,0,0,0,1.9-1.892,1.877,1.877,0,0,0-1.9-1.892h-15.216a1.151,1.151,0,0,1-1.15-1.15h0a1.152,1.152,0,0,1,1.15-1.15Z" transform="translate(701.919 -816.37)" fill="#313133"/>
          <path id="Path_920" data-name="Path 920" d="M-526.084,816.369a7.254,7.254,0,0,1,7.239,7.235,7.258,7.258,0,0,1-7.239,7.24h-7.767a7.258,7.258,0,0,1-7.239-7.24,7.254,7.254,0,0,1,7.239-7.235Zm-12.705,7.235a4.922,4.922,0,0,0,4.938,4.939h7.767a4.922,4.922,0,0,0,4.938-4.939,4.918,4.918,0,0,0-4.938-4.934h-7.767A4.918,4.918,0,0,0-538.789,823.6Z" transform="translate(640.528 -816.369)" fill="#313133"/>
          <path id="Path_921" data-name="Path 921" d="M-446.253,816.369a1.353,1.353,0,0,1,.638.193l16.474,10.983V817.519a1.151,1.151,0,0,1,1.15-1.15,1.151,1.151,0,0,1,1.151,1.15v12.174a1.151,1.151,0,0,1-1.151,1.15,1.352,1.352,0,0,1-.638-.193L-445.1,819.667v10.026a1.151,1.151,0,0,1-1.15,1.15,1.151,1.151,0,0,1-1.151-1.15V817.519a1.153,1.153,0,0,1,1.141-1.15Z" transform="translate(573.803 -816.369)" fill="#313133"/>
          <path id="Path_922" data-name="Path 922" d="M-341.366,816.369a1.151,1.151,0,0,1,1.15,1.15,1.15,1.15,0,0,1-1.15,1.15h-14a1.874,1.874,0,0,0-1.892,1.892,1.873,1.873,0,0,0,1.892,1.892h12.178a4.213,4.213,0,0,1,4.193,4.2,4.209,4.209,0,0,1-4.193,4.193h-15.22a1.151,1.151,0,0,1-1.151-1.15,1.151,1.151,0,0,1,1.151-1.151h15.22a1.874,1.874,0,0,0,1.892-1.892,1.878,1.878,0,0,0-1.892-1.9h-12.178a4.209,4.209,0,0,1-4.193-4.193,4.209,4.209,0,0,1,4.193-4.193Z" transform="translate(511.241 -816.369)" fill="#313133"/>
          <path id="Path_923" data-name="Path 923" d="M-258.358,816.369a7.254,7.254,0,0,1,7.24,7.235,7.258,7.258,0,0,1-7.24,7.24h-7.767a7.258,7.258,0,0,1-7.24-7.24,7.254,7.254,0,0,1,7.24-7.235Zm-12.705,7.235a4.922,4.922,0,0,0,4.939,4.939h7.767a4.923,4.923,0,0,0,4.939-4.939,4.919,4.919,0,0,0-4.939-4.934h-7.767A4.919,4.919,0,0,0-271.063,823.6Z" transform="translate(449.85 -816.369)" fill="#313133"/>
        </g>
      </g>
      <g id="Group_168" data-name="Group 168" transform="translate(-1044.73 789.824)">
        <g id="Group_166" data-name="Group 166" transform="translate(37.134 0)">
          <g id="Group_165" data-name="Group 165">
            <rect id="Rectangle_26" data-name="Rectangle 26" width="0.943" height="34" fill="#313133"/>
          </g>
        </g>
        <g id="Group_167" data-name="Group 167" transform="translate(0 2.415)">
          <path id="Path_924" data-name="Path 924" d="M-1015.351,812.817a2.58,2.58,0,0,0-2.585-2.6,2.587,2.587,0,0,0-2.616,2.6,2.6,2.6,0,0,0,2.616,2.594,2.6,2.6,0,0,0,2.585-2.594Zm-14.69-2.6a3.858,3.858,0,0,1-3.862-3.862,2.624,2.624,0,0,0-2.615-2.593,2.623,2.623,0,0,0-2.615,2.593,2.625,2.625,0,0,0,2.615,2.6,3.9,3.9,0,0,1,3.892,3.831c.031,2.233-1.7,3.379-3.771,3.439a2.586,2.586,0,0,0-2.28,2.566,2.6,2.6,0,0,0,2.615,2.594,2.624,2.624,0,0,0,2.616-2.594,3.173,3.173,0,0,1,3.406-3.409,2.58,2.58,0,0,0,2.617-2.564,2.587,2.587,0,0,0-2.617-2.6Zm3.437,8.569a3.159,3.159,0,0,1-3.406,3.408,2.586,2.586,0,0,0-2.616,2.6,2.6,2.6,0,0,0,2.616,2.593,2.6,2.6,0,0,0,2.586-2.593,3.167,3.167,0,0,1,3.436-3.41,2.586,2.586,0,0,0,2.615-2.594,2.581,2.581,0,0,0-2.615-2.566,2.6,2.6,0,0,0-2.615,2.566Zm-3.437-15.386a3.167,3.167,0,0,1,3.437,3.408,2.624,2.624,0,0,0,2.615,2.6,2.624,2.624,0,0,0,2.615-2.6,2.624,2.624,0,0,0-2.615-2.593,3.167,3.167,0,0,1-3.436-3.41,2.6,2.6,0,0,0-2.617-2.594,2.624,2.624,0,0,0-2.615,2.594,2.605,2.605,0,0,0,2.615,2.6Zm-9.458,9.382a2.58,2.58,0,0,0-2.616-2.564,2.6,2.6,0,0,0-2.616,2.564,2.606,2.606,0,0,0,2.616,2.6,2.586,2.586,0,0,0,2.616-2.6Z" transform="translate(1044.73 -798.215)" fill="#008dd1" fill-rule="evenodd"/>
        </g>
      </g>
    </g>
  </g>
</svg>
