<?xml version="1.0" encoding="UTF-8"?>
<svg xmlns="http://www.w3.org/2000/svg" width="16" height="16" viewBox="0 0 16 16" fill="none">
    <g clip-path="url(#clip0_3591_658)">
        <path
            d="M6.66675 8.66671C6.66675 9.02033 6.80722 9.35947 7.05727 9.60952C7.30732 9.85956 7.64646 10 8.00008 10C8.3537 10 8.69284 9.85956 8.94289 9.60952C9.19294 9.35947 9.33341 9.02033 9.33341 8.66671C9.33341 8.31309 9.19294 7.97395 8.94289 7.7239C8.69284 7.47385 8.3537 7.33337 8.00008 7.33337C7.64646 7.33337 7.30732 7.47385 7.05727 7.7239C6.80722 7.97395 6.66675 8.31309 6.66675 8.66671Z"
            stroke="#666" stroke-width="1.3" stroke-linecap="round" stroke-linejoin="round" />
        <path d="M8.96655 7.70004L10.3332 6.33337" stroke="#666" stroke-width="1.5" stroke-linecap="round"
            stroke-linejoin="round" />
        <path
            d="M4.26667 13.3333C3.2921 12.5587 2.58261 11.5001 2.23652 10.3042C1.89043 9.10841 1.92488 7.83453 2.3351 6.65915C2.74531 5.48376 3.51098 4.46508 4.52599 3.74427C5.541 3.02347 6.75509 2.63623 8 2.63623C9.24491 2.63623 10.459 3.02347 11.474 3.74427C12.489 4.46508 13.2547 5.48376 13.6649 6.65915C14.0751 7.83453 14.1096 9.10841 13.7635 10.3042C13.4174 11.5001 12.7079 12.5587 11.7333 13.3333H4.26667Z"
            stroke="#666" stroke-width="1.3" stroke-linecap="round" stroke-linejoin="round" />
    </g>
    <defs>
        <clipPath id="clip0_3591_658">
            <rect width="16" height="16" fill="white" />
        </clipPath>
    </defs>
</svg>