<?xml version="1.0" encoding="UTF-8"?>
<svg xmlns="http://www.w3.org/2000/svg" width="16" height="16" viewBox="0 0 16 16" fill="none">
    <g clip-path="url(#clip0_4005_15099)">
        <path
            d="M3.33341 2.66669H6.00008C6.17689 2.66669 6.34646 2.73693 6.47149 2.86195C6.59651 2.98697 6.66675 3.15654 6.66675 3.33335V7.33335C6.66675 7.51016 6.59651 7.67973 6.47149 7.80476C6.34646 7.92978 6.17689 8.00002 6.00008 8.00002H3.33341C3.1566 8.00002 2.98703 7.92978 2.86201 7.80476C2.73699 7.67973 2.66675 7.51016 2.66675 7.33335V3.33335C2.66675 3.15654 2.73699 2.98697 2.86201 2.86195C2.98703 2.73693 3.1566 2.66669 3.33341 2.66669Z"
            stroke="#666" stroke-width="1.5" stroke-linecap="round" stroke-linejoin="round" />
        <path
            d="M3.33341 10.6667H6.00008C6.17689 10.6667 6.34646 10.7369 6.47149 10.8619C6.59651 10.987 6.66675 11.1565 6.66675 11.3334V12.6667C6.66675 12.8435 6.59651 13.0131 6.47149 13.1381C6.34646 13.2631 6.17689 13.3334 6.00008 13.3334H3.33341C3.1566 13.3334 2.98703 13.2631 2.86201 13.1381C2.73699 13.0131 2.66675 12.8435 2.66675 12.6667V11.3334C2.66675 11.1565 2.73699 10.987 2.86201 10.8619C2.98703 10.7369 3.1566 10.6667 3.33341 10.6667Z"
            stroke="#666" stroke-width="1.5" stroke-linecap="round" stroke-linejoin="round" />
        <path
            d="M9.99992 8H12.6666C12.8434 8 13.013 8.07024 13.138 8.19526C13.263 8.32029 13.3333 8.48986 13.3333 8.66667V12.6667C13.3333 12.8435 13.263 13.013 13.138 13.1381C13.013 13.2631 12.8434 13.3333 12.6666 13.3333H9.99992C9.82311 13.3333 9.65354 13.2631 9.52851 13.1381C9.40349 13.013 9.33325 12.8435 9.33325 12.6667V8.66667C9.33325 8.48986 9.40349 8.32029 9.52851 8.19526C9.65354 8.07024 9.82311 8 9.99992 8Z"
            stroke="#666" stroke-width="1.5" stroke-linecap="round" stroke-linejoin="round" />
        <path
            d="M9.99992 2.66669H12.6666C12.8434 2.66669 13.013 2.73693 13.138 2.86195C13.263 2.98697 13.3333 3.15654 13.3333 3.33335V4.66669C13.3333 4.8435 13.263 5.01307 13.138 5.13809C13.013 5.26312 12.8434 5.33335 12.6666 5.33335H9.99992C9.82311 5.33335 9.65354 5.26312 9.52851 5.13809C9.40349 5.01307 9.33325 4.8435 9.33325 4.66669V3.33335C9.33325 3.15654 9.40349 2.98697 9.52851 2.86195C9.65354 2.73693 9.82311 2.66669 9.99992 2.66669Z"
            stroke="#666" stroke-width="1.5" stroke-linecap="round" stroke-linejoin="round" />
    </g>
    <defs>
        <clipPath id="clip0_4005_15099">
            <rect width="16" height="16" fill="white" />
        </clipPath>
    </defs>
</svg>