<svg xmlns="http://www.w3.org/2000/svg" width="16" height="16" viewBox="0 0 16 16" fill="none">
    <g clip-path="url(#clip0_3016_17218)">
        <path
            d="M2.6665 13.3333L9.33317 6.66665M9.33317 6.66665V3.33331L6.6665 5.99998M9.33317 6.66665H12.6665M6.6665 5.99998V9.33331H9.99984M6.6665 5.99998L3.99984 8.66665V12H7.33317"
            stroke="#666666" stroke-width="1.5" stroke-linecap="round" stroke-linejoin="round" />
        <path
            d="M9.3335 3.33335C9.7575 2.91135 10.3422 2.66669 10.9888 2.66669C11.2966 2.66651 11.6014 2.72697 11.8858 2.84462C12.1703 2.96226 12.4287 3.13478 12.6464 3.35233C12.8642 3.56987 13.0369 3.82818 13.1548 4.1125C13.2727 4.39681 13.3334 4.70157 13.3335 5.00935C13.3335 5.65669 13.0922 6.24269 12.6668 6.66669L10.0002 9.33335L7.3335 12"
            stroke="#666666" stroke-width="1.5" stroke-linecap="round" stroke-linejoin="round" />
    </g>
    <defs>
        <clipPath id="clip0_3016_17218">
            <rect width="16" height="16" fill="white" />
        </clipPath>
    </defs>
</svg>